<svg version="1.1" id="Layer_1" xmlns="http://www.w3.org/2000/svg" xmlns:xlink="http://www.w3.org/1999/xlink" x="0px" y="0px"
	 width="305px" height="200px" viewBox="0 0 305 200" enable-background="new 0 0 305 200" xml:space="preserve">
<g>
	<g>
		<g>
			<g>
				<defs>
					<rect id="SVGID_1_" x="-39.954" y="-4.993" width="424.707" height="212.993"/>
				</defs>
				<clipPath id="SVGID_2_">
					<use xlink:href="#SVGID_1_"  overflow="visible"/>
				</clipPath>
				<g clip-path="url(#SVGID_2_)">
					
						<linearGradient id="SVGID_3_" gradientUnits="userSpaceOnUse" x1="685.1055" y1="457.5166" x2="735.0682" y2="692.6353" gradientTransform="matrix(1 0 0 1 -541.0898 -489.5898)">
						<stop  offset="0" style="stop-color:#4672B8"/>
						<stop  offset="0.6503" style="stop-color:#578CC9"/>
						<stop  offset="0.8344" style="stop-color:#5A9FD0"/>
						<stop  offset="1" style="stop-color:#55AFD9"/>
					</linearGradient>
					<rect x="-71.539" y="-33.944" fill="url(#SVGID_3_)" width="487.876" height="270.898"/>
					<g>
						<polyline fill="#6691CB" points="244.609,69.92 241.579,82.977 259.687,70.916 244.609,69.92 						"/>
						<polyline fill="#5786C5" points="259.687,70.916 256.605,88.108 241.579,82.977 259.687,70.916 						"/>
						<polyline fill="#608FCB" points="259.687,70.916 271.524,85.958 256.605,88.108 259.687,70.916 						"/>
						<polyline fill="#6590CB" points="275.45,61.877 271.524,85.958 259.687,70.916 275.45,61.877 						"/>
						<polyline fill="#6695CE" points="241.839,82.873 218.177,106.223 222.601,85.78 241.839,82.873 						"/>
						<polyline fill="#4170B7" points="46.774,50.891 35.702,53.914 35.233,40.059 46.774,50.891 						"/>
						<polyline fill="#497CBF" points="35.233,40.059 14.741,69.886 35.702,53.914 35.233,40.059 						"/>
						<polyline fill="#3E6CB5" points="35.233,40.059 14.799,50.511 14.563,69.944 35.233,40.059 						"/>
						<polyline fill="#4779BD" points="14.448,50.804 -6.927,74.172 14.563,69.944 14.448,50.804 						"/>
						<polygon fill="#4772B8" points="-6.868,73.881 -13.916,53.445 9.531,34.33 						"/>
						<polygon fill="#416EB5" points="-13.916,53.445 -8.629,41.408 9.729,34.179 						"/>
						<polygon fill="#4A75BA" points="-8.629,41.408 -13.739,53.21 -29.71,52.33 						"/>
						<polygon fill="#4169B1" points="-8.629,41.408 -30.177,41.526 -29.71,52.33 						"/>
						<polyline fill="#436CB4" points="-6.41,23.629 -30.177,41.526 -8.631,41.436 -6.355,23.636 						"/>
						<polygon fill="#466EB5" points="-30.177,41.526 -34.248,21.167 -6.22,23.441 						"/>
						<polyline fill="#4169B2" points="-34.248,21.167 -55.109,41.521 -30.177,41.526 -34.248,21.167 						"/>
						<polyline fill="#5D85C4" points="310.015,21.274 315.143,41.213 294.414,41.252 310.015,21.274 						"/>
						<polyline fill="#6387C5" points="310.015,21.274 315.143,41.213 339.148,23.642 309.877,21.229 						"/>
						<polyline fill="#5585C5" points="339.148,23.642 336.563,41.124 315.143,41.213 339.148,23.642 						"/>
						<polyline fill="#628DC9" points="294.414,41.252 290.483,51.256 276.873,51.415 294.414,41.252 						"/>
						<polygon fill="#5F89C7" points="290.483,51.256 276.873,51.415 275.45,61.877 						"/>
						<polygon fill="#648BC5" points="290.483,51.256 275.45,61.877 297.125,69.384 						"/>
						<polygon fill="#5A87C6" points="290.483,51.256 316.516,51.854 297.125,69.384 						"/>
						<polygon fill="#507DBF" points="290.619,51.055 315.143,41.213 316.516,51.854 						"/>
						<polyline fill="#5683C3" points="294.414,41.252 290.483,51.256 315.143,41.213 294.414,41.252 						"/>
						<polygon fill="#5480C1" points="315.143,41.213 316.516,51.854 336.563,41.124 						"/>
						<polyline fill="#5E8BC8" points="336.563,41.124 316.516,51.854 331.457,53.249 336.563,41.124 						"/>
						<polygon fill="#5A86C5" points="331.457,53.249 316.516,51.854 315.718,72.572 						"/>
						<polygon fill="#5184C4" points="316.516,51.854 315.521,72.635 297.125,69.384 						"/>
						<polygon fill="#6592CC" points="297.125,69.384 288.162,78.217 275.45,61.877 						"/>
						<polygon fill="#5F8ECA" points="297.125,69.384 288.162,78.217 315.718,72.572 						"/>
						<polygon fill="#5889C7" points="315.718,72.572 288.427,78.149 292.677,89.571 						"/>
						<polyline fill="#5C8FCB" points="315.718,72.572 292.677,89.571 311.804,84.791 315.521,72.635 						"/>
						<path fill="#5C8FCB" d="M338.297,74.164"/>
						<path fill="#5C8FCB" d="M338.297,74.164"/>
						<polygon fill="#4878BC" points="331.457,53.249 316.253,72.772 338.763,74.365 						"/>
						<polygon fill="#5B8FCB" points="338.763,74.365 315.857,72.972 312.201,84.724 						"/>
						<polygon fill="#5B8FCB" points="338.763,74.365 312.004,84.724 338.167,85.786 						"/>
						<polygon fill="#4F82C3" points="338.167,85.786 310.938,103.184 312.201,84.724 						"/>
						<polygon fill="#578ECB" points="310.677,103.05 291.618,100.463 312.201,84.724 						"/>
						<polygon fill="#508CCA" points="292.282,90.104 291.618,100.463 312.201,84.724 						"/>
						<polyline fill="#5885C4" points="355.608,34.049 338.763,74.365 331.457,53.249 355.608,34.049 						"/>
						<polyline fill="#5081C2" points="355.608,34.049 359.396,51.599 338.763,74.365 355.608,34.049 						"/>
						<polygon fill="#4E78BC" points="359.396,51.599 381.735,39.335 355.608,34.049 						"/>
						<polyline fill="#507DBF" points="355.608,34.049 381.735,39.335 379.626,16.391 355.608,34.049 						"/>
						<polyline fill="#4976BB" points="379.626,16.391 390.585,28.282 381.735,39.335 379.626,16.391 						"/>
						<polygon fill="#4576BB" points="381.735,39.335 360.057,69.107 359.396,51.599 						"/>
						<polygon fill="#5386C6" points="359.396,51.599 360.057,69.107 338.832,74.175 						"/>
						<polygon fill="#4882C3" points="360.057,69.107 338.167,85.786 338.763,74.365 						"/>
						<polygon fill="#4D83C4" points="381.735,39.335 381.376,53.806 360.181,68.84 						"/>
						<polygon fill="#497DC0" points="381.376,53.806 375.213,70.876 360.057,69.107 						"/>
						<polygon fill="#5084C4" points="375.213,70.876 357.104,83.612 360.057,69.107 						"/>
						<polygon fill="#578FCB" points="357.104,83.612 338.167,85.786 360.057,69.107 						"/>
						<polyline fill="#6A87C4" points="277.367,-17.911 266.01,-10.288 272.495,-31.257 277.367,-17.911 						"/>
						<polygon fill="#6090CB" points="288.162,78.217 278.274,97.327 275.45,61.877 						"/>
						<polyline fill="#5889C7" points="275.45,61.877 278.274,96.977 271.524,85.958 275.45,61.877 						"/>
						<polygon fill="#6097D0" points="278.274,96.977 266.632,103.191 271.524,85.958 						"/>
						<polygon fill="#5B93CE" points="271.524,85.958 241.863,105.38 266.632,103.191 						"/>
						<polygon fill="#6091CC" points="256.605,88.108 241.863,105.38 271.524,85.958 						"/>
						<polygon fill="#6393CB" points="256.605,88.108 241.579,82.977 241.863,105.38 						"/>
						<polyline fill="#5B8FCB" points="241.579,82.977 218.177,106.223 241.863,105.38 241.579,82.977 						"/>
						<polyline fill="#6595CE" points="222.601,85.78 196.272,102.267 218.177,106.223 222.601,85.78 						"/>
						<polyline fill="#4D78BC" points="60.368,51.602 45.195,62.464 46.774,50.891 60.368,51.602 						"/>
						<polygon fill="#4977BC" points="45.195,62.464 35.702,53.914 46.774,50.891 						"/>
						<polygon fill="#5180C1" points="45.195,62.163 29.736,71.018 35.702,53.914 						"/>
						<polygon fill="#4475B9" points="35.702,53.914 14.741,69.886 29.736,71.018 						"/>
						<polygon fill="#4D7EC0" points="45.195,62.163 40.617,86.923 29.736,71.018 						"/>
						<polyline fill="#5181C2" points="60.368,51.602 45.195,62.464 68.151,69.743 60.368,51.602 						"/>
						<polygon fill="#5684C4" points="45.195,62.163 57.649,78.443 68.151,69.743 						"/>
						<polygon fill="#5385C5" points="57.649,78.443 48.119,97.578 45.195,62.464 						"/>
						<polygon fill="#4779BD" points="48.119,97.578 40.617,86.923 45.195,62.464 						"/>
						<polygon fill="#497DBF" points="40.617,86.923 26.288,87.749 29.736,71.018 						"/>
						<polygon fill="#4172B9" points="29.736,71.018 11.282,83.322 26.288,87.749 						"/>
						<polyline fill="#497DBF" points="14.563,69.944 11.282,83.322 29.736,71.018 14.741,69.886 						"/>
						<polygon fill="#4D7EC0" points="14.582,69.591 -7.624,85.346 11.282,83.322 						"/>
						<polygon fill="#3C6FB6" points="14.582,69.591 -7.249,74.319 -7.55,85.047 						"/>
						<polyline fill="#3966B0" points="-6.927,74.172 -13.739,53.21 -29.534,72.668 -6.927,74.172 						"/>
						<polygon fill="#416FB6" points="-13.739,53.21 -29.534,72.668 -29.71,52.33 						"/>
						<polygon fill="#3B61AD" points="-30.177,41.526 -56.092,51.06 -29.71,52.33 						"/>
						<polygon fill="#5386C6" points="375.213,70.876 390.895,62.966 381.376,53.806 						"/>
						<polygon fill="#4B83C4" points="390.895,62.966 375.213,70.876 385.559,87.176 						"/>
						<polygon fill="#437DC0" points="375.213,70.876 371.405,87.64 357.104,83.612 						"/>
						<polygon fill="#4A82C3" points="375.213,70.876 371.405,87.64 385.402,86.786 						"/>
						<polygon fill="#4C89C8" points="371.405,87.64 357.021,105.737 357.104,83.612 						"/>
						<polygon fill="#4A86C6" points="357.104,83.612 333.279,105.89 357.021,105.737 						"/>
						<polygon fill="#558ECB" points="357.104,83.612 338.167,85.786 333.279,105.89 						"/>
						<polygon fill="#538CCA" points="337.918,86.015 333.279,105.58 310.938,103.184 						"/>
						<polygon fill="#5A95CF" points="310.938,103.184 311.625,117.415 333.279,105.58 						"/>
						<polygon fill="#4E8FCC" points="333.279,105.58 338.462,123.604 357.021,105.737 						"/>
						<polygon fill="#4F8BC9" points="386.18,86.711 371.405,87.64 357.021,105.737 						"/>
						<polygon fill="#4282C4" points="386.18,86.711 380.996,105.041 357.021,105.737 						"/>
						<polyline fill="#4F90CD" points="380.996,104.81 357.021,105.737 360.887,124.994 380.996,105.041 						"/>
						<path fill="#4F90CD" d="M386.18,86.401"/>
						<polygon fill="#4787C7" points="386.18,86.711 381.463,104.654 393.756,96.224 						"/>
						<polygon fill="#437DC0" points="393.756,96.224 386.18,86.711 390.895,62.966 						"/>
						<path fill="#3D82C4" d="M375.04,121.669c0,0-14.073,3.479-13.845,3.479c0.236,0,20.032-19.568,20.032-19.568L375.04,121.669z"
							/>
						<polygon fill="#428DCB" points="361.195,125.148 354.316,139.767 339.157,139.381 						"/>
						<polygon fill="#4C92CF" points="361.195,125.148 338.462,123.604 339.157,139.381 						"/>
						<polygon fill="#5495D0" points="357.021,105.737 338.462,123.604 361.043,125.383 						"/>
						<polygon fill="#4C8CCA" points="333.509,105.507 311.625,117.415 338.462,123.604 						"/>
						<polygon fill="#5D99D2" points="338.462,123.604 310.385,136.749 311.625,117.415 						"/>
						<polygon fill="#5899D2" points="338.462,123.604 339.157,139.381 310.385,136.749 						"/>
						<polygon fill="#5FA1D5" points="339.157,139.381 316.34,156.782 310.385,136.749 						"/>
						<polygon fill="#589ED6" points="339.157,139.381 337.146,155.932 316.34,156.782 						"/>
						<polygon fill="#579DD5" points="339.157,139.381 337.146,155.932 354.086,140.075 						"/>
						<polygon fill="#57A0D7" points="354.086,140.075 355.244,149.59 337.146,155.932 						"/>
						<polygon fill="#589AD3" points="361.352,125.383 379.837,131.648 354.086,140.075 						"/>
						<polygon fill="#4492CE" points="379.837,131.648 355.244,149.59 354.086,140.075 						"/>
						<polygon fill="#4D96D1" points="379.837,131.648 375.04,121.669 361.043,125.383 						"/>
						<polygon fill="#4D99D3" points="379.837,131.648 355.244,149.59 380.532,155.699 						"/>
						<polygon fill="#499AD4" points="355.244,149.59 359.963,166.372 380.532,155.699 						"/>
						<polygon fill="#53A3DA" points="359.963,166.372 338.846,188.646 355.244,149.59 						"/>
						<polygon fill="#558AC8" points="288.162,78.217 292.677,89.571 278.274,96.977 						"/>
						<polygon fill="#4C88C7" points="292.129,89.829 278.274,96.977 291.618,100.463 						"/>
						<polygon fill="#6899D1" points="278.274,96.977 266.632,103.191 280.278,112.14 						"/>
						<polygon fill="#6798CE" points="266.632,103.191 280.278,112.14 259.687,121.738 						"/>
						<polygon fill="#5590CC" points="266.632,103.191 245.854,124.913 259.687,121.738 						"/>
						<polygon fill="#6499D0" points="241.863,105.38 245.854,124.913 266.632,103.191 						"/>
						<polygon fill="#6B9DD3" points="241.863,105.38 222.352,123.457 245.854,124.913 						"/>
						<polygon fill="#6396CF" points="241.863,105.38 218.378,105.98 222.352,123.457 						"/>
						<polygon fill="#6296D0" points="218.378,105.98 196.533,116.575 222.352,123.457 						"/>
						<polyline fill="#6C9AD1" points="196.272,102.267 196.533,116.575 218.775,106.047 196.272,102.267 						"/>
						<polyline fill="#6897D0" points="196.272,102.267 180.183,118.96 196.533,116.575 196.272,102.267 						"/>
						<polyline fill="#6E9BD2" points="175.612,100.355 180.183,118.96 196.272,102.267 175.612,100.355 						"/>
						<polygon fill="#6298D1" points="196.533,116.575 181.572,137.629 180.183,118.96 						"/>
						<polygon fill="#5E98D1" points="180.183,118.96 160.586,128.954 181.572,137.629 						"/>
						<polygon fill="#6EA1D6" points="165.088,111.547 160.786,128.626 180.578,118.96 						"/>
						<polyline fill="#6B99D1" points="175.612,100.355 165.088,111.547 163.565,96.583 175.612,100.355 						"/>
						<polygon fill="#6F9CD2" points="150.589,104.396 165.088,111.547 163.565,96.583 						"/>
						<polygon fill="#6999D1" points="150.589,104.396 130.729,124.319 126.822,105.323 						"/>
						<polygon fill="#6B9CD3" points="126.822,105.323 107.692,122.932 130.86,124.718 						"/>
						<polygon fill="#5D96D0" points="126.822,105.323 103.584,105.98 107.692,122.932 						"/>
						<polyline fill="#568ECB" points="126.669,83.452 103.584,105.98 126.822,105.323 126.669,83.452 						"/>
						<polyline fill="#6492CD" points="107.508,85.283 103.584,105.98 126.939,83.372 107.508,85.283 						"/>
						<polyline fill="#4D7FC1" points="107.508,85.283 81.208,85.131 80.547,103.136 107.508,85.283 						"/>
						<polyline fill="#5A8ECB" points="107.508,85.283 80.547,103.136 103.584,105.98 107.508,85.283 						"/>
						<polyline fill="#5F8AC7" points="108.003,74.238 85.795,72.379 81.241,84.869 108.003,74.238 						"/>
						<polyline fill="#608FCB" points="108.003,74.238 81.208,85.131 107.508,85.283 108.003,74.238 						"/>
						<polyline fill="#5F8FCA" points="85.795,72.379 61.902,90.427 81.208,85.131 85.795,72.379 						"/>
						<polygon fill="#4A82C3" points="81.208,85.131 60.27,100.504 61.902,90.427 						"/>
						<polygon fill="#5789C7" points="81.208,85.131 60.27,100.504 80.547,103.136 						"/>
						<polygon fill="#5084C4" points="62.052,90.058 57.649,78.443 85.795,72.379 						"/>
						<polyline fill="#5585C5" points="67.913,69.679 57.649,78.443 85.795,72.379 67.913,69.679 						"/>
						<polygon fill="#4B80C2" points="57.649,78.443 48.119,97.578 62.052,90.058 						"/>
						<polygon fill="#487EC0" points="61.902,90.427 48.343,97.613 60.27,100.504 						"/>
						<polygon fill="#4F85C5" points="48.119,97.578 35.452,104.728 40.617,86.923 						"/>
						<polygon fill="#467EC0" points="40.617,86.923 11.817,105.318 35.452,104.728 						"/>
						<polygon fill="#4A82C3" points="40.617,86.923 26.288,87.749 12.114,105.245 						"/>
						<polygon fill="#427FC1" points="26.288,87.749 12.114,105.245 11.282,83.322 						"/>
						<polygon fill="#4179BD" points="11.282,83.322 -11.82,105.761 11.817,105.318 						"/>
						<polygon fill="#497DC0" points="11.282,83.322 -7.624,85.346 -11.82,105.761 						"/>
						<polyline fill="#477ABD" points="-6.927,74.172 -7.624,85.346 -34.125,85.387 -6.927,74.172 						"/>
						<polyline fill="#4774BA" points="-6.927,74.172 -29.534,72.668 -34.125,85.387 -6.927,74.172 						"/>
						<polygon fill="#6296D0" points="291.292,100.494 280.218,111.902 278.274,96.977 						"/>
						<polygon fill="#4A8FCC" points="393.756,96.224 381.463,104.654 394.141,112.957 						"/>
						<polygon fill="#4D91CE" points="381.463,104.654 375.235,121.438 394.141,112.957 						"/>
						<polygon fill="#468FCD" points="394.141,112.957 379.837,131.648 375.04,121.669 						"/>
						<polygon fill="#3E86C7" points="379.588,131.563 393.992,128.339 394.141,112.957 						"/>
						<polygon fill="#469BD5" points="380.532,155.699 359.963,166.372 359.855,185.733 						"/>
						<polygon fill="#5DABDA" points="359.963,166.372 359.855,185.733 338.846,188.884 						"/>
						<polygon fill="#5EA7DB" points="355.244,149.59 331.347,168.776 338.846,188.884 						"/>
						<polygon fill="#579FD7" points="337.146,155.932 331.347,168.776 355.244,149.59 						"/>
						<polygon fill="#68A8DC" points="337.146,155.932 316.19,167.35 331.347,168.776 						"/>
						<polyline fill="#55A2D9" points="336.897,156.02 316.34,156.782 316.19,167.35 337.146,155.932 						"/>
						<polygon fill="#54A1D8" points="315.74,157.072 290.305,166.522 316.19,167.35 						"/>
						<polygon fill="#5CA0D7" points="310.385,136.749 294.282,156.547 316.34,156.782 						"/>
						<polygon fill="#579AD3" points="310.385,136.749 296.532,137.939 294.583,156.17 						"/>
						<polygon fill="#5B9AD3" points="311.625,117.415 296.532,137.939 310.385,136.749 						"/>
						<polygon fill="#5494CF" points="311.625,117.415 296.008,118.735 296.688,137.566 						"/>
						<polygon fill="#5194CF" points="296.008,118.735 275.828,128.561 296.532,137.939 						"/>
						<polygon fill="#62A2D8" points="296.532,137.939 282.052,151.371 294.583,156.17 						"/>
						<polygon fill="#66A3D6" points="296.532,137.939 274.777,143.867 282.052,151.371 						"/>
						<polygon fill="#619DD3" points="274.851,143.492 264.197,133.063 296.532,137.939 						"/>
						<polygon fill="#669DD4" points="296.532,137.939 275.828,128.561 265.099,133.814 						"/>
						<polygon fill="#5392CE" points="280.278,112.14 275.828,128.561 265.099,133.814 						"/>
						<polygon fill="#6299D2" points="265.174,133.438 259.687,121.738 280.278,112.14 						"/>
						<polygon fill="#68A0D6" points="265.099,133.737 245.854,124.913 259.687,121.738 						"/>
						<polygon fill="#6CA3D7" points="245.854,124.913 239.289,139.966 265.099,133.737 						"/>
						<polygon fill="#5C99D2" points="239.289,139.966 223.758,139.289 245.854,124.913 						"/>
						<polygon fill="#639CD3" points="245.854,124.913 222.352,123.457 223.758,139.289 						"/>
						<polygon fill="#5695CF" points="310.938,103.184 295.794,118.524 311.625,117.415 						"/>
						<polygon fill="#5E98D1" points="295.794,118.524 291.618,100.463 310.938,103.184 						"/>
						<polygon fill="#6298D1" points="291.618,100.463 280.291,111.697 296.008,118.735 						"/>
						<polygon fill="#6599CF" points="280.218,111.902 275.828,128.561 296.162,118.463 						"/>
						<polyline fill="#5F9ED5" points="265.099,133.737 274.777,143.867 265.467,155.551 265.101,134.023 						"/>
						<path fill="#669DD4" d="M240.313,149.278"/>
						<polygon fill="#66A1D7" points="264.608,134.271 240.313,149.278 265.488,155.372 						"/>
						<polygon fill="#5C9CD4" points="239.289,139.966 240.313,149.278 264.608,134.271 						"/>
						<polygon fill="#68A0D6" points="221.983,123.322 195.104,137.407 223.758,139.289 						"/>
						<polygon fill="#6B9FD5" points="196.334,116.74 195.35,137.162 222.352,123.457 						"/>
						<polygon fill="#6B9DD3" points="196.086,116.799 181.572,137.629 195.659,137.407 						"/>
						<polygon fill="#6A9FD5" points="195.35,137.162 179.433,156.195 181.572,137.629 						"/>
						<polygon fill="#6DA6D9" points="195.659,137.407 179.479,156.17 201.07,156.722 						"/>
						<polygon fill="#6DA2D7" points="195.659,137.407 200.823,156.661 223.951,139.315 						"/>
						<polygon fill="#6CA5D9" points="223.758,139.289 222.105,156.17 200.777,156.688 						"/>
						<polygon fill="#6CA5D9" points="239.289,139.966 223.951,139.315 221.983,155.8 						"/>
						<polygon fill="#70A7DA" points="239.289,139.966 240.313,149.278 221.983,155.8 						"/>
						<polygon fill="#64A2D8" points="240.313,149.278 244.68,166.012 265.63,155.434 						"/>
						<polygon fill="#6DA9DB" points="265.467,155.551 282.052,151.371 274.777,143.867 						"/>
						<polygon fill="#64A4D7" points="265.467,155.551 244.188,185.51 244.68,166.012 						"/>
						<polygon fill="#6CA8DB" points="244.68,166.012 223.272,189.566 240.313,149.278 						"/>
						<polyline fill="#73ACDD" points="240.276,149.367 216.445,168.554 223.272,189.588 240.298,149.387 						"/>
						<polygon fill="#6CA8DB" points="240.484,149.204 221.737,156.105 216.445,168.593 						"/>
						<polygon fill="#79B2E0" points="221.983,155.8 216.448,168.532 200.394,167.795 						"/>
						<polygon fill="#73AEDE" points="200.281,167.792 199.78,188.093 216.488,168.574 						"/>
						<polygon fill="#65A7DB" points="216.506,168.534 199.78,188.093 223.272,189.566 						"/>
						<polygon fill="#68ACDE" points="223.272,189.566 223.031,200.578 244.188,185.51 						"/>
						<polygon fill="#76B4E2" points="244.188,185.51 244.68,166.012 223.272,189.566 						"/>
						<polygon fill="#7ABAE6" points="223.272,189.566 199.78,188.093 223.031,200.578 						"/>
						<polygon fill="#7DBCE0" points="199.584,187.982 196.576,200.392 223.031,200.578 						"/>
						<polygon fill="#6EAEDF" points="200.324,167.751 182.553,184.525 199.78,188.093 						"/>
						<polygon fill="#73B0E0" points="200.324,167.832 174.863,166.32 182.64,184.57 						"/>
						<polygon fill="#68A5D9" points="200.734,156.895 175.234,166.32 200.208,167.915 						"/>
						<polygon fill="#6AA6DA" points="200.823,156.661 200.208,167.915 221.983,155.8 						"/>
						<polyline fill="#6CA5D9" points="200.762,156.847 179.479,156.17 174.863,166.32 200.859,156.851 						"/>
						<polygon fill="#74AEDE" points="179.479,156.17 161.701,166.624 174.863,166.32 						"/>
						<polygon fill="#5F9ED5" points="179.556,156.113 166.376,150.94 161.701,166.624 						"/>
						<polygon fill="#6CA5D9" points="181.572,137.629 166.376,150.94 179.479,156.17 						"/>
						<polygon fill="#6DA4D8" points="181.572,137.629 159.611,143.374 166.376,150.94 						"/>
						<polygon fill="#75ABDC" points="166.376,150.94 150.48,154.791 159.611,143.374 						"/>
						<polygon fill="#69A3D8" points="166.376,150.94 150.48,154.791 161.701,166.624 						"/>
						<polygon fill="#669FD4" points="159.611,143.374 150.172,132.338 150.48,154.791 						"/>
						<polygon fill="#6CA0D5" points="150.349,132.428 181.572,137.629 159.611,143.374 						"/>
						<polygon fill="#6CA0D5" points="181.572,137.629 160.586,128.954 150.786,132.775 						"/>
						<polygon fill="#5E96D0" points="165.088,111.547 160.721,128.792 150.436,132.952 						"/>
						<polygon fill="#699ACF" points="150.48,132.733 144.353,121.879 165.088,111.547 						"/>
						<polyline fill="#6E9FD4" points="150.832,104.592 144.353,121.879 165.088,111.547 150.832,104.592 						"/>
						<polyline fill="#6C9AD1" points="175.37,100.307 165.088,111.547 180.578,118.96 175.37,100.307 						"/>
						<polyline fill="#5991CD" points="150.874,104.416 144.397,121.703 130.697,124.549 150.874,104.416 						"/>
						<polygon fill="#4376BB" points="381.376,53.806 391.701,51.114 381.735,39.335 						"/>
						<polygon fill="#477ABD" points="381.376,53.806 390.895,62.966 391.701,51.114 						"/>
						<polygon fill="#4B95D1" points="393.992,128.339 379.837,131.648 392.654,144.591 						"/>
						<polygon fill="#4694D0" points="379.837,131.648 380.503,155.538 392.654,144.591 						"/>
						<polygon fill="#4899D4" points="380.503,155.538 392.419,152.653 392.654,144.591 						"/>
						<polygon fill="#61A2D8" points="265.038,155.369 277.166,165.897 282.052,151.371 						"/>
						<polygon fill="#509AD4" points="282.052,151.371 294.282,156.547 277.166,165.897 						"/>
						<polygon fill="#60A3D8" points="277.166,165.897 265.467,155.551 265.907,168.993 						"/>
						<polygon fill="#6FAADC" points="265.96,169.028 244.188,185.51 265.467,155.551 						"/>
						<polygon fill="#65A7D7" points="265.907,168.993 275.572,177.999 277.166,165.897 						"/>
						<polygon fill="#6AA5D8" points="277.166,165.897 290.305,166.522 294.282,156.547 						"/>
						<polygon fill="#5DA3D9" points="316.34,156.782 294.282,156.547 290.305,166.522 						"/>
						<polygon fill="#66A7DB" points="290.305,166.522 275.666,177.624 277.166,165.897 						"/>
						<polygon fill="#76B4E2" points="275.666,177.624 259.714,185.601 265.907,168.993 						"/>
						<polygon fill="#69A9DC" points="265.907,168.993 259.714,185.601 244.609,185.601 						"/>
						<polygon fill="#6DB0E0" points="275.666,177.624 297.431,184.193 290.305,166.522 						"/>
						<polygon fill="#6DB0E0" points="290.305,166.522 297.431,184.193 316.19,167.35 						"/>
						<polygon fill="#5EA7DB" points="331.347,168.776 316.195,167.024 316.009,187.383 						"/>
						<polygon fill="#5EA7DB" points="316.19,167.35 297.898,183.91 316.009,187.383 						"/>
						<polygon fill="#4E9FD7" points="331.347,168.776 316.009,187.383 338.846,188.646 						"/>
						<polygon fill="#4E9FD7" points="359.822,185.411 338.431,200.517 338.846,188.646 						"/>
						<polygon fill="#56A4D9" points="359.855,185.733 381.119,169.182 380.65,155.203 						"/>
						<polygon fill="#4CA7DB" points="381.119,169.182 375.112,185.411 359.822,185.411 						"/>
						<polygon fill="#5EACDA" points="375.112,185.411 356.541,198.733 359.822,185.411 						"/>
						<polygon fill="#5EACDA" points="356.541,198.733 338.431,200.517 359.822,185.411 						"/>
						<polygon fill="#4AA4D7" points="375.112,185.411 371.74,202.581 356.541,198.733 						"/>
						<polygon fill="#68B3E3" points="316.009,187.383 338.431,200.517 338.846,188.646 						"/>
						<polygon fill="#69B4E1" points="338.431,200.517 311.596,200.14 316.009,187.383 						"/>
						<polygon fill="#6FB6E4" points="316.009,187.383 291.707,205.586 311.596,200.14 						"/>
						<polygon fill="#4297D3" points="380.503,155.538 395.755,167.961 381.119,169.182 						"/>
						<polygon fill="#4697D2" points="380.65,155.203 394.44,152.107 395.755,167.961 						"/>
						<polygon fill="#4697D2" points="381.399,169.276 392.356,178.753 395.755,167.961 						"/>
						<polygon fill="#5BAADA" points="392.356,178.753 375.112,185.411 381.119,169.182 						"/>
						<polygon fill="#57AAD9" points="375.112,185.411 386,201.925 392.356,178.753 						"/>
						<polygon fill="#54ACDA" points="371.74,202.581 386,201.925 375.112,185.411 						"/>
						<polygon fill="#57ABDA" points="371.74,202.581 357.197,220.033 356.541,198.733 						"/>
						<polygon fill="#60B5E0" points="371.74,202.581 386.467,201.456 357.477,219.657 						"/>
						<polygon fill="#5AAFDB" points="356.541,198.733 334.021,220.125 357.197,220.033 						"/>
						<polygon fill="#64B6E1" points="356.541,198.733 338.809,200.236 334.021,220.125 						"/>
						<polygon fill="#6CB3E3" points="316.009,187.383 287.673,193.294 291.707,205.586 						"/>
						<polygon fill="#6CB4E3" points="316.009,187.383 297.898,183.91 287.673,193.294 						"/>
						<polygon fill="#74B5E3" points="297.805,183.91 287.673,193.294 275.666,177.624 						"/>
						<polygon fill="#71B6E1" points="287.673,193.294 278.105,212.342 275.418,177.332 						"/>
						<polygon fill="#68B2DF" points="275.195,177.813 270.223,200.612 278.105,212.342 						"/>
						<polygon fill="#5BAEDC" points="311.596,200.14 311.41,217.684 338.431,200.517 						"/>
						<path fill="#6ABAE0" d="M311.505,200.517l-21.675,14.921c0,0,21.58,2.626,21.58,2.246c0-0.375,0.186-17.544,0.186-17.544"/>
						<polygon fill="#67B7E1" points="334.021,220.125 311.41,217.684 338.431,200.517 						"/>
						<polygon fill="#5D96D0" points="103.584,105.98 81.658,116.13 80.547,103.136 						"/>
						<polygon fill="#5793CE" points="80.547,103.136 65.897,117.692 81.658,116.13 						"/>
						<polygon fill="#5B93CE" points="80.589,102.833 60.561,100.373 65.897,117.692 						"/>
						<polygon fill="#558ECB" points="60.27,100.504 50.384,111.701 48.119,97.578 						"/>
						<polygon fill="#558ECB" points="48.119,97.578 35.452,104.728 50.464,111.289 						"/>
						<polygon fill="#5290CD" points="35.452,104.728 28.793,121.14 50.793,111.373 						"/>
						<polygon fill="#427FC2" points="35.442,104.478 14.756,125.163 28.793,121.14 						"/>
						<polygon fill="#4989C8" points="15.166,124.834 11.817,105.318 35.452,104.728 						"/>
						<polygon fill="#4C8BCA" points="12.114,105.245 -7.568,122.946 15.166,124.834 						"/>
						<polygon fill="#4180C2" points="12.375,105.05 -11.82,105.761 -7.568,122.946 						"/>
						<polygon fill="#4179BD" points="-7.624,85.346 -35.807,102.517 -11.82,105.761 						"/>
						<polygon fill="#3B6FB6" points="-7.624,85.346 -34.125,85.387 -35.81,102.753 						"/>
						<polygon fill="#3B6BB4" points="-29.71,52.33 -48.041,69.26 -29.534,72.668 						"/>
						<polygon fill="#3B6BB4" points="-29.243,72.462 -52.884,76.896 -53.047,89.948 						"/>
						<polygon fill="#4579BD" points="-29.534,72.668 -53.294,90.193 -34.125,85.387 						"/>
						<polygon fill="#3E6DB5" points="-33.839,85.35 -53.294,90.193 -56.084,101.196 						"/>
						<polygon fill="#4275BA" points="-34.125,85.387 -35.81,102.753 -56.084,101.196 						"/>
						<polygon fill="#4474B9" points="-29.534,72.668 -47.627,69.015 -52.884,76.896 						"/>
						<polygon fill="#548FCC" points="60.326,100.263 50.204,111.457 65.897,117.692 						"/>
						<polygon fill="#5695CF" points="50.793,111.373 45.534,128.331 65.897,117.692 						"/>
						<polygon fill="#4688C8" points="50.767,111.118 45.534,128.331 33.497,131.815 						"/>
						<polygon fill="#5695CF" points="33.497,131.815 14.756,125.163 28.716,120.904 						"/>
						<polygon fill="#5296D1" points="14.756,125.163 8.864,139.857 33.497,131.815 						"/>
						<polygon fill="#4987C7" points="45.534,128.331 65.894,137.836 65.897,117.692 						"/>
						<polygon fill="#518ECB" points="65.894,137.836 81.868,116.179 65.897,117.692 						"/>
						<path fill="#578FCB" d="M81.658,116.13c0,0,25.924,7.081,26.035,6.802c0.107-0.284-4.108-16.951-4.108-16.951L81.658,116.13z"
							/>
						<polygon fill="#6099D1" points="81.658,116.13 80.629,136.876 107.692,122.932 						"/>
						<polygon fill="#5C97D1" points="81.658,116.13 65.782,137.665 80.629,136.876 						"/>
						<polygon fill="#5999D2" points="80.801,136.654 64.713,156.227 65.782,137.665 						"/>
						<polygon fill="#599CD5" points="65.894,137.836 51.329,150.882 64.713,156.227 						"/>
						<polygon fill="#64A0D5" points="80.629,136.876 86.03,156.506 64.713,156.227 						"/>
						<polygon fill="#68A1D4" points="80.801,136.654 109.26,138.622 85.916,156.281 						"/>
						<polygon fill="#649AD2" points="107.692,122.932 80.801,136.654 109.26,138.622 						"/>
						<polygon fill="#6199D2" points="107.442,122.932 109.237,138.677 130.612,124.718 						"/>
						<polygon fill="#74B5E3" points="259.915,185.566 270.171,200.472 275.428,177.68 						"/>
						<polygon fill="#70B7E1" points="259.714,185.601 256.899,203.013 270.223,200.612 						"/>
						<polygon fill="#68B1DE" points="259.915,185.566 241.648,198.404 256.899,203.013 						"/>
						<polygon fill="#77B6E3" points="244.361,185.566 241.648,198.404 259.915,185.566 						"/>
						<polygon fill="#80BCDF" points="244.361,185.566 223.031,200.578 241.606,198.531 						"/>
						<polygon fill="#7DBCE2" points="222.904,200.687 220.149,219.128 241.563,198.575 						"/>
						<polygon fill="#6BA2D7" points="150.48,154.791 124.98,148.646 150.436,132.952 						"/>
						<polygon fill="#609CD4" points="125.31,148.479 124.814,139.82 150.786,132.775 						"/>
						<polygon fill="#6CA2D7" points="124.403,139.983 130.729,124.319 150.786,132.775 						"/>
						<polygon fill="#6F9FD4" points="144.397,121.703 130.424,124.229 150.786,132.775 						"/>
						<polygon fill="#619AD0" points="124.567,139.9 130.729,124.319 109.237,138.677 						"/>
						<polygon fill="#6EA6D9" points="109.237,138.677 125.31,148.479 124.814,139.82 						"/>
						<polygon fill="#6CA5D9" points="109.237,138.677 107.823,155.41 125.31,148.479 						"/>
						<polygon fill="#69A3D8" points="109.237,138.677 86.03,156.506 107.823,155.41 						"/>
						<polygon fill="#5899D2" points="45.534,128.331 33.497,131.815 65.508,137.758 						"/>
						<polygon fill="#69A3D8" points="150.661,154.72 129.683,165.601 125.31,148.479 						"/>
						<polygon fill="#6EA8DB" points="129.683,165.601 108.224,188.685 125.31,148.479 						"/>
						<polygon fill="#67A4D8" points="150.48,154.791 129.591,184.97 129.683,165.601 						"/>
						<polygon fill="#76B2E1" points="150.661,154.72 150.774,169.238 129.591,184.97 						"/>
						<polygon fill="#7AB5E3" points="129.683,165.601 129.591,184.97 108.224,188.685 						"/>
						<polygon fill="#60A0D7" points="107.823,155.41 85.816,166.984 85.916,156.281 						"/>
						<polygon fill="#60A0D7" points="85.816,156.396 61.755,166.202 64.713,156.227 						"/>
						<polygon fill="#5196D1" points="64.713,156.227 47.285,166.044 51.329,150.882 						"/>
						<polygon fill="#549CD5" points="51.329,150.882 35.543,155.19 47.285,166.044 						"/>
						<polygon fill="#5598D2" points="65.782,137.665 44.559,143.92 33.497,131.815 						"/>
						<polygon fill="#5097D2" points="44.559,143.92 35.281,155.298 33.497,131.815 						"/>
						<polygon fill="#619FD6" points="35.543,155.19 44.559,143.92 51.53,150.894 						"/>
						<polygon fill="#5C9CD4" points="44.559,143.92 51.53,150.894 65.894,137.836 						"/>
						<polygon fill="#68A6DA" points="64.713,156.227 47.266,165.741 62.163,166.172 						"/>
						<polygon fill="#5A9FD6" points="85.816,156.396 62.163,166.172 85.816,166.984 						"/>
						<polygon fill="#73ACDD" points="107.823,155.41 85.544,167.024 101.66,167.938 						"/>
						<polygon fill="#6AA4D9" points="125.31,148.479 101.66,167.938 107.577,155.424 						"/>
						<polygon fill="#74AEDE" points="101.66,167.938 108.224,188.685 125.31,148.479 						"/>
						<polygon fill="#73B0E0" points="174.863,166.32 160.999,177.576 161.701,166.624 						"/>
						<polygon fill="#6DA9DB" points="161.701,166.624 150.774,169.238 160.999,177.576 						"/>
						<polygon fill="#67A4D8" points="161.701,166.624 150.774,169.238 150.661,154.72 						"/>
						<polygon fill="#7EB6E2" points="150.774,169.238 144.663,185.461 160.999,177.576 						"/>
						<polygon fill="#7DB4E1" points="182.64,184.53 160.999,177.576 174.863,166.32 						"/>
						<polygon fill="#80B9E2" points="161.09,177.661 173.961,193.617 182.553,184.525 						"/>
						<polygon fill="#80BBE1" points="161.248,177.767 162.827,212.643 173.99,193.595 						"/>
						<polygon fill="#77B7DE" points="162.827,212.643 155.636,201.605 161.256,177.661 						"/>
						<polygon fill="#6DABDD" points="150.774,169.238 144.663,185.461 129.591,184.97 						"/>
						<polygon fill="#80BBE1" points="129.903,184.767 108.272,200.47 126.373,199.019 						"/>
						<polygon fill="#7FB9E3" points="129.591,184.97 126.123,199.019 144.663,185.461 						"/>
						<polygon fill="#70B4DF" points="144.663,185.461 141.258,202.739 126.373,199.019 						"/>
						<polygon fill="#7DB9E2" points="144.663,185.461 155.7,201.351 161.248,177.513 						"/>
						<polygon fill="#78B8E3" points="155.511,201.038 141.258,202.739 144.663,185.461 						"/>
						<polygon fill="#63A6DA" points="101.463,167.926 85.885,187.479 108.224,188.685 						"/>
						<polygon fill="#6AABDD" points="85.816,166.984 85.822,187.729 101.463,167.926 						"/>
						<polygon fill="#64AADD" points="85.822,166.793 67.407,184.262 85.885,187.479 						"/>
						<polygon fill="#69A7DB" points="62.362,166.414 67.407,184.262 85.816,166.984 						"/>
						<polygon fill="#4F9CD5" points="47.289,165.719 35.81,168.876 35.543,155.19 						"/>
						<polygon fill="#5FA6D9" points="35.241,155.063 14.494,185.082 35.81,168.876 						"/>
						<polygon fill="#4D99D3" points="35.241,155.063 14.684,165.467 14.494,185.082 						"/>
						<polygon fill="#4D99D3" points="35.241,155.063 10.206,149.639 14.243,165.656 						"/>
						<polygon fill="#5497D1" points="33.796,132.046 10.206,149.639 35.281,155.298 						"/>
						<polygon fill="#408BCA" points="33.729,131.855 8.864,139.857 10.206,149.639 						"/>
						<polygon fill="#3C83C5" points="15.166,124.834 8.818,140.116 -7.073,138.728 						"/>
						<polygon fill="#3C83C5" points="15.166,124.834 -7.568,122.946 -7.073,138.728 						"/>
						<polygon fill="#4589C9" points="-7.568,122.946 -34.573,136.02 -7.073,138.728 						"/>
						<polygon fill="#4687C7" points="-7.568,122.946 -32.172,116.152 -34.824,136.459 						"/>
						<polygon fill="#4187C7" points="-32.172,116.152 -49.077,137.845 -34.824,136.459 						"/>
						<polygon fill="#488AC9" points="28.716,120.904 33.497,131.815 50.464,111.289 						"/>
						<polygon fill="#447EC1" points="-11.446,105.535 -32.172,116.152 -35.844,102.461 						"/>
						<path fill="#407CC0" d="M-11.446,105.535l-20.726,10.617c0,0,24.421,6.939,24.605,6.794
							C-7.396,122.8-11.446,105.535-11.446,105.535z"/>
						<polygon fill="#3E7BBE" points="-35.844,102.461 -49.79,118.534 -32.172,116.152 						"/>
						<path fill="#3D7BBD" d="M-32.172,116.152l-16.903,21.692l-0.714-19.311C-49.79,118.534-31.721,116.144-32.172,116.152z"/>
						<polygon fill="#7EBBE2" points="182.553,184.525 173.99,193.595 199.78,188.093 						"/>
						<polygon fill="#78B8E3" points="199.54,188.147 177.295,204.519 173.99,193.595 						"/>
						<polygon fill="#82BCE0" points="199.54,188.046 177.295,204.519 196.576,200.392 						"/>
						<polygon fill="#79B9E0" points="173.99,193.595 162.856,212.333 177.295,204.519 						"/>
						<polygon fill="#82BEE2" points="162.632,212.049 150.966,219.69 155.511,201.038 						"/>
						<polygon fill="#7BBAE0" points="155.511,201.038 126.962,220.429 150.966,219.467 						"/>
						<polygon fill="#71B6E1" points="223.23,200.451 197.09,217.676 196.576,200.392 						"/>
						<polygon fill="#77BBE0" points="177.295,204.519 175.283,215.721 196.576,200.392 						"/>
						<polygon fill="#74B7E1" points="177.295,204.519 175.283,215.721 162.856,212.333 						"/>
						<polygon fill="#7CBBE1" points="174.928,215.721 196.792,217.915 196.576,200.392 						"/>
						<polygon fill="#7ABCE1" points="223.23,200.451 220.379,219.4 196.792,217.915 						"/>
						<polygon fill="#54AFDA" points="386.467,201.456 381.73,219.485 357.197,220.033 						"/>
						<polygon fill="#4BAAD9" points="386.138,201.177 393.477,211.885 392.356,178.753 						"/>
						<polygon fill="#5BB2DD" points="393.477,211.885 381.73,219.485 386.467,201.456 						"/>
						<polygon fill="#67B2E2" points="291.707,205.586 278.105,212.342 287.673,193.294 						"/>
						<polygon fill="#75BCE3" points="278.105,212.342 265.548,220.141 270.223,200.612 						"/>
						<polygon fill="#6CB8E1" points="270.171,200.773 242.024,219.834 265.517,219.966 						"/>
						<polygon fill="#3C83C5" points="-49.79,137.529 -34.824,136.459 -49.79,155.03 						"/>
						<polygon fill="#458FCD" points="-34.824,136.459 -29.606,155.849 -51.396,156.053 						"/>
						<polygon fill="#4891CE" points="-34.824,136.459 -7.073,138.728 -29.606,155.849 						"/>
						<polygon fill="#4B94D0" points="-7.073,138.728 -8.495,155.644 -29.606,155.849 						"/>
						<polygon fill="#4B95D1" points="-7.073,138.728 8.864,139.857 -8.495,155.644 						"/>
						<polygon fill="#589CD5" points="8.864,139.857 10.206,149.639 -8.495,155.644 						"/>
						<polygon fill="#4393D0" points="-29.606,155.849 -29.129,167.22 -8.495,155.644 						"/>
						<polygon fill="#3D8ECD" points="-29.606,155.849 -28.924,166.876 -52.825,166.876 						"/>
						<polygon fill="#3F8FCD" points="-51.396,156.053 -52.825,166.876 -29.606,155.849 						"/>
						<polygon fill="#58A0D7" points="-8.495,155.644 -29.129,167.22 -13.806,168.037 						"/>
						<polygon fill="#4899D4" points="-28.924,166.876 -49.828,184.858 -52.825,166.876 						"/>
						<polygon fill="#479AD5" points="-49.828,184.858 -29.062,187.443 -28.924,166.876 						"/>
						<path fill="#4C9CD6" d="M-28.924,166.876c-0.066,0.549-0.138,20.567-0.138,20.567l15.256-19.406L-28.924,166.876z"/>
						<polygon fill="#3E98D4" points="-13.806,168.037 -29.129,187.24 -6.722,189.486 						"/>
						<polygon fill="#4F98D3" points="-8.495,155.644 -14.082,168.104 10.206,149.639 						"/>
						<polygon fill="#53A1D8" points="10.206,149.639 -6.722,189.486 -14.082,168.104 						"/>
						<polygon fill="#539DD6" points="-6.792,189.145 14.252,165.379 10.206,149.639 						"/>
						<polygon fill="#56A0D8" points="47.609,165.592 45.629,178.303 35.81,168.876 						"/>
						<polygon fill="#61A7DA" points="62.345,166.164 45.629,178.303 47.609,165.592 						"/>
						<polygon fill="#69ABDD" points="35.645,168.847 29.837,186.219 45.629,178.303 						"/>
						<polygon fill="#58A5DB" points="35.81,168.876 30.146,186 14.494,185.082 						"/>
						<polygon fill="#5BA5D9" points="14.252,165.379 -6.921,189.345 14.494,185.082 						"/>
						<polygon fill="#4DA2DA" points="-29.129,187.24 -50.607,203.801 -49.828,184.858 						"/>
						<polygon fill="#56ABD9" points="-29.062,187.443 -33.732,200.298 -50.607,203.801 						"/>
						<polygon fill="#5AA8DD" points="-29.129,187.24 -34.043,200.67 -6.792,189.145 						"/>
						<polygon fill="#5DABDD" points="-6.792,189.145 -7.412,200.733 -34.043,200.67 						"/>
						<polygon fill="#49A3DA" points="-34.043,200.67 -34.533,218.214 -6.802,200.545 						"/>
						<polygon fill="#4CA1D9" points="14.494,185.082 -6.802,200.545 -6.792,189.145 						"/>
						<polygon fill="#63AFDE" points="14.494,185.082 12.085,198.7 -6.802,200.545 						"/>
						<polygon fill="#63ABDE" points="29.837,186.219 11.639,198.925 14.494,185.082 						"/>
						<polygon fill="#64AFE0" points="30.467,186.008 41.268,201.105 45.629,178.303 						"/>
						<polygon fill="#64ABDD" points="30.418,185.955 26.219,202.956 41.519,201.308 						"/>
						<polygon fill="#53A8DC" points="30.418,185.955 26.219,202.956 11.865,198.556 						"/>
						<polygon fill="#6CA8DB" points="62.362,166.414 45.629,178.303 67.407,184.262 						"/>
						<polygon fill="#72B3E2" points="45.629,178.303 58.986,193.413 67.982,184.223 						"/>
						<polygon fill="#6FB3E3" points="45.629,178.303 47.895,211.728 58.986,193.413 						"/>
						<polygon fill="#61ADDF" points="47.895,211.399 41.268,201.105 45.629,178.303 						"/>
						<polygon fill="#72B5E4" points="67.982,184.223 86.1,187.701 59.38,192.692 						"/>
						<polygon fill="#6FB3E3" points="59.38,192.692 62.598,205.098 85.885,187.479 						"/>
						<polygon fill="#67B1E2" points="62.598,205.098 47.895,211.399 59.38,192.692 						"/>
						<polyline fill="#79B8E4" points="85.923,187.56 81.702,200.244 62.598,205.098 85.885,187.479 						"/>
						<path fill="#64AADD" d="M108.485,188.489"/>
						<polygon fill="#7EBBE2" points="107.796,200.507 81.462,200.238 108.224,188.685 						"/>
						<polygon fill="#77B8E3" points="108.224,188.685 86.138,187.451 81.462,200.238 						"/>
						<polygon fill="#69AEDF" points="107.902,200.728 108.224,188.685 129.903,184.767 						"/>
						<polygon fill="#75B9E2" points="241.648,198.404 241.947,219.713 256.899,203.013 						"/>
						<polygon fill="#7DBCE2" points="256.889,202.889 270.332,200.574 241.914,219.82 						"/>
						<polygon fill="#52ABD8" points="-34.083,200.901 -56.6,216.409 -34.529,217.979 						"/>
						<polygon fill="#48A8DE" points="-33.732,200.298 -50.607,203.801 -56.6,216.409 						"/>
						<polygon fill="#6CB4E3" points="107.796,200.507 80.538,217.713 81.462,200.238 						"/>
						<polygon fill="#74BAE1" points="81.045,200.356 60.656,215.604 80.538,217.713 						"/>
						<polygon fill="#6DB4E2" points="81.702,200.244 62.598,205.098 61.835,215.269 						"/>
						<polygon fill="#62AEE0" points="62.598,205.098 61.835,215.269 47.895,211.399 						"/>
						<polygon fill="#7CBCE7" points="107.796,200.507 126.373,199.019 103.881,220.155 						"/>
						<polygon fill="#77BBE0" points="126.373,199.019 126.962,219.904 103.628,220.662 						"/>
						<polygon fill="#5DAEDC" points="11.865,198.556 -11.288,220.141 -6.802,200.545 						"/>
						<polygon fill="#58ACDB" points="-6.802,200.545 -34.533,218.214 -11.288,220.141 						"/>
						<polygon fill="#5BAEDC" points="11.865,198.556 -11.288,220.141 11.911,220.045 						"/>
						<polygon fill="#61AFDC" points="12.085,198.7 26.219,202.956 11.911,220.045 						"/>
						<polygon fill="#66B6E1" points="41.519,201.308 26.219,202.956 11.911,220.045 						"/>
						<polygon fill="#60AFDD" points="41.519,201.308 36.645,219.085 11.911,220.045 						"/>
						<polygon fill="#71B7DE" points="41.268,201.105 47.976,211.114 36.645,219.085 						"/>
						<polygon fill="#63B9E4" points="65.867,195.161 64.742,223.532 32.086,222.962 						"/>
						<polygon fill="#7EBBE0" points="80.538,217.713 104.167,220.045 108.082,200.262 						"/>
						<polygon fill="#7DBAE0" points="126.373,199.019 126.962,220.429 141.258,202.739 						"/>
						<polygon fill="#81BCE0" points="141.258,202.739 127.18,220.323 155.511,201.038 						"/>
						<polygon fill="#64B3E2" points="291.447,205.468 278.229,212.114 290.653,215.291 						"/>
						<polygon fill="#68B5E1" points="311.89,200.193 291.707,205.586 290.51,215.002 						"/>
						<polygon fill="#72BCE2" points="241.816,198.355 220.288,219.221 241.947,219.713 						"/>
						<polyline fill="#3B6BB4" points="-52.444,69.814 -69.564,81.426 -68.58,71.978 -52.444,69.814 						"/>
						<polyline fill="#416FB6" points="-56.092,51.06 -68.58,71.978 -85.015,73.356 -56.092,51.06 						"/>
						<polyline fill="#4579BD" points="-56.092,51.06 -68.58,71.978 -47.627,69.015 -56.092,51.06 						"/>
						<polygon fill="#4474B9" points="-69.433,81.25 -52.884,76.896 -52.398,69.646 						"/>
						<polyline fill="#4579BD" points="-52.884,76.896 -74.05,98.748 -69.433,81.25 -52.884,76.896 						"/>
						<polyline fill="#3D7BBD" points="-52.884,76.896 -74.108,98.688 -53.047,89.948 -52.884,76.896 						"/>
						<polyline fill="#6791CA" points="200.588,72.161 177.353,89.362 173.282,77.804 200.588,72.161 						"/>
						<polyline fill="#618FCB" points="163.565,96.583 177.353,89.362 173.676,77.15 163.565,96.583 						"/>
						<polyline fill="#6A97CF" points="163.565,96.583 150.832,104.065 155.56,86.209 163.565,96.583 						"/>
						<polygon fill="#5F92CD" points="127.59,105.248 150.832,104.592 155.56,86.209 						"/>
						<polygon fill="#6A97CD" points="127.59,105.248 140.984,87.654 155.56,86.209 						"/>
						<polygon fill="#6291CC" points="140.984,87.654 126.669,83.452 127.59,105.248 						"/>
						<polyline fill="#678FCA" points="144.919,70.978 140.984,87.654 155.56,86.209 144.919,70.978 						"/>
						<polyline fill="#5885C4" points="144.919,70.978 126.669,83.452 140.984,87.654 144.919,70.978 						"/>
						<polyline fill="#6F90CA" points="216.609,53.124 221.206,41.174 200.854,52.598 						"/>
						<line fill="none" x1="200.854" y1="52.598" x2="216.609" y2="53.124"/>
						<polyline fill="#6D96CC" points="244.609,69.92 241.771,83.097 222.601,85.78 244.609,69.92 						"/>
						<polyline fill="#6A92CC" points="222.912,74.132 200.588,72.161 197.109,84.7 222.912,74.132 						"/>
						<polyline fill="#6D96CC" points="222.912,74.132 222.601,85.78 197.109,84.7 222.912,74.132 						"/>
						<polyline fill="#5B8AC8" points="197.109,84.7 196.272,102.267 222.254,86.1 197.109,84.7 						"/>
						<polyline fill="#6595CE" points="197.109,84.7 175.37,100.307 196.272,102.267 197.109,84.7 						"/>
						<polyline fill="#628DC9" points="197.109,84.7 177.346,89.518 175.719,99.958 197.109,84.7 						"/>
						<polyline fill="#578CC9" points="177.346,89.518 163.565,96.583 175.37,100.307 177.346,89.518 						"/>
						<polygon fill="#5E84C3" points="244.687,51.422 265.863,39.476 240.24,34.479 						"/>
						<polygon fill="#6488C5" points="265.569,39.476 240.36,34.565 264.398,16.609 						"/>
						<polygon fill="#5881C1" points="276.344,13.164 264.398,16.609 280.229,-3.693 						"/>
						<path fill="#6787C3" d="M280.229-3.693c0,0-19.788,8.794-19.788,9.161c0,0.364,4.03,10.92,4.03,10.92L280.229-3.693z"/>
						<polygon fill="#5F82C1" points="264.398,16.609 265.937,39.256 275.538,28.188 						"/>
						<polygon fill="#5E81C1" points="239.846,24.302 240.24,34.479 264.398,16.609 						"/>
						<polygon fill="#6E8EC8" points="246,9.426 239.846,24.302 264.398,16.609 						"/>
						<polygon fill="#5E7BBD" points="266.01,-10.288 246,9.426 260.439,5.468 						"/>
						<polygon fill="#6C89C5" points="266.01,-10.288 242.486,-9.924 246,9.426 						"/>
						<polygon fill="#718BC5" points="242.189,-9.997 222.254,7.783 246,9.426 						"/>
						<polygon fill="#6B8BC5" points="266.01,-10.288 280.229,-3.693 260.439,5.468 						"/>
						<polygon fill="#708AC6" points="266.01,-10.288 277.367,-17.911 280.229,-3.693 						"/>
						<polygon fill="#6D8AC5" points="277.367,-17.911 292.322,-14.614 280.229,-3.693 						"/>
						<polygon fill="#6A89C5" points="280.229,-4.208 295.543,2.757 292.322,-15.126 						"/>
						<polygon fill="#6B89C6" points="280.229,-3.693 276.344,13.164 295.543,3.27 						"/>
						<polygon fill="#6A89C5" points="276.344,13.164 264.398,16.609 296.424,22.691 						"/>
						<path fill="#5A77BB" d="M276.344,13.164l20.08,9.527l-0.881-19.129C295.543,3.562,277.299,13.456,276.344,13.164z"/>
						<polygon fill="#5B7EBF" points="295.765,3.489 311.596,1.144 296.497,22.398 						"/>
						<polygon fill="#5E84C3" points="311.596,1.144 310.937,21.153 296.424,22.691 						"/>
						<polygon fill="#6285C3" points="311.596,1.144 311.156,-12.269 295.543,3.27 						"/>
						<path fill="#6B89C6" d="M311.156-12.269c-0.733,0.149-18.834-2.345-18.834-2.345l3.221,17.884L311.156-12.269z"/>
						<path fill="#6185C4" d="M311.596,1.144c0.583,0,26.382,6.743,26.382,6.743l-26.895,12.97L311.596,1.144z"/>
						<polygon fill="#597ABC" points="311.596,1.144 332.994,-9.558 337.978,7.886 						"/>
						<polygon fill="#6686C3" points="332.994,-9.558 311.156,-12.269 311.596,1.144 						"/>
						<polygon fill="#5C83C2" points="337.76,7.814 339.148,23.642 309.835,21.445 						"/>
						<polygon fill="#6987C3" points="242.264,-9.924 217.343,-9.777 222.254,7.519 						"/>
						<polyline fill="#718AC5" points="177.185,-14.469 151.269,-10.947 165.457,-3.546 177.185,-14.469 						"/>
						<polygon fill="#5E84C3" points="109.318,23.716 124.745,34.653 124.745,24.324 						"/>
						<polyline fill="#6386C4" points="109.611,23.791 106.802,40.518 124.745,34.653 109.611,23.791 						"/>
						<polyline fill="#5981C2" points="109.611,23.791 85.645,41.526 106.973,40.06 109.611,23.791 						"/>
						<polygon fill="#5379BC" points="85.864,41.231 85.968,52.249 106.973,40.06 						"/>
						<polyline fill="#5881C1" points="109.362,23.663 80.333,21.41 85.974,41.271 109.362,23.663 						"/>
						<path fill="#597FC0" d="M107.501,7.869c0,0-27.869,13.649-27.282,13.502c0.588-0.147,29.034,2.253,29.034,2.253L107.501,7.869
							"/>
						<polyline fill="#517BBE" points="85.968,52.249 68.126,69.396 85.795,72.379 85.968,52.249 						"/>
						<polygon fill="#4977BC" points="85.937,41.476 60.368,51.602 85.968,52.249 						"/>
						<polygon fill="#4F7BBE" points="85.937,41.476 64.632,40.716 60.375,51.635 						"/>
						<polygon fill="#547CBE" points="80.221,21.372 64.641,40.712 85.99,41.496 						"/>
						<polygon fill="#4C72B8" points="80.221,21.372 66.917,23.419 64.641,40.712 						"/>
						<polygon fill="#4F77BB" points="66.917,23.419 51.756,35.091 64.641,40.712 						"/>
						<polygon fill="#3D6CB4" points="64.641,40.712 46.774,50.891 51.756,35.091 						"/>
						<polyline fill="#527FC0" points="60.368,51.602 46.774,50.891 64.641,40.712 60.368,51.602 						"/>
						<polygon fill="#517ABD" points="51.756,35.091 35.461,40 44.642,28.826 						"/>
						<polygon fill="#5379BC" points="44.642,28.826 66.917,23.419 51.756,35.091 						"/>
						<polygon fill="#4973B8" points="66.56,23.419 34.037,17.228 44.642,28.826 						"/>
						<polygon fill="#5279BC" points="34.037,17.228 45.922,12.602 66.56,23.133 						"/>
						<polygon fill="#446DB5" points="46.276,12.528 65.28,3.349 66.917,23.419 						"/>
						<polygon fill="#4E71B7" points="66.917,23.419 81.791,1.642 65.28,3.349 						"/>
						<polygon fill="#567ABD" points="81.791,1.642 80.221,21.372 66.917,23.419 						"/>
						<polyline fill="#5E80C0" points="81.791,1.655 107.501,7.869 79.941,21.355 81.791,1.642 						"/>
						<polygon fill="#4471B7" points="34.037,17.228 35.461,40 44.642,28.826 						"/>
						<polygon fill="#4572B8" points="34.037,17.228 9.531,34.33 35.461,40 						"/>
						<polygon fill="#3E6AB3" points="34.037,17.228 9.481,24.625 9.729,34.179 						"/>
						<path fill="#4C74B9" d="M34.291,17.023C34.089,16.972,15.885,9.47,15.885,9.47L9.481,24.625L34.291,17.023z"/>
						<polygon fill="#4D77BB" points="15.885,9.47 28.802,6.254 34.037,17.228 						"/>
						<polygon fill="#5577BB" points="65.28,3.349 50.616,-3.536 45.922,12.602 						"/>
						<polygon fill="#4368B1" points="50.616,-3.536 34.291,17.023 46.276,12.528 						"/>
						<polygon fill="#4870B7" points="50.616,-3.536 28.802,6.254 34.037,17.228 						"/>
						<polygon fill="#5275BA" points="50.616,-3.536 35.557,-10.31 28.802,6.254 						"/>
						<polygon fill="#4067AF" points="35.557,-10.31 15.885,9.47 28.802,6.254 						"/>
						<polygon fill="#4B70B6" points="15.885,9.47 11.572,-9.753 35.557,-10.31 						"/>
						<polygon fill="#4B6FB5" points="11.572,-9.753 -7.875,7.939 15.885,9.47 						"/>
						<polygon fill="#4768B0" points="11.572,-9.753 -13.13,-9.432 -7.875,7.939 						"/>
						<polygon fill="#4064AD" points="-7.875,7.939 -33.848,1.245 -13.13,-9.432 						"/>
						<polygon fill="#486AB2" points="-33.848,1.245 -34.248,21.167 -7.875,7.939 						"/>
						<polygon fill="#4669B2" points="-33.848,1.245 -34.089,-12.143 -13.13,-9.432 						"/>
						<polygon fill="#4368B1" points="15.885,9.47 -6.355,23.636 -7.875,7.939 						"/>
						<polygon fill="#3C66B0" points="15.885,9.47 9.481,24.625 -6.355,23.636 						"/>
						<polygon fill="#4870B7" points="9.523,24.636 -8.653,41.416 -6.47,23.607 						"/>
						<polygon fill="#4465AF" points="-33.848,1.245 -52.256,4.353 -34.565,-12.143 						"/>
						<polygon fill="#3F63AE" points="-33.848,1.245 -49.709,22.522 -52.256,4.353 						"/>
						<polygon fill="#4165AF" points="-33.848,1.245 -49.709,22.522 -34.248,21.167 						"/>
						<polygon fill="#466BB3" points="-6.355,23.636 -34.248,21.167 -7.875,7.939 						"/>
						<polygon fill="#4A75BA" points="9.729,34.179 -8.736,41.476 9.481,24.625 						"/>
						<polygon fill="#4474B9" points="51.756,35.091 35.461,40 46.774,50.891 						"/>
						<polygon fill="#4170B7" points="35.461,40 14.76,50.812 9.531,34.33 						"/>
						<polyline fill="#6781C0" points="217.705,-9.548 241.12,-33.572 242.264,-9.924 217.705,-9.548 						"/>
						<polygon fill="#6781C0" points="337.76,7.814 357.957,-10.283 332.994,-9.558 						"/>
						<polygon fill="#5E84C3" points="357.957,-10.283 360.734,9.042 337.76,7.814 						"/>
						<polygon fill="#5B80C1" points="357.957,-10.283 381.105,-10.712 360.734,9.042 						"/>
						<polygon fill="#567ABD" points="360.734,9.042 339.148,23.642 337.515,7.748 						"/>
						<polygon fill="#4F77BB" points="360.734,9.042 354.438,24.171 339.148,23.642 						"/>
						<polygon fill="#5A84C3" points="360.734,9.042 379.626,16.391 354.438,24.171 						"/>
						<polygon fill="#5984C4" points="360.734,9.042 374.811,6.143 379.626,16.391 						"/>
						<polygon fill="#4A74B9" points="374.811,6.143 381.105,-10.712 360.734,9.042 						"/>
						<polygon fill="#5981C2" points="374.811,6.143 392.356,-1.699 381.105,-10.712 						"/>
						<polygon fill="#5379BC" points="379.626,16.391 374.811,6.143 392.406,-1.453 						"/>
						<polygon fill="#4A75BA" points="379.626,16.391 355.608,34.049 354.438,24.171 						"/>
						<polygon fill="#5B86C5" points="355.608,34.049 339.148,23.642 354.438,24.171 						"/>
						<polyline fill="#6686C3" points="264.398,16.609 275.538,28.188 296.424,22.691 264.398,16.609 						"/>
						<polygon fill="#6689C6" points="296.424,22.691 265.68,39.369 275.431,28.143 						"/>
						<polygon fill="#688BC7" points="265.68,39.369 282.488,35.891 296.424,22.691 						"/>
						<polygon fill="#5E87C5" points="282.488,35.891 294.414,41.252 296.424,22.691 						"/>
						<polygon fill="#5279BC" points="282.488,35.891 276.873,51.415 294.414,41.252 						"/>
						<polygon fill="#5B86C5" points="276.873,51.415 265.68,39.369 282.488,35.891 						"/>
						<polygon fill="#5981C1" points="276.873,51.415 266.132,53.407 265.68,39.369 						"/>
						<polygon fill="#678EC9" points="265.569,39.476 266.132,53.407 244.609,69.92 						"/>
						<polygon fill="#5882C2" points="265.569,39.476 244.393,51.1 244.609,69.92 						"/>
						<polygon fill="#5E87C5" points="266.132,53.407 259.687,70.916 244.609,69.92 						"/>
						<polygon fill="#6793CD" points="266.132,53.407 275.45,61.877 259.687,70.916 						"/>
						<polygon fill="#5D84C3" points="276.873,51.415 275.45,61.877 266.132,53.407 						"/>
						<polygon fill="#4471B7" points="14.799,50.511 -6.927,74.172 9.531,34.33 						"/>
						<polygon fill="#5981C1" points="296.424,22.691 310.015,21.274 294.414,41.252 						"/>
						<polygon fill="#5B85C4" points="339.148,23.642 336.563,41.124 355.608,34.049 						"/>
						<polygon fill="#6B87C2" points="217.343,-9.777 221.032,-29.68 196.17,-12.439 						"/>
						<polygon fill="#7188C2" points="242.486,-9.924 272.495,-31.257 241.12,-33.572 						"/>
						<polygon fill="#6481C0" points="266.01,-10.288 272.495,-31.257 242.264,-9.924 						"/>
						<polygon fill="#5382C2" points="331.457,53.249 336.563,41.124 355.608,34.049 						"/>
						<polygon fill="#4672B8" points="392.406,-1.453 379.626,16.391 391.521,13.347 						"/>
						<polygon fill="#517BBE" points="391.521,13.347 390.585,28.282 379.626,16.391 						"/>
						<polygon fill="#4977BC" points="381.735,39.335 392.356,37.12 391.701,51.114 						"/>
						<polygon fill="#4F82C3" points="390.585,28.282 381.735,39.335 392.356,37.12 						"/>
						<polygon fill="#5577BB" points="102.83,-9.622 81.612,1.62 107.501,7.869 						"/>
						<polygon fill="#5D7DBE" points="80.581,-12.356 81.667,1.729 102.56,-9.667 						"/>
						<polygon fill="#5577BB" points="80.413,-12.275 65.104,3.319 81.658,1.593 						"/>
						<polygon fill="#5A77BB" points="80.581,-12.356 60.711,-14.84 65.307,3.165 						"/>
						<polygon fill="#5376BA" points="60.711,-14.84 50.616,-3.536 65.381,3.483 						"/>
						<polygon fill="#5378BB" points="50.616,-3.536 47.172,-17.58 60.711,-14.84 						"/>
						<polygon fill="#5477BB" points="47.172,-17.58 35.549,-10.28 50.616,-3.536 						"/>
						<polygon fill="#4569B2" points="35.442,-10.28 41.854,-30.251 11.572,-9.753 						"/>
						<polygon fill="#4465AF" points="11.643,-9.622 12.047,-32.615 -13.13,-9.432 						"/>
						<polyline fill="#6F8AC6" points="177.185,-14.469 162.703,-19.095 151.3,-10.937 177.185,-14.469 						"/>
						<polygon fill="#5F7EBF" points="151.191,-10.829 127.109,-9.812 156.902,-30.171 						"/>
						<polyline fill="#5A76BA" points="127.109,-9.812 127.853,-35.044 102.905,-9.572 127.109,-9.812 						"/>
						<polygon fill="#6080C0" points="311.156,-12.269 337.797,-28.895 332.994,-9.558 						"/>
						<polygon fill="#5576BA" points="337.797,-28.895 312.147,-28.895 311.156,-12.269 						"/>
						<polygon fill="#6481C0" points="312.147,-28.895 292.322,-15.126 311.156,-12.269 						"/>
						<polygon fill="#6684C1" points="332.994,-9.558 355.653,-31.082 337.797,-28.895 						"/>
						<polygon fill="#5577BB" points="355.653,-31.082 357.488,-10.337 332.994,-9.558 						"/>
						<polygon fill="#5275BA" points="357.666,-10.687 387.426,-30.82 381.105,-10.712 						"/>
						<polygon fill="#3661AD" points="-114.474,92.011 -95.095,110.251 -104.884,132.775 						"/>
						<polyline fill="#628AC7" points="200.854,52.598 182.474,69.271 200.588,72.161 200.854,52.598 						"/>
						<path fill="#678CC8" d="M182.474,69.271l-7.747-17.462c0,0,26.39,1.051,26.127,0.787
							C200.588,52.336,182.474,69.271,182.474,69.271z"/>
						<polygon fill="#6991CB" points="182.474,69.271 160.94,62.314 174.727,51.81 						"/>
						<polygon fill="#7094CB" points="182.474,69.271 173.282,77.804 160.94,62.314 						"/>
						<polygon fill="#6B93CB" points="173.938,77.676 163.565,96.583 161.466,62.707 						"/>
						<polygon fill="#608CC9" points="163.565,96.583 155.56,86.209 160.679,62.838 						"/>
						<polygon fill="#6A92CC" points="155.56,86.209 145.582,70.452 160.94,62.314 						"/>
						<polygon fill="#6E93CC" points="160.94,62.314 150.963,53.515 144.919,70.978 						"/>
						<polygon fill="#6086C5" points="150.963,53.515 161.466,52.205 160.94,62.314 						"/>
						<polygon fill="#688BC7" points="174.727,51.81 161.466,52.205 160.94,62.314 						"/>
						<polygon fill="#5382C2" points="216.609,53.124 200.588,72.161 222.912,74.132 						"/>
						<polygon fill="#668AC6" points="216.215,53.124 200.854,52.598 200.588,72.161 						"/>
						<polygon fill="#6A91CB" points="173.282,77.804 200.588,72.161 182.474,69.271 						"/>
						<polygon fill="#6187C5" points="221.075,41.307 200.068,41.437 201.51,52.074 						"/>
						<polygon fill="#5E81C1" points="174.727,51.81 200.068,41.437 201.51,52.074 						"/>
						<polygon fill="#6689C6" points="200.068,41.437 194.943,21.086 179.321,41.174 						"/>
						<polygon fill="#6D8BC6" points="194.943,21.086 200.068,40.913 224.356,23.714 						"/>
						<polygon fill="#6689C6" points="224.356,23.714 200.068,41.437 221.075,41.307 						"/>
						<polygon fill="#6E8CC6" points="221.206,40.779 239.323,24.762 224.356,23.714 						"/>
						<polygon fill="#6D8EC9" points="239.323,24.762 240.24,34.479 221.075,41.307 						"/>
						<polygon fill="#668CC8" points="240.24,34.479 216.609,53.124 221.075,41.307 						"/>
						<polygon fill="#6990CB" points="240.24,34.479 216.609,53.124 222.912,74.132 						"/>
						<polygon fill="#648DC9" points="223.27,74.073 244.446,51.32 240.24,34.479 						"/>
						<polygon fill="#6692CC" points="244.446,51.32 244.609,69.92 222.937,74.406 						"/>
						<polygon fill="#5887C6" points="244.609,69.92 222.937,74.406 222.601,85.78 						"/>
						<path fill="#6F96CE" d="M200.588,72.161c0,0-3.228,12.539-3.479,12.539c-0.246,0-19.764,4.818-19.764,4.818L200.588,72.161z"
							/>
						<polygon fill="#6C8FC8" points="161.466,52.205 178.343,41.271 174.727,51.81 						"/>
						<polygon fill="#557CBE" points="166.717,35.955 161.485,51.9 178.343,41.271 						"/>
						<polygon fill="#6385C3" points="166.717,35.955 151.107,40.606 161.485,51.9 						"/>
						<polygon fill="#5981C2" points="151.107,40.606 150.856,53.229 161.466,52.205 						"/>
						<polygon fill="#678CC8" points="150.689,40.441 129.593,70.088 150.963,53.515 						"/>
						<polygon fill="#5680C1" points="150.689,40.441 129.512,51.402 129.593,69.754 						"/>
						<polygon fill="#628DC9" points="129.512,51.402 108.003,74.238 129.348,70.003 						"/>
						<polygon fill="#5181C2" points="129.348,70.003 107.672,85.532 108.003,74.238 						"/>
						<polygon fill="#6893CD" points="107.508,85.283 126.939,83.372 129.348,70.003 						"/>
						<polygon fill="#6590CB" points="126.939,83.372 144.919,70.978 129.348,70.003 						"/>
						<polygon fill="#5E87C5" points="150.963,53.515 129.593,70.088 144.919,70.978 						"/>
						<polygon fill="#6086C5" points="107.939,73.867 125.096,34.566 129.561,51.108 						"/>
						<polygon fill="#6289C6" points="107.939,73.867 101.2,53.473 125.096,34.566 						"/>
						<polygon fill="#4E79BD" points="101.2,53.473 85.795,72.379 108.003,74.238 						"/>
						<polygon fill="#5A84C3" points="101.2,53.473 85.968,52.249 85.795,72.379 						"/>
						<polygon fill="#6489C6" points="85.968,52.249 106.802,40.518 101.2,53.473 						"/>
						<path fill="#6085C4" d="M106.802,40.518l18.293-5.952c0,0-23.983,19.52-23.983,19.257
							C101.112,53.561,106.802,40.518,106.802,40.518z"/>
						<polygon fill="#5A7BBD" points="124.745,34.653 124.745,24.324 149.342,16.621 						"/>
						<path fill="#6686C3" d="M149.342,16.621c-1.139,0.44-24.246,17.945-24.246,17.945l25.593,5.875L149.342,16.621z"/>
						<polygon fill="#6083C2" points="149.342,16.621 160.021,28.701 150.689,40.441 						"/>
						<polygon fill="#708EC9" points="160.021,28.701 166.717,35.955 150.689,40.441 						"/>
						<path fill="#6B89C4" d="M149.342,16.621c-0.352-0.173-18.114-7.087-18.114-7.087l-6.831,14.529L149.342,16.621z"/>
						<polygon fill="#5378BC" points="131.228,9.534 109.254,23.625 124.745,24.324 						"/>
						<polygon fill="#597ABC" points="131.228,9.534 107.442,7.857 109.254,23.625 						"/>
						<polygon fill="#597ABC" points="131.228,9.534 151.269,-10.947 145.141,5.595 						"/>
						<polygon fill="#6886C3" points="131.228,9.534 127.109,-9.812 151.269,-10.947 						"/>
						<polygon fill="#6886C3" points="127.109,-9.812 107.501,7.869 131.228,9.534 						"/>
						<polygon fill="#607EBF" points="127.199,-9.868 102.778,-9.566 107.591,7.814 						"/>
						<polygon fill="#6A89C5" points="149.342,16.621 145.141,5.595 131.228,9.534 						"/>
						<polygon fill="#708AC5" points="145.141,5.595 165.707,-3.596 151.269,-10.947 						"/>
						<polygon fill="#6987C3" points="165.187,-3.509 145.141,5.595 149.342,16.621 						"/>
						<polygon fill="#5F7CBD" points="149.342,16.621 160.633,13.645 165.187,-3.509 						"/>
						<polygon fill="#6B8BC5" points="160.633,13.645 160.021,28.701 149.342,16.621 						"/>
						<polygon fill="#6B89C6" points="160.633,13.645 181.641,22.926 160.021,28.701 						"/>
						<polygon fill="#6D8CC6" points="160.021,28.701 167.021,35.793 181.641,22.926 						"/>
						<polygon fill="#688AC6" points="181.641,23.275 178.343,41.271 166.717,35.955 						"/>
						<polygon fill="#5F7DBE" points="181.641,22.926 180.151,4.282 160.633,13.645 						"/>
						<polygon fill="#728AC5" points="180.151,4.282 165.187,-3.509 160.633,13.645 						"/>
						<polygon fill="#6384C3" points="181.641,22.926 194.943,21.086 178.343,41.271 						"/>
						<polygon fill="#6685C3" points="181.641,22.926 196.874,0.869 180.151,4.282 						"/>
						<polygon fill="#6987C3" points="181.641,22.926 194.943,21.086 196.874,0.869 						"/>
						<polygon fill="#6D8AC6" points="196.874,0.869 222.254,7.783 194.943,21.086 						"/>
						<polygon fill="#6988C4" points="222.605,7.869 194.943,21.086 224.356,23.714 						"/>
						<polygon fill="#6682C1" points="196.435,0.779 217.442,-9.111 222.605,7.869 						"/>
						<polygon fill="#6E8AC6" points="196.874,0.869 196.17,-12.349 217.705,-9.548 						"/>
						<polygon fill="#6988C4" points="196.17,-12.349 180.151,4.282 196.874,0.869 						"/>
						<polygon fill="#6988C4" points="196.17,-12.439 177.439,-14.625 180.151,4.282 						"/>
						<polygon fill="#6E89C4" points="177.439,-14.625 165.187,-3.509 180.151,4.282 						"/>
						<polygon fill="#6684C1" points="245.539,9.359 224.356,23.714 222.254,7.783 						"/>
						<polygon fill="#5E80C0" points="245.539,9.359 239.237,24.413 224.356,23.714 						"/>
						<polygon fill="#6387C5" points="178.343,41.271 174.727,51.81 200.068,41.437 						"/>
						<polygon fill="#708BC7" points="260.439,5.468 246,9.426 264.398,16.609 						"/>
						<polygon fill="#5C83C2" points="125.096,34.566 129.512,51.402 150.968,40.358 						"/>
						<polygon fill="#537EC0" points="60.368,51.602 85.968,52.249 67.913,69.679 						"/>
						<polygon fill="#416FB6" points="-56.092,51.06 -47.627,69.015 -29.71,52.33 						"/>
						<polygon fill="#4169B1" points="-55.109,41.521 -56.092,51.06 -30.177,41.526 						"/>
						<polygon fill="#416FB6" points="-49.709,22.522 -55.109,41.521 -34.248,21.167 						"/>
						<polygon fill="#3B6BB4" points="-52.884,76.896 -52.444,69.814 -47.627,69.015 						"/>
						<polygon fill="#3D7BBD" points="-56.084,101.196 -49.79,118.534 -35.844,102.461 						"/>
						<polygon fill="#3878B2" points="-49.79,118.534 -76.003,126.861 -49.79,131.329 						"/>
						<polygon fill="#4275BA" points="-56.084,101.196 -77.312,128.06 -49.79,118.534 						"/>
						<polygon fill="#3E6DB5" points="-56.084,101.196 -74.347,98.688 -77.312,128.06 						"/>
						<polygon fill="#4579BD" points="-53.047,89.948 -74.466,98.688 -56.084,101.196 						"/>
						<polygon fill="#4567B0" points="-74.17,98.688 -95.132,110.281 -77.312,128.06 						"/>
						<polygon fill="#4161AD" points="-95.132,110.281 -76.832,128.491 -104.917,132.806 						"/>
						<polygon fill="#3E6DB5" points="-95.128,110.288 -69.433,81.263 -74.166,98.699 						"/>
						<polygon fill="#4567B0" points="-95.109,110.264 -112.469,93.914 -98.594,92.434 						"/>
						<polygon fill="#3C6AB3" points="-95.128,110.288 -98.594,92.434 -69.433,81.263 						"/>
					</g>
				</g>
			</g>
		</g>
	</g>
	
		<linearGradient id="SVGID_4_" gradientUnits="userSpaceOnUse" x1="742.5586" y1="735.3184" x2="688.4914" y2="467.0204" gradientTransform="matrix(1 0 0 1 -541.0898 -489.5898)">
		<stop  offset="0.0307" style="stop-color:#4CACD5"/>
		<stop  offset="0.4969" style="stop-color:#4FC5D7;stop-opacity:0.49"/>
		<stop  offset="1" style="stop-color:#1C486C"/>
	</linearGradient>
	<rect x="-39.943" y="-5" fill="url(#SVGID_4_)" width="424.694" height="213"/>
</g>
</svg>