<svg version="1.1" id="Layer_1" xmlns="http://www.w3.org/2000/svg" xmlns:xlink="http://www.w3.org/1999/xlink" x="0px" y="0px"	 width="24px" height="24px" viewBox="0 0 24 24" enable-background="new 0 0 24 24" xml:space="preserve"><path fill="#CCCCCC" d="M12,2.083c-5.51,0-10,4.49-10,10s4.49,10,10,10c5.51,0,10-4.49,10-10S17.51,2.083,12,2.083z M12,20.083	c-4.41,0-8-3.59-8-8s3.59-8,8-8s8,3.59,8,8S16.41,20.083,12,20.083z M15,12.083c0,1.66-1.34,3-3,3s-3-1.34-3-3s1.34-3,3-3	S15,10.423,15,12.083z"/></svg>