<svg version="1.1" id="Layer_1" xmlns="http://www.w3.org/2000/svg" xmlns:xlink="http://www.w3.org/1999/xlink" x="0px" y="0px"	 width="20px" height="20px" viewBox="0 0 20 20" enable-background="new 0 0 20 20" xml:space="preserve"><path fill="#FFFFFF" d="M-12.41,0.511h-15.181c-1.044,0-1.888,0.854-1.888,1.899l-0.01,17.078l3.796-3.796h13.283	c1.044,0,1.899-0.853,1.899-1.896V2.409C-10.512,1.365-11.366,0.511-12.41,0.511z M-25.694,7.153h11.386v1.898h-11.386V7.153z	 M-18.103,11.898h-7.591V10h7.591V11.898z M-14.308,6.205h-11.386V4.307h11.386V6.205z"/><path fill="#FFFFFF" d="M10,0.121c5.29,0,9.6,4.435,9.6,9.878c0,5.442-4.311,9.877-9.6,9.877h-7.68c-1.056,0-1.92-0.89-1.92-1.976	V10C0.399,4.556,4.71,0.121,10,0.121z M10,17.901c4.234,0,7.68-3.546,7.68-7.902c0-4.357-3.446-7.903-7.68-7.903	c-4.233,0-7.68,3.546-7.68,7.903C2.319,14.355,5.766,17.901,10,17.901z M7.428,9.786c0.688,1.354,1.797,2.457,3.15,3.15l1.053-1.052	c0.127-0.129,0.318-0.172,0.486-0.115c0.535,0.178,1.113,0.273,1.707,0.273c0.262,0,0.479,0.215,0.479,0.478v1.668	c0,0.264-0.217,0.479-0.479,0.479c-4.489,0-8.127-3.638-8.127-8.127c0-0.263,0.215-0.478,0.478-0.478h1.673	c0.263,0,0.478,0.215,0.478,0.478c0,0.598,0.096,1.172,0.272,1.707c0.053,0.167,0.015,0.354-0.119,0.487L7.428,9.786z"/></svg>