<svg version="1.1" id="Layer_1" xmlns="http://www.w3.org/2000/svg" xmlns:xlink="http://www.w3.org/1999/xlink" x="0px" y="0px"	 width="50px" height="50px" viewBox="0 0 50 50" enable-background="new 0 0 50 50" xml:space="preserve"><path fill="#BCBEBC" d="M34.254,12.312L22.509,0.566v7.925c-10.171,1.265-18.07,9.939-18.07,20.471	c0,10.533,7.873,19.205,18.07,20.471V44.22C15.178,42.98,9.602,36.632,9.602,28.963c0-7.668,5.576-14.018,12.907-15.257V23.8	L34.254,12.312z M45.562,26.382c-0.438-3.589-1.858-7.047-4.18-10.043l-3.666,3.666c1.393,1.936,2.269,4.13,2.632,6.377H45.562z	 M27.672,44.194v5.214c3.591-0.438,7.074-1.833,10.07-4.154l-3.721-3.72C32.087,42.929,29.919,43.832,27.672,44.194z M37.716,37.948	l3.666,3.64c2.321-2.995,3.741-6.453,4.18-10.043h-5.214C39.984,33.791,39.108,35.986,37.716,37.948z"/></svg>