<?xml version="1.0" encoding="utf-8"?>
<!-- Generator: Adobe Illustrator 16.0.3, SVG Export Plug-In . SVG Version: 6.00 Build 0)  -->
<!DOCTYPE svg PUBLIC "-//W3C//DTD SVG 1.1//EN" "http://www.w3.org/Graphics/SVG/1.1/DTD/svg11.dtd">
<svg version="1.1" id="Layer_1" xmlns="http://www.w3.org/2000/svg" xmlns:xlink="http://www.w3.org/1999/xlink" x="0px" y="0px"
	 width="305px" height="168px" viewBox="0 0 305 168" enable-background="new 0 0 305 168" xml:space="preserve">
<g>
	<g>
		<g>
			<defs>
				<rect id="SVGID_1_" x="-3.681" y="-2.906" width="352.162" height="176.611"/>
			</defs>
			<clipPath id="SVGID_2_">
				<use xlink:href="#SVGID_1_"  overflow="visible"/>
			</clipPath>
			<g clip-path="url(#SVGID_2_)">
				
					<linearGradient id="SVGID_3_" gradientUnits="userSpaceOnUse" x1="417.3535" y1="-18.2383" x2="458.7819" y2="-213.1953" gradientTransform="matrix(1 0 0 -1 -268.4902 -43.5996)">
					<stop  offset="0" style="stop-color:#4571B7"/>
					<stop  offset="0.6503" style="stop-color:#578BC8"/>
					<stop  offset="0.8344" style="stop-color:#589FD1"/>
					<stop  offset="1" style="stop-color:#54AFDA"/>
				</linearGradient>
				<rect x="-29.871" y="-26.912" fill="url(#SVGID_3_)" width="404.542" height="224.625"/>
				<g>
					<polyline fill="#6591CC" points="232.276,59.211 229.762,70.037 244.778,60.036 232.276,59.211 					"/>
					<polyline fill="#5786C5" points="244.778,60.036 242.223,74.292 229.762,70.037 244.778,60.036 					"/>
					<polyline fill="#5F8FCA" points="244.778,60.036 254.593,72.51 242.223,74.292 244.778,60.036 					"/>
					<polyline fill="#6490CB" points="257.848,52.542 254.593,72.51 244.778,60.036 257.848,52.542 					"/>
					<polyline fill="#6695CE" points="229.979,69.951 210.358,89.313 214.027,72.362 229.979,69.951 					"/>
					<polyline fill="#3F6FB6" points="68.233,43.432 59.052,45.939 58.662,34.45 68.233,43.432 					"/>
					<polyline fill="#497BBE" points="58.662,34.45 41.671,59.182 59.052,45.939 58.662,34.45 					"/>
					<polyline fill="#3D6CB4" points="58.662,34.45 41.719,43.117 41.524,59.231 58.662,34.45 					"/>
					<polyline fill="#4679BD" points="41.428,43.36 23.704,62.737 41.524,59.231 41.428,43.36 					"/>
					<polygon fill="#4672B8" points="23.753,62.495 17.909,45.55 37.351,29.7 					"/>
					<polygon fill="#406DB5" points="17.909,45.55 22.293,35.569 37.515,29.574 					"/>
					<polygon fill="#4975BA" points="22.293,35.569 18.056,45.355 4.813,44.625 					"/>
					<polygon fill="#3F68B1" points="22.293,35.569 4.425,35.667 4.813,44.625 					"/>
					<polyline fill="#426BB3" points="24.133,20.827 4.425,35.667 22.291,35.592 24.178,20.833 					"/>
					<polygon fill="#466DB4" points="4.425,35.667 1.05,18.785 24.29,20.671 					"/>
					<polyline fill="#4068B1" points="1.05,18.785 -16.248,35.663 4.425,35.667 1.05,18.785 					"/>
					<polyline fill="#5C85C4" points="286.508,18.874 290.76,35.407 273.573,35.44 286.508,18.874 					"/>
					<polyline fill="#6287C5" points="286.508,18.874 290.76,35.407 310.667,20.838 286.394,18.837 					"/>
					<polyline fill="#5585C5" points="310.667,20.838 308.523,35.333 290.76,35.407 310.667,20.838 					"/>
					<polyline fill="#618DC9" points="273.573,35.44 270.314,43.735 259.028,43.866 273.573,35.44 					"/>
					<polygon fill="#5F89C6" points="270.314,43.735 259.028,43.866 257.848,52.542 					"/>
					<polygon fill="#638BC6" points="270.314,43.735 257.848,52.542 275.821,58.766 					"/>
					<polygon fill="#5A87C6" points="270.314,43.735 291.9,44.23 275.821,58.766 					"/>
					<polygon fill="#507DBF" points="270.426,43.568 290.76,35.407 291.9,44.23 					"/>
					<polyline fill="#5682C2" points="273.573,35.44 270.314,43.735 290.76,35.407 273.573,35.44 					"/>
					<polygon fill="#537FC1" points="290.76,35.407 291.9,44.23 308.523,35.333 					"/>
					<polyline fill="#5E8BC8" points="308.523,35.333 291.9,44.23 304.289,45.387 308.523,35.333 					"/>
					<polygon fill="#5A86C4" points="304.289,45.387 291.9,44.23 291.238,61.41 					"/>
					<polygon fill="#5184C4" points="291.9,44.23 291.074,61.462 275.821,58.766 					"/>
					<polygon fill="#6592CC" points="275.821,58.766 268.389,66.091 257.848,52.542 					"/>
					<polygon fill="#5F8ECA" points="275.821,58.766 268.389,66.091 291.238,61.41 					"/>
					<polygon fill="#5889C7" points="291.238,61.41 268.609,66.034 272.132,75.505 					"/>
					<polyline fill="#5C8FCB" points="291.238,61.41 272.132,75.505 287.992,71.541 291.074,61.462 					"/>
					<path fill="#5C8FCB" d="M309.96,62.73"/>
					<path fill="#5C8FCB" d="M309.96,62.73"/>
					<polygon fill="#4678BC" points="304.289,45.387 291.682,61.575 310.346,62.896 					"/>
					<polygon fill="#5B8FCB" points="310.346,62.896 291.353,61.741 288.322,71.486 					"/>
					<polygon fill="#5B8FCB" points="310.346,62.896 288.157,71.486 309.852,72.366 					"/>
					<polygon fill="#4F82C3" points="309.852,72.366 287.275,86.792 288.322,71.486 					"/>
					<polygon fill="#588ECA" points="287.058,86.682 271.254,84.536 288.322,71.486 					"/>
					<polygon fill="#508CCA" points="271.805,75.947 271.254,84.536 288.322,71.486 					"/>
					<polyline fill="#5885C4" points="324.315,29.467 310.346,62.896 304.289,45.387 324.315,29.467 					"/>
					<polyline fill="#5081C2" points="324.315,29.467 327.456,44.019 310.346,62.896 324.315,29.467 					"/>
					<polygon fill="#4D78BC" points="327.456,44.019 345.979,33.85 324.315,29.467 					"/>
					<polyline fill="#4F7DBF" points="324.315,29.467 345.979,33.85 344.23,14.825 324.315,29.467 					"/>
					<polyline fill="#4876BA" points="344.23,14.825 353.317,24.685 345.979,33.85 344.23,14.825 					"/>
					<polygon fill="#4376BB" points="345.979,33.85 328.003,58.537 327.456,44.019 					"/>
					<polygon fill="#5386C6" points="327.456,44.019 328.003,58.537 310.404,62.739 					"/>
					<polygon fill="#4881C2" points="328.003,58.537 309.852,72.366 310.346,62.896 					"/>
					<polygon fill="#4D83C4" points="345.979,33.85 345.681,45.849 328.106,58.315 					"/>
					<polygon fill="#487DC0" points="345.681,45.849 340.571,60.004 328.003,58.537 					"/>
					<polygon fill="#5084C4" points="340.571,60.004 325.555,70.564 328.003,58.537 					"/>
					<polygon fill="#578ECB" points="325.555,70.564 309.852,72.366 328.003,58.537 					"/>
					<polyline fill="#6A87C4" points="259.438,-13.618 250.021,-7.297 255.398,-24.684 259.438,-13.618 					"/>
					<polygon fill="#6090CB" points="268.389,66.091 260.19,81.936 257.848,52.542 					"/>
					<polyline fill="#5889C7" points="257.848,52.542 260.19,81.646 254.593,72.51 257.848,52.542 					"/>
					<polygon fill="#5F97D0" points="260.19,81.646 250.536,86.799 254.593,72.51 					"/>
					<polygon fill="#5B92CD" points="254.593,72.51 229.998,88.613 250.536,86.799 					"/>
					<polygon fill="#6091CC" points="242.223,74.292 229.998,88.613 254.593,72.51 					"/>
					<polygon fill="#6293CC" points="242.223,74.292 229.762,70.037 229.998,88.613 					"/>
					<polyline fill="#5B8FCB" points="229.762,70.037 210.358,89.313 229.998,88.613 229.762,70.037 					"/>
					<polyline fill="#6595CE" points="214.027,72.362 192.195,86.032 210.358,89.313 214.027,72.362 					"/>
					<polyline fill="#4C78BC" points="79.504,44.021 66.923,53.029 68.233,43.432 79.504,44.021 					"/>
					<polygon fill="#4877BB" points="66.923,53.029 59.052,45.939 68.233,43.432 					"/>
					<polygon fill="#5080C1" points="66.923,52.779 54.105,60.121 59.052,45.939 					"/>
					<polygon fill="#4274B9" points="59.052,45.939 41.671,59.182 54.105,60.121 					"/>
					<polygon fill="#4C7EC0" points="66.923,52.779 63.127,73.309 54.105,60.121 					"/>
					<polyline fill="#5181C2" points="79.504,44.021 66.923,53.029 85.958,59.064 79.504,44.021 					"/>
					<polygon fill="#5584C4" points="66.923,52.779 77.25,66.278 85.958,59.064 					"/>
					<polygon fill="#5385C5" points="77.25,66.278 69.348,82.144 66.923,53.029 					"/>
					<polygon fill="#4679BD" points="69.348,82.144 63.127,73.309 66.923,53.029 					"/>
					<polygon fill="#487CBF" points="63.127,73.309 51.245,73.994 54.105,60.121 					"/>
					<polygon fill="#3F72B8" points="54.105,60.121 38.803,70.323 51.245,73.994 					"/>
					<polyline fill="#487CBF" points="41.524,59.231 38.803,70.323 54.105,60.121 41.671,59.182 					"/>
					<polygon fill="#4C7EC0" points="41.539,58.938 23.126,72.002 38.803,70.323 					"/>
					<polygon fill="#3A6EB6" points="41.539,58.938 23.438,62.858 23.188,71.754 					"/>
					<polyline fill="#3765B0" points="23.704,62.737 18.056,45.355 4.958,61.489 23.704,62.737 					"/>
					<polygon fill="#416EB5" points="18.056,45.355 4.958,61.489 4.813,44.625 					"/>
					<polygon fill="#3960AD" points="4.425,35.667 -17.063,43.572 4.813,44.625 					"/>
					<polygon fill="#5386C6" points="340.571,60.004 353.574,53.445 345.681,45.849 					"/>
					<polygon fill="#4B83C4" points="353.574,53.445 340.571,60.004 349.149,73.519 					"/>
					<polygon fill="#427CBF" points="340.571,60.004 337.414,73.904 325.555,70.564 					"/>
					<polygon fill="#4982C3" points="340.571,60.004 337.414,73.904 349.02,73.196 					"/>
					<polygon fill="#4C89C8" points="337.414,73.904 325.486,88.91 325.555,70.564 					"/>
					<polygon fill="#4A86C6" points="325.555,70.564 305.799,89.036 325.486,88.91 					"/>
					<polygon fill="#548ECB" points="325.555,70.564 309.852,72.366 305.799,89.036 					"/>
					<polygon fill="#538CCA" points="309.646,72.556 305.799,88.78 287.275,86.792 					"/>
					<polygon fill="#5994CF" points="287.275,86.792 287.844,98.593 305.799,88.78 					"/>
					<polygon fill="#4E8FCC" points="305.799,88.78 310.097,103.724 325.486,88.91 					"/>
					<polygon fill="#4F8BC9" points="349.664,73.134 337.414,73.904 325.486,88.91 					"/>
					<polygon fill="#4282C4" points="349.664,73.134 345.366,88.333 325.486,88.91 					"/>
					<polyline fill="#4F90CD" points="345.366,88.14 325.486,88.91 328.692,104.878 345.366,88.333 					"/>
					<path fill="#4F90CD" d="M349.664,72.877"/>
					<polygon fill="#4787C7" points="349.664,73.134 345.752,88.012 355.946,81.022 					"/>
					<polygon fill="#427CBF" points="355.946,81.022 349.664,73.134 353.574,53.445 					"/>
					<path fill="#3C82C4" d="M340.427,102.12c0,0-11.669,2.886-11.479,2.886c0.195,0,16.61-16.226,16.61-16.226L340.427,102.12z"/>
					<polygon fill="#428DCB" points="328.948,105.006 323.244,117.126 310.673,116.807 					"/>
					<polygon fill="#4B92CE" points="328.948,105.006 310.097,103.724 310.673,116.807 					"/>
					<polygon fill="#5495D0" points="325.486,88.91 310.097,103.724 328.821,105.199 					"/>
					<polygon fill="#4C8CCA" points="305.99,88.719 287.844,98.593 310.097,103.724 					"/>
					<polygon fill="#5C99D2" points="310.097,103.724 286.816,114.625 287.844,98.593 					"/>
					<polygon fill="#5798D2" points="310.097,103.724 310.673,116.807 286.816,114.625 					"/>
					<polygon fill="#5EA1D6" points="310.673,116.807 291.753,131.236 286.816,114.625 					"/>
					<polygon fill="#579ED6" points="310.673,116.807 309.005,130.531 291.753,131.236 					"/>
					<polygon fill="#579DD5" points="310.673,116.807 309.005,130.531 323.052,117.383 					"/>
					<polygon fill="#56A0D8" points="323.052,117.383 324.012,125.271 309.005,130.531 					"/>
					<polygon fill="#579AD3" points="329.077,105.199 344.405,110.394 323.052,117.383 					"/>
					<polygon fill="#4391CE" points="344.405,110.394 324.012,125.271 323.052,117.383 					"/>
					<polygon fill="#4C96D1" points="344.405,110.394 340.427,102.12 328.821,105.199 					"/>
					<polygon fill="#4C99D3" points="344.405,110.394 324.012,125.271 344.981,130.338 					"/>
					<polygon fill="#479AD5" points="324.012,125.271 327.925,139.188 344.981,130.338 					"/>
					<polygon fill="#51A3DA" points="327.925,139.188 310.416,157.657 324.012,125.271 					"/>
					<polygon fill="#558AC8" points="268.389,66.091 272.132,75.505 260.19,81.646 					"/>
					<polygon fill="#4C88C7" points="271.678,75.719 260.19,81.646 271.254,84.536 					"/>
					<polygon fill="#6799D1" points="260.19,81.646 250.536,86.799 261.852,94.219 					"/>
					<polygon fill="#6698CF" points="250.536,86.799 261.852,94.219 244.778,102.178 					"/>
					<polygon fill="#568FCB" points="250.536,86.799 233.308,104.811 244.778,102.178 					"/>
					<polygon fill="#6399D1" points="229.998,88.613 233.308,104.811 250.536,86.799 					"/>
					<polygon fill="#6B9DD3" points="229.998,88.613 213.82,103.604 233.308,104.811 					"/>
					<polygon fill="#6396CF" points="229.998,88.613 210.525,89.112 213.82,103.604 					"/>
					<polygon fill="#6196CF" points="210.525,89.112 192.41,97.896 213.82,103.604 					"/>
					<polyline fill="#6B9AD2" points="192.195,86.032 192.41,97.896 210.854,89.167 192.195,86.032 					"/>
					<polyline fill="#6797D0" points="192.195,86.032 178.853,99.874 192.41,97.896 192.195,86.032 					"/>
					<polyline fill="#6D9BD2" points="175.064,84.447 178.853,99.874 192.195,86.032 175.064,84.447 					"/>
					<polygon fill="#6298D1" points="192.41,97.896 180.005,115.353 178.853,99.874 					"/>
					<polygon fill="#5E98D1" points="178.853,99.874 162.604,108.161 180.005,115.353 					"/>
					<polygon fill="#6EA1D6" points="166.337,93.726 162.77,107.888 179.182,99.874 					"/>
					<polyline fill="#6B99D1" points="175.064,84.447 166.337,93.726 165.074,81.319 175.064,84.447 					"/>
					<polygon fill="#6E9CD3" points="154.315,87.798 166.337,93.726 165.074,81.319 					"/>
					<polygon fill="#6899D1" points="154.315,87.798 137.847,104.319 134.608,88.567 					"/>
					<polygon fill="#6A9CD3" points="134.608,88.567 118.745,103.167 137.955,104.649 					"/>
					<polygon fill="#5D95CF" points="134.608,88.567 115.339,89.112 118.745,103.167 					"/>
					<polyline fill="#568ECB" points="134.481,70.431 115.339,89.112 134.608,88.567 134.481,70.431 					"/>
					<polyline fill="#6392CD" points="118.593,71.949 115.339,89.112 134.704,70.365 118.593,71.949 					"/>
					<polyline fill="#4D7FC1" points="118.593,71.949 96.784,71.823 96.237,86.753 118.593,71.949 					"/>
					<polyline fill="#5A8ECB" points="118.593,71.949 96.237,86.753 115.339,89.112 118.593,71.949 					"/>
					<polyline fill="#5E8AC7" points="119.003,62.791 100.588,61.25 96.812,71.606 119.003,62.791 					"/>
					<polyline fill="#5F8FCA" points="119.003,62.791 96.784,71.823 118.593,71.949 119.003,62.791 					"/>
					<polyline fill="#5E8ECA" points="100.588,61.25 80.777,76.215 96.784,71.823 100.588,61.25 					"/>
					<polygon fill="#4A82C3" points="96.784,71.823 79.423,84.57 80.777,76.215 					"/>
					<polygon fill="#5789C7" points="96.784,71.823 79.423,84.57 96.237,86.753 					"/>
					<polygon fill="#5084C4" points="80.901,75.909 77.25,66.278 100.588,61.25 					"/>
					<polyline fill="#5585C5" points="85.761,59.011 77.25,66.278 100.588,61.25 85.761,59.011 					"/>
					<polygon fill="#4B80C1" points="77.25,66.278 69.348,82.144 80.901,75.909 					"/>
					<polygon fill="#477DBF" points="80.777,76.215 69.533,82.174 79.423,84.57 					"/>
					<polygon fill="#4F85C5" points="69.348,82.144 58.844,88.073 63.127,73.309 					"/>
					<polygon fill="#457DC0" points="63.127,73.309 39.246,88.563 58.844,88.073 					"/>
					<polygon fill="#4A82C3" points="63.127,73.309 51.245,73.994 39.492,88.502 					"/>
					<polygon fill="#427EC0" points="51.245,73.994 39.492,88.502 38.803,70.323 					"/>
					<polygon fill="#4078BC" points="38.803,70.323 19.647,88.93 39.246,88.563 					"/>
					<polygon fill="#487DC0" points="38.803,70.323 23.126,72.002 19.647,88.93 					"/>
					<polyline fill="#4579BD" points="23.704,62.737 23.126,72.002 1.153,72.035 23.704,62.737 					"/>
					<polyline fill="#4574BA" points="23.704,62.737 4.958,61.489 1.153,72.035 23.704,62.737 					"/>
					<polygon fill="#6296D0" points="270.984,84.562 261.801,94.021 260.19,81.646 					"/>
					<polygon fill="#4A8FCC" points="355.946,81.022 345.752,88.012 356.265,94.896 					"/>
					<polygon fill="#4C91CD" points="345.752,88.012 340.589,101.928 356.265,94.896 					"/>
					<polygon fill="#468FCD" points="356.265,94.896 344.405,110.394 340.427,102.12 					"/>
					<polygon fill="#3D86C7" points="344.198,110.325 356.142,107.65 356.265,94.896 					"/>
					<polygon fill="#449BD5" points="344.981,130.338 327.925,139.188 327.836,155.241 					"/>
					<polygon fill="#5CABDB" points="327.925,139.188 327.836,155.241 310.416,157.854 					"/>
					<polygon fill="#5CA7DC" points="324.012,125.271 304.197,141.182 310.416,157.854 					"/>
					<polygon fill="#579FD7" points="309.005,130.531 304.197,141.182 324.012,125.271 					"/>
					<polygon fill="#66A9DD" points="309.005,130.531 291.629,139.998 304.197,141.182 					"/>
					<polyline fill="#54A2D9" points="308.8,130.604 291.753,131.236 291.629,139.998 309.005,130.531 					"/>
					<polygon fill="#53A1D8" points="291.256,131.477 270.165,139.313 291.629,139.998 					"/>
					<polygon fill="#5BA0D7" points="286.816,114.625 273.463,131.04 291.753,131.236 					"/>
					<polygon fill="#5699D3" points="286.816,114.625 275.329,115.612 273.713,130.729 					"/>
					<polygon fill="#5A99D2" points="287.844,98.593 275.329,115.612 286.816,114.625 					"/>
					<polygon fill="#5393CF" points="287.844,98.593 274.894,99.688 275.457,115.303 					"/>
					<polygon fill="#5093CE" points="274.894,99.688 258.161,107.835 275.329,115.612 					"/>
					<polygon fill="#61A2D8" points="275.329,115.612 263.323,126.749 273.713,130.729 					"/>
					<polygon fill="#65A3D7" points="275.329,115.612 257.29,120.528 263.323,126.749 					"/>
					<polygon fill="#609DD4" points="257.351,120.216 248.517,111.568 275.329,115.612 					"/>
					<polygon fill="#659DD4" points="275.329,115.612 258.161,107.835 249.265,112.192 					"/>
					<polygon fill="#5392CE" points="261.852,94.219 258.161,107.835 249.265,112.192 					"/>
					<polygon fill="#6199D2" points="249.327,111.88 244.778,102.178 261.852,94.219 					"/>
					<polygon fill="#68A0D6" points="249.265,112.128 233.308,104.811 244.778,102.178 					"/>
					<polygon fill="#6CA3D7" points="233.308,104.811 227.864,117.292 249.265,112.128 					"/>
					<polygon fill="#5B98D1" points="227.864,117.292 214.986,116.731 233.308,104.811 					"/>
					<polygon fill="#629BD3" points="233.308,104.811 213.82,103.604 214.986,116.731 					"/>
					<polygon fill="#5594CF" points="287.275,86.792 274.717,99.514 287.844,98.593 					"/>
					<polygon fill="#5E98D1" points="274.717,99.514 271.254,84.536 287.275,86.792 					"/>
					<polygon fill="#6198D1" points="271.254,84.536 261.863,93.852 274.894,99.688 					"/>
					<polygon fill="#6499D0" points="261.801,94.021 258.161,107.835 275.023,99.462 					"/>
					<polyline fill="#5F9ED5" points="249.265,112.128 257.29,120.528 249.57,130.215 249.267,112.364 					"/>
					<path fill="#659DD4" d="M228.713,125.014"/>
					<polygon fill="#65A1D7" points="248.859,112.57 228.713,125.014 249.588,130.067 					"/>
					<polygon fill="#5B9CD4" points="227.864,117.292 228.713,125.014 248.859,112.57 					"/>
					<polygon fill="#68A0D6" points="213.514,103.491 191.227,115.171 214.986,116.731 					"/>
					<polygon fill="#6A9FD5" points="192.246,98.034 191.429,114.967 213.82,103.604 					"/>
					<polygon fill="#6A9DD3" points="192.04,98.082 180.005,115.353 191.686,115.171 					"/>
					<polygon fill="#699FD5" points="191.429,114.967 178.231,130.749 180.005,115.353 					"/>
					<polygon fill="#6DA6D9" points="191.686,115.171 178.27,130.728 196.173,131.186 					"/>
					<polygon fill="#6DA2D7" points="191.686,115.171 195.968,131.135 215.146,116.753 					"/>
					<polygon fill="#6BA5D9" points="214.986,116.731 213.615,130.728 195.93,131.158 					"/>
					<polygon fill="#6CA5D9" points="227.864,117.292 215.146,116.753 213.514,130.421 					"/>
					<polygon fill="#70A7DA" points="227.864,117.292 228.713,125.014 213.514,130.421 					"/>
					<polygon fill="#63A2D8" points="228.713,125.014 232.334,138.889 249.705,130.117 					"/>
					<polygon fill="#6DA9DB" points="249.57,130.215 263.323,126.749 257.29,120.528 					"/>
					<polygon fill="#63A4D8" points="249.57,130.215 231.926,155.056 232.334,138.889 					"/>
					<polygon fill="#6BA8DB" points="232.334,138.889 214.583,158.42 228.713,125.014 					"/>
					<polyline fill="#72ACDD" points="228.683,125.088 208.922,140.996 214.583,158.438 228.7,125.104 					"/>
					<polygon fill="#6BA8DB" points="228.855,124.952 213.311,130.675 208.922,141.029 					"/>
					<polygon fill="#77B1E0" points="213.514,130.421 208.925,140.978 195.613,140.367 					"/>
					<polygon fill="#72AEDE" points="195.519,140.364 195.104,157.198 208.957,141.013 					"/>
					<polygon fill="#63A7DC" points="208.973,140.98 195.104,157.198 214.583,158.42 					"/>
					<polygon fill="#68ADDF" points="214.583,158.42 214.383,167.551 231.926,155.056 					"/>
					<polygon fill="#74B3E2" points="231.926,155.056 232.334,138.889 214.583,158.42 					"/>
					<polygon fill="#79BAE6" points="214.583,158.42 195.104,157.198 214.383,167.551 					"/>
					<polygon fill="#7BBBE1" points="194.941,157.107 192.448,167.396 214.383,167.551 					"/>
					<polygon fill="#6DAEDF" points="195.555,140.331 180.819,154.24 195.104,157.198 					"/>
					<polygon fill="#72B0E0" points="195.555,140.398 174.443,139.144 180.891,154.278 					"/>
					<polygon fill="#68A5D9" points="195.895,131.329 174.75,139.144 195.458,140.468 					"/>
					<polygon fill="#6AA6DA" points="195.968,131.135 195.458,140.468 213.514,130.421 					"/>
					<polyline fill="#6CA5D9" points="195.917,131.289 178.27,130.728 174.443,139.144 195.998,131.293 					"/>
					<polygon fill="#74AEDE" points="178.27,130.728 163.529,139.397 174.443,139.144 					"/>
					<polygon fill="#5F9ED5" points="178.334,130.682 167.406,126.393 163.529,139.397 					"/>
					<polygon fill="#6CA5D9" points="180.005,115.353 167.406,126.393 178.27,130.728 					"/>
					<polygon fill="#6EA5D8" points="180.005,115.353 161.796,120.118 167.406,126.393 					"/>
					<polygon fill="#75ABDC" points="167.406,126.393 154.225,129.585 161.796,120.118 					"/>
					<polygon fill="#69A3D8" points="167.406,126.393 154.225,129.585 163.529,139.397 					"/>
					<polygon fill="#659FD5" points="161.796,120.118 153.969,110.967 154.225,129.585 					"/>
					<polygon fill="#6BA0D6" points="154.115,111.042 180.005,115.353 161.796,120.118 					"/>
					<polygon fill="#6BA0D6" points="180.005,115.353 162.604,108.161 154.478,111.329 					"/>
					<polygon fill="#5D96D0" points="166.337,93.726 162.716,108.028 154.188,111.476 					"/>
					<polygon fill="#689AD0" points="154.225,111.295 149.144,102.295 166.337,93.726 					"/>
					<polyline fill="#6E9FD4" points="154.516,87.96 149.144,102.295 166.337,93.726 154.516,87.96 					"/>
					<polyline fill="#6C9AD1" points="174.864,84.407 166.337,93.726 179.182,99.874 174.864,84.407 					"/>
					<polyline fill="#5991CD" points="154.551,87.814 149.181,102.149 137.821,104.509 154.551,87.814 					"/>
					<polygon fill="#4275BA" points="345.681,45.849 354.243,43.617 345.979,33.85 					"/>
					<polygon fill="#4579BD" points="345.681,45.849 353.574,53.445 354.243,43.617 					"/>
					<polygon fill="#4A95D0" points="356.142,107.65 344.405,110.394 355.033,121.127 					"/>
					<polygon fill="#4394D1" points="344.405,110.394 344.958,130.204 355.033,121.127 					"/>
					<polygon fill="#4699D4" points="344.958,130.204 354.838,127.812 355.033,121.127 					"/>
					<polygon fill="#5FA2D8" points="249.214,130.064 259.271,138.794 263.323,126.749 					"/>
					<polygon fill="#4F9AD4" points="263.323,126.749 273.463,131.04 259.271,138.794 					"/>
					<polygon fill="#5FA3D9" points="259.271,138.794 249.57,130.215 249.936,141.361 					"/>
					<polygon fill="#6EAADC" points="249.979,141.39 231.926,155.056 249.57,130.215 					"/>
					<polygon fill="#64A7D8" points="249.936,141.361 257.949,148.829 259.271,138.794 					"/>
					<polygon fill="#68A6D9" points="259.271,138.794 270.165,139.313 273.463,131.04 					"/>
					<polygon fill="#5CA3D9" points="291.753,131.236 273.463,131.04 270.165,139.313 					"/>
					<polygon fill="#64A8DC" points="270.165,139.313 258.027,148.517 259.271,138.794 					"/>
					<polygon fill="#74B3E2" points="258.027,148.517 244.799,155.132 249.936,141.361 					"/>
					<polygon fill="#67A9DD" points="249.936,141.361 244.799,155.132 232.276,155.132 					"/>
					<polygon fill="#6CB0E1" points="258.027,148.517 276.074,153.965 270.165,139.313 					"/>
					<polygon fill="#6CB0E1" points="270.165,139.313 276.074,153.965 291.629,139.998 					"/>
					<polygon fill="#5CA7DC" points="304.197,141.182 291.634,139.728 291.479,156.61 					"/>
					<polygon fill="#5CA7DC" points="291.629,139.998 276.462,153.73 291.479,156.61 					"/>
					<polygon fill="#4C9FD8" points="304.197,141.182 291.479,156.61 310.416,157.657 					"/>
					<polygon fill="#4C9FD8" points="327.809,154.975 310.071,167.5 310.416,157.657 					"/>
					<polygon fill="#54A4DA" points="327.836,155.241 345.467,141.517 345.08,129.927 					"/>
					<polygon fill="#4BA7DC" points="345.467,141.517 340.488,154.975 327.809,154.975 					"/>
					<polygon fill="#5DACDB" points="340.488,154.975 325.087,166.022 327.809,154.975 					"/>
					<polygon fill="#5DACDB" points="325.087,166.022 310.071,167.5 327.809,154.975 					"/>
					<polygon fill="#48A4D8" points="340.488,154.975 337.691,169.212 325.087,166.022 					"/>
					<polygon fill="#66B3E4" points="291.479,156.61 310.071,167.5 310.416,157.657 					"/>
					<polygon fill="#68B4E1" points="310.071,167.5 287.82,167.188 291.479,156.61 					"/>
					<polygon fill="#6EB6E5" points="291.479,156.61 271.328,171.703 287.82,167.188 					"/>
					<polygon fill="#4197D3" points="344.958,130.204 357.604,140.506 345.467,141.517 					"/>
					<polygon fill="#4497D2" points="345.08,129.927 356.514,127.359 357.604,140.506 					"/>
					<polygon fill="#4497D2" points="345.701,141.596 354.786,149.453 357.604,140.506 					"/>
					<polygon fill="#59AADC" points="354.786,149.453 340.488,154.975 345.467,141.517 					"/>
					<polygon fill="#56AADA" points="340.488,154.975 349.515,168.667 354.786,149.453 					"/>
					<polygon fill="#54ACDB" points="337.691,169.212 349.515,168.667 340.488,154.975 					"/>
					<polygon fill="#56ABDB" points="337.691,169.212 325.631,183.683 325.087,166.022 					"/>
					<polygon fill="#5FB4DF" points="337.691,169.212 349.902,168.279 325.864,183.371 					"/>
					<polygon fill="#5AAFDC" points="325.087,166.022 306.415,183.76 325.631,183.683 					"/>
					<polygon fill="#63B5E0" points="325.087,166.022 310.384,167.268 306.415,183.76 					"/>
					<polygon fill="#6AB3E3" points="291.479,156.61 267.983,161.511 271.328,171.703 					"/>
					<polygon fill="#6BB4E3" points="291.479,156.61 276.462,153.73 267.983,161.511 					"/>
					<polygon fill="#72B5E4" points="276.384,153.73 267.983,161.511 258.027,148.517 					"/>
					<polygon fill="#6FB6E1" points="267.983,161.511 260.05,177.304 257.822,148.275 					"/>
					<polygon fill="#67B2DF" points="257.637,148.674 253.514,167.579 260.05,177.304 					"/>
					<polygon fill="#5BAEDD" points="287.82,167.188 287.666,181.735 310.071,167.5 					"/>
					<path fill="#68B9E0" d="M287.744,167.5l-17.972,12.372c0,0,17.894,2.178,17.894,1.863c0-0.311,0.154-14.547,0.154-14.547"/>
					<polygon fill="#66B6E1" points="306.415,183.76 287.666,181.735 310.071,167.5 					"/>
					<polygon fill="#5D95CF" points="115.339,89.112 97.157,97.528 96.237,86.753 					"/>
					<polygon fill="#5792CD" points="96.237,86.753 84.089,98.823 97.157,97.528 					"/>
					<polygon fill="#5B92CD" points="96.272,86.502 79.664,84.462 84.089,98.823 					"/>
					<polygon fill="#558ECB" points="79.423,84.57 71.226,93.855 69.348,82.144 					"/>
					<polygon fill="#558ECB" points="69.348,82.144 58.844,88.073 71.292,93.514 					"/>
					<polygon fill="#5190CC" points="58.844,88.073 53.323,101.682 71.565,93.583 					"/>
					<polygon fill="#417FC1" points="58.836,87.865 41.684,105.017 53.323,101.682 					"/>
					<polygon fill="#4989C8" points="42.023,104.745 39.246,88.563 58.844,88.073 					"/>
					<polygon fill="#4B8BC9" points="39.492,88.502 23.172,103.179 42.023,104.745 					"/>
					<polygon fill="#4180C2" points="39.709,88.34 19.647,88.93 23.172,103.179 					"/>
					<polygon fill="#4178BC" points="23.126,72.002 -0.243,86.239 19.647,88.93 					"/>
					<polygon fill="#396FB6" points="23.126,72.002 1.153,72.035 -0.245,86.436 					"/>
					<polygon fill="#3A6AB3" points="4.813,44.625 -10.386,58.663 4.958,61.489 					"/>
					<polygon fill="#3A6AB3" points="5.2,61.319 -14.403,64.995 -14.538,75.818 					"/>
					<polygon fill="#4378BD" points="4.958,61.489 -14.743,76.021 1.153,72.035 					"/>
					<polygon fill="#3D6DB5" points="1.389,72.005 -14.743,76.021 -17.056,85.144 					"/>
					<polygon fill="#4174BA" points="1.153,72.035 -0.245,86.436 -17.056,85.144 					"/>
					<polygon fill="#4373B9" points="4.958,61.489 -10.044,58.46 -14.403,64.995 					"/>
					<polygon fill="#548FCC" points="79.469,84.371 71.076,93.653 84.089,98.823 					"/>
					<polygon fill="#5594CF" points="71.565,93.583 67.204,107.645 84.089,98.823 					"/>
					<polygon fill="#4588C8" points="71.543,93.372 67.204,107.645 57.223,110.534 					"/>
					<polygon fill="#5594CF" points="57.223,110.534 41.684,105.017 53.259,101.486 					"/>
					<polygon fill="#5295D0" points="41.684,105.017 36.798,117.202 57.223,110.534 					"/>
					<polygon fill="#4987C7" points="67.204,107.645 84.086,115.525 84.089,98.823 					"/>
					<polygon fill="#518ECB" points="84.086,115.525 97.332,97.569 84.089,98.823 					"/>
					<path fill="#578FCB" d="M97.157,97.528c0,0,21.497,5.871,21.588,5.639c0.089-0.236-3.406-14.055-3.406-14.055L97.157,97.528z"
						/>
					<polygon fill="#5F98D1" points="97.157,97.528 96.305,114.73 118.745,103.167 					"/>
					<polygon fill="#5C97D1" points="97.157,97.528 83.993,115.384 96.305,114.73 					"/>
					<polygon fill="#5899D2" points="96.448,114.546 83.108,130.775 83.993,115.384 					"/>
					<polygon fill="#589CD4" points="84.086,115.525 72.009,126.344 83.108,130.775 					"/>
					<polygon fill="#62A0D6" points="96.305,114.73 100.783,131.007 83.108,130.775 					"/>
					<polygon fill="#68A1D5" points="96.448,114.546 120.045,116.178 100.689,130.821 					"/>
					<polygon fill="#639AD2" points="118.745,103.167 96.448,114.546 120.045,116.178 					"/>
					<polygon fill="#5F99D2" points="118.537,103.167 120.027,116.223 137.75,104.649 					"/>
					<polygon fill="#72B5E4" points="244.967,155.103 253.471,167.463 257.829,148.564 					"/>
					<polygon fill="#6FB6E2" points="244.799,155.132 242.466,169.57 253.514,167.579 					"/>
					<polygon fill="#67B1DE" points="244.967,155.103 229.82,165.748 242.466,169.57 					"/>
					<polygon fill="#75B6E3" points="232.07,155.103 229.82,165.748 244.967,155.103 					"/>
					<polygon fill="#7DBCE0" points="232.07,155.103 214.383,167.551 229.785,165.854 					"/>
					<polygon fill="#7BBCE2" points="214.278,167.641 211.993,182.932 229.75,165.89 					"/>
					<polygon fill="#6AA2D7" points="154.225,129.585 133.08,124.488 154.188,111.476 					"/>
					<polygon fill="#5F9CD4" points="133.354,124.352 132.943,117.172 154.478,111.329 					"/>
					<polygon fill="#6CA2D7" points="132.602,117.307 137.847,104.319 154.478,111.329 					"/>
					<polygon fill="#6F9FD4" points="149.181,102.149 137.594,104.243 154.478,111.329 					"/>
					<polygon fill="#5F9AD1" points="132.738,117.238 137.847,104.319 120.027,116.223 					"/>
					<polygon fill="#6EA6D9" points="120.027,116.223 133.354,124.352 132.943,117.172 					"/>
					<polygon fill="#6BA5D9" points="120.027,116.223 118.854,130.097 133.354,124.352 					"/>
					<polygon fill="#69A3D8" points="120.027,116.223 100.783,131.007 118.854,130.097 					"/>
					<polygon fill="#5798D2" points="67.204,107.645 57.223,110.534 83.767,115.461 					"/>
					<polygon fill="#69A3D8" points="154.374,129.525 136.98,138.548 133.354,124.352 					"/>
					<polygon fill="#6EA8DB" points="136.98,138.548 119.186,157.69 133.354,124.352 					"/>
					<polygon fill="#66A5D9" points="154.225,129.585 136.904,154.609 136.98,138.548 					"/>
					<polygon fill="#74B1E1" points="154.374,129.525 154.468,141.565 136.904,154.609 					"/>
					<polygon fill="#78B5E3" points="136.98,138.548 136.904,154.609 119.186,157.69 					"/>
					<polygon fill="#60A0D7" points="118.854,130.097 100.606,139.696 100.689,130.821 					"/>
					<polygon fill="#60A0D7" points="100.606,130.916 80.655,139.047 83.108,130.775 					"/>
					<polygon fill="#5095D0" points="83.108,130.775 68.656,138.915 72.009,126.344 					"/>
					<polygon fill="#539BD4" points="72.009,126.344 58.92,129.916 68.656,138.915 					"/>
					<polygon fill="#5497D1" points="83.993,115.384 66.396,120.57 57.223,110.534 					"/>
					<polygon fill="#4F97D1" points="66.396,120.57 58.702,130.005 57.223,110.534 					"/>
					<polygon fill="#609FD6" points="58.92,129.916 66.396,120.57 72.176,126.354 					"/>
					<polygon fill="#5B9CD4" points="66.396,120.57 72.176,126.354 84.086,115.525 					"/>
					<polygon fill="#67A6DA" points="83.108,130.775 68.641,138.665 80.992,139.021 					"/>
					<polygon fill="#5A9FD6" points="100.606,130.916 80.992,139.021 100.606,139.696 					"/>
					<polygon fill="#72ACDD" points="118.854,130.097 100.38,139.728 113.743,140.487 					"/>
					<polygon fill="#69A5DA" points="133.354,124.352 113.743,140.487 118.65,130.11 					"/>
					<polygon fill="#73AEDE" points="113.743,140.487 119.186,157.69 133.354,124.352 					"/>
					<polygon fill="#72B0E0" points="174.443,139.144 162.947,148.479 163.529,139.397 					"/>
					<polygon fill="#6CA9DC" points="163.529,139.397 154.468,141.565 162.947,148.479 					"/>
					<polygon fill="#66A5D9" points="163.529,139.397 154.468,141.565 154.374,129.525 					"/>
					<polygon fill="#7DB5E2" points="154.468,141.565 149.401,155.016 162.947,148.479 					"/>
					<polygon fill="#7BB3E1" points="180.891,154.244 162.947,148.479 174.443,139.144 					"/>
					<polygon fill="#7FB9E3" points="163.022,148.548 173.695,161.779 180.819,154.24 					"/>
					<polygon fill="#7EBBE2" points="163.154,148.636 164.462,177.554 173.719,161.761 					"/>
					<polygon fill="#75B6DF" points="164.462,177.554 158.499,168.402 163.159,148.548 					"/>
					<polygon fill="#6CACDE" points="154.468,141.565 149.401,155.016 136.904,154.609 					"/>
					<polygon fill="#7EBBE2" points="137.162,154.439 119.226,167.461 134.235,166.258 					"/>
					<polygon fill="#7DB8E3" points="136.904,154.609 134.028,166.258 149.401,155.016 					"/>
					<polygon fill="#6FB4DF" points="149.401,155.016 146.577,169.343 134.235,166.258 					"/>
					<polygon fill="#7BB8E2" points="149.401,155.016 158.553,168.191 163.154,148.425 					"/>
					<polygon fill="#77B8E3" points="158.396,167.932 146.577,169.343 149.401,155.016 					"/>
					<polygon fill="#61A6DB" points="113.58,140.476 100.662,156.69 119.186,157.69 					"/>
					<polygon fill="#6AABDD" points="100.606,139.696 100.611,156.897 113.58,140.476 					"/>
					<polygon fill="#64AADD" points="100.611,139.536 85.341,154.021 100.662,156.69 					"/>
					<polygon fill="#68A8DC" points="81.157,139.222 85.341,154.021 100.606,139.696 					"/>
					<polygon fill="#4E9CD5" points="68.659,138.646 59.141,141.263 58.92,129.916 					"/>
					<polygon fill="#5EA6DA" points="58.669,129.811 41.466,154.702 59.141,141.263 					"/>
					<polygon fill="#4B99D3" points="58.669,129.811 41.623,138.438 41.466,154.702 					"/>
					<polygon fill="#4C99D3" points="58.669,129.811 37.91,125.313 41.258,138.594 					"/>
					<polygon fill="#5397D1" points="57.471,110.724 37.91,125.313 58.702,130.005 					"/>
					<polygon fill="#408BCA" points="57.415,110.566 36.798,117.202 37.91,125.313 					"/>
					<polygon fill="#3B83C5" points="42.023,104.745 36.76,117.417 23.583,116.266 					"/>
					<polygon fill="#3C83C5" points="42.023,104.745 23.172,103.179 23.583,116.266 					"/>
					<polygon fill="#4489C9" points="23.172,103.179 0.781,114.019 23.583,116.266 					"/>
					<polygon fill="#4586C7" points="23.172,103.179 2.771,97.546 0.573,114.384 					"/>
					<polygon fill="#4087C7" points="2.771,97.546 -11.246,115.533 0.573,114.384 					"/>
					<polygon fill="#488AC9" points="53.259,101.486 57.223,110.534 71.292,93.514 					"/>
					<polygon fill="#447EC1" points="19.957,88.742 2.771,97.546 -0.273,86.193 					"/>
					<path fill="#3F7CBF" d="M19.957,88.742L2.771,97.546c0,0,20.25,5.754,20.402,5.633C23.316,103.058,19.957,88.742,19.957,88.742
						z"/>
					<polygon fill="#3D7ABE" points="-0.273,86.193 -11.838,99.522 2.771,97.546 					"/>
					<path fill="#3C7ABD" d="M2.771,97.546l-14.016,17.987l-0.593-16.011C-11.838,99.522,3.146,97.539,2.771,97.546z"/>
					<polygon fill="#7CBAE2" points="180.819,154.24 173.719,161.761 195.104,157.198 					"/>
					<polygon fill="#77B8E3" points="194.905,157.243 176.458,170.819 173.719,161.761 					"/>
					<polygon fill="#80BCE1" points="194.905,157.159 176.458,170.819 192.448,167.396 					"/>
					<polygon fill="#77B9E1" points="173.719,161.761 164.487,177.298 176.458,170.819 					"/>
					<polygon fill="#80BEE3" points="164.3,177.063 154.627,183.399 158.396,167.932 					"/>
					<polygon fill="#79B9E0" points="158.396,167.932 134.724,184.011 154.627,183.213 					"/>
					<polygon fill="#6FB6E1" points="214.548,167.445 192.872,181.729 192.448,167.396 					"/>
					<polygon fill="#76BBE1" points="176.458,170.819 174.79,180.107 192.448,167.396 					"/>
					<polygon fill="#73B6E1" points="176.458,170.819 174.79,180.107 164.487,177.298 					"/>
					<polygon fill="#7ABBE2" points="174.496,180.107 192.626,181.927 192.448,167.396 					"/>
					<polygon fill="#78BCE2" points="214.548,167.445 212.184,183.158 192.626,181.927 					"/>
					<polygon fill="#54AFDB" points="349.902,168.279 345.975,183.228 325.631,183.683 					"/>
					<polygon fill="#4BAADB" points="349.629,168.047 355.715,176.926 354.786,149.453 					"/>
					<polygon fill="#5BB2DD" points="355.715,176.926 345.975,183.228 349.902,168.279 					"/>
					<polygon fill="#65B2E3" points="271.328,171.703 260.05,177.304 267.983,161.511 					"/>
					<polygon fill="#74BCE3" points="260.05,177.304 249.637,183.771 253.514,167.579 					"/>
					<polygon fill="#6BB8E1" points="253.471,167.713 230.132,183.517 249.612,183.627 					"/>
					<polygon fill="#3B83C5" points="-11.838,115.272 0.573,114.384 -11.838,129.783 					"/>
					<polygon fill="#448FCC" points="0.573,114.384 4.899,130.462 -13.169,130.631 					"/>
					<polygon fill="#4791CE" points="0.573,114.384 23.583,116.266 4.899,130.462 					"/>
					<polygon fill="#4A93CF" points="23.583,116.266 22.404,130.292 4.899,130.462 					"/>
					<polygon fill="#4A95D0" points="23.583,116.266 36.798,117.202 22.404,130.292 					"/>
					<polygon fill="#579CD5" points="36.798,117.202 37.91,125.313 22.404,130.292 					"/>
					<polygon fill="#4193D0" points="4.899,130.462 5.294,139.891 22.404,130.292 					"/>
					<polygon fill="#3B8ECD" points="4.899,130.462 5.464,139.606 -14.354,139.606 					"/>
					<polygon fill="#3D8ECD" points="-13.169,130.631 -14.354,139.606 4.899,130.462 					"/>
					<polygon fill="#57A0D7" points="22.404,130.292 5.294,139.891 18,140.568 					"/>
					<polygon fill="#4699D4" points="5.464,139.606 -11.869,154.515 -14.354,139.606 					"/>
					<polygon fill="#459AD5" points="-11.869,154.515 5.35,156.66 5.464,139.606 					"/>
					<path fill="#4A9CD6" d="M5.464,139.606C5.409,140.06,5.35,156.66,5.35,156.66L18,140.568L5.464,139.606z"/>
					<polygon fill="#3C98D4" points="18,140.568 5.294,156.491 23.874,158.353 					"/>
					<polygon fill="#4E98D2" points="22.404,130.292 17.772,140.624 37.91,125.313 					"/>
					<polygon fill="#51A1D9" points="37.91,125.313 23.874,158.353 17.772,140.624 					"/>
					<polygon fill="#519DD6" points="23.816,158.071 41.266,138.364 37.91,125.313 					"/>
					<polygon fill="#55A0D8" points="68.925,138.541 67.283,149.08 59.141,141.263 					"/>
					<polygon fill="#5FA7DB" points="81.144,139.015 67.283,149.08 68.925,138.541 					"/>
					<polygon fill="#68ABDE" points="59.004,141.24 54.189,155.644 67.283,149.08 					"/>
					<polygon fill="#56A5DB" points="59.141,141.263 54.445,155.463 41.466,154.702 					"/>
					<polygon fill="#5AA5DA" points="41.266,138.364 23.709,158.236 41.466,154.702 					"/>
					<polygon fill="#4BA2DA" points="5.294,156.491 -12.515,170.223 -11.869,154.515 					"/>
					<polygon fill="#56ABDA" points="5.35,156.66 1.478,167.319 -12.515,170.223 					"/>
					<polygon fill="#59A8DD" points="5.294,156.491 1.22,167.627 23.816,158.071 					"/>
					<polygon fill="#5CABDE" points="23.816,158.071 23.302,167.679 1.22,167.627 					"/>
					<polygon fill="#47A3DB" points="1.22,167.627 0.814,182.175 23.808,167.523 					"/>
					<polygon fill="#4BA1D9" points="41.466,154.702 23.808,167.523 23.816,158.071 					"/>
					<polygon fill="#62B0DF" points="41.466,154.702 39.469,165.994 23.808,167.523 					"/>
					<polygon fill="#61ABDF" points="54.189,155.644 39.099,166.179 41.466,154.702 					"/>
					<polygon fill="#64AFE0" points="54.711,155.469 63.667,167.988 67.283,149.08 					"/>
					<polygon fill="#63ACDE" points="54.67,155.426 51.189,169.524 63.875,168.156 					"/>
					<polygon fill="#51A8DD" points="54.67,155.426 51.189,169.524 39.286,165.874 					"/>
					<polygon fill="#6AA9DC" points="81.157,139.222 67.283,149.08 85.341,154.021 					"/>
					<polygon fill="#70B2E2" points="67.283,149.08 78.359,161.609 85.819,153.989 					"/>
					<polygon fill="#6DB3E3" points="67.283,149.08 69.161,176.796 78.359,161.609 					"/>
					<polygon fill="#60ADE0" points="69.161,176.523 63.667,167.988 67.283,149.08 					"/>
					<polygon fill="#71B5E3" points="85.819,153.989 100.841,156.873 78.686,161.012 					"/>
					<polygon fill="#6DB3E3" points="78.686,161.012 81.354,171.298 100.662,156.69 					"/>
					<polygon fill="#66B1E2" points="81.354,171.298 69.161,176.523 78.686,161.012 					"/>
					<polyline fill="#78B7E4" points="100.695,156.756 97.195,167.273 81.354,171.298 100.662,156.69 					"/>
					<path fill="#64AADD" d="M119.403,157.528"/>
					<polygon fill="#7CBAE2" points="118.831,167.492 96.995,167.269 119.186,157.69 					"/>
					<polygon fill="#76B7E3" points="119.186,157.69 100.872,156.666 96.995,167.269 					"/>
					<polygon fill="#69AEDF" points="118.919,167.675 119.186,157.69 137.162,154.439 					"/>
					<polygon fill="#73B8E3" points="229.82,165.748 230.068,183.417 242.466,169.57 					"/>
					<polygon fill="#7BBCE2" points="242.457,169.467 253.605,167.548 230.04,183.506 					"/>
					<polygon fill="#52ABD9" points="1.187,167.818 -17.484,180.678 0.817,181.978 					"/>
					<polygon fill="#48A8DE" points="1.478,167.319 -12.515,170.223 -17.484,180.678 					"/>
					<polygon fill="#6BB4E3" points="118.831,167.492 96.229,181.759 96.995,167.269 					"/>
					<polygon fill="#72B9E1" points="96.65,167.367 79.743,180.011 96.229,181.759 					"/>
					<polygon fill="#6CB3E1" points="97.195,167.273 81.354,171.298 80.721,179.732 					"/>
					<polygon fill="#61AFE1" points="81.354,171.298 80.721,179.732 69.161,176.523 					"/>
					<polygon fill="#7BBBE6" points="118.831,167.492 134.235,166.258 115.585,183.784 					"/>
					<polygon fill="#76BBE1" points="134.235,166.258 134.724,183.576 115.375,184.204 					"/>
					<polygon fill="#5CAFDD" points="39.286,165.874 20.088,183.771 23.808,167.523 					"/>
					<polygon fill="#57ACDC" points="23.808,167.523 0.814,182.175 20.088,183.771 					"/>
					<polygon fill="#5BAEDD" points="39.286,165.874 20.088,183.771 39.324,183.693 					"/>
					<polygon fill="#60AFDD" points="39.469,165.994 51.189,169.524 39.324,183.693 					"/>
					<polygon fill="#65B5E1" points="63.875,168.156 51.189,169.524 39.324,183.693 					"/>
					<polygon fill="#60AFDE" points="63.875,168.156 59.833,182.896 39.324,183.693 					"/>
					<polygon fill="#70B7DE" points="63.667,167.988 69.229,176.287 59.833,182.896 					"/>
					<polygon fill="#61B8E4" points="84.065,163.059 83.131,186.584 56.054,186.111 					"/>
					<polygon fill="#7CBBE1" points="96.229,181.759 115.823,183.694 119.069,167.289 					"/>
					<polygon fill="#7CBAE1" points="134.235,166.258 134.724,184.011 146.577,169.343 					"/>
					<polygon fill="#7FBCE1" points="146.577,169.343 134.904,183.923 158.396,167.932 					"/>
					<polygon fill="#63B3E1" points="271.113,171.605 260.152,177.116 270.454,179.751 					"/>
					<polygon fill="#67B5E1" points="288.063,167.233 271.328,171.703 270.335,179.511 					"/>
					<polygon fill="#70BBE2" points="229.96,165.708 212.109,183.009 230.068,183.417 					"/>
					<polyline fill="#3A6AB3" points="-14.038,59.123 -28.234,68.751 -27.418,60.917 -14.038,59.123 					"/>
					<polyline fill="#416EB5" points="-17.063,43.572 -27.418,60.917 -41.046,62.06 -17.063,43.572 					"/>
					<polyline fill="#4378BD" points="-17.063,43.572 -27.418,60.917 -10.044,58.46 -17.063,43.572 					"/>
					<polygon fill="#4373B9" points="-28.125,68.606 -14.403,64.995 -14,58.983 					"/>
					<polyline fill="#4378BD" points="-14.403,64.995 -31.954,83.114 -28.125,68.606 -14.403,64.995 					"/>
					<polyline fill="#3C7ABD" points="-14.403,64.995 -32.002,83.065 -14.538,75.818 -14.403,64.995 					"/>
					<polyline fill="#6691CB" points="195.774,61.069 176.506,75.332 173.131,65.748 195.774,61.069 					"/>
					<polyline fill="#608FCB" points="165.074,81.319 176.506,75.332 173.458,65.206 165.074,81.319 					"/>
					<polyline fill="#6997CF" points="165.074,81.319 154.516,87.523 158.436,72.718 165.074,81.319 					"/>
					<polygon fill="#5F92CD" points="135.244,88.504 154.516,87.96 158.436,72.718 					"/>
					<polygon fill="#6997CE" points="135.244,88.504 146.351,73.916 158.436,72.718 					"/>
					<polygon fill="#6291CC" points="146.351,73.916 134.481,70.431 135.244,88.504 					"/>
					<polyline fill="#668FCA" points="149.614,60.088 146.351,73.916 158.436,72.718 149.614,60.088 					"/>
					<polyline fill="#5885C4" points="149.614,60.088 134.481,70.431 146.351,73.916 149.614,60.088 					"/>
					<polyline fill="#6E90CA" points="209.059,45.283 212.869,35.375 195.993,44.847 					"/>
					<line fill="none" x1="195.993" y1="44.847" x2="209.059" y2="45.283"/>
					<polyline fill="#6C96CD" points="232.276,59.211 229.922,70.137 214.027,72.362 232.276,59.211 					"/>
					<polyline fill="#6992CC" points="214.284,62.703 195.774,61.069 192.889,71.466 214.284,62.703 					"/>
					<polyline fill="#6C96CD" points="214.284,62.703 214.027,72.362 192.889,71.466 214.284,62.703 					"/>
					<polyline fill="#5B8AC8" points="192.889,71.466 192.195,86.032 213.739,72.627 192.889,71.466 					"/>
					<polyline fill="#6595CE" points="192.889,71.466 174.864,84.407 192.195,86.032 192.889,71.466 					"/>
					<polyline fill="#618DC9" points="192.889,71.466 176.501,75.461 175.152,84.118 192.889,71.466 					"/>
					<polyline fill="#578CC9" points="176.501,75.461 165.074,81.319 174.864,84.407 176.501,75.461 					"/>
					<polygon fill="#5E84C3" points="232.339,43.872 249.9,33.967 228.653,29.823 					"/>
					<polygon fill="#6488C5" points="249.655,33.967 228.752,29.895 248.684,15.006 					"/>
					<polygon fill="#5880C0" points="258.589,12.149 248.684,15.006 261.811,-1.828 					"/>
					<path fill="#6686C3" d="M261.811-1.828c0,0-16.408,7.292-16.408,7.596c0,0.302,3.342,9.055,3.342,9.055L261.811-1.828z"/>
					<polygon fill="#5E81C1" points="248.684,15.006 249.959,33.784 257.921,24.607 					"/>
					<polygon fill="#5D81C1" points="228.325,21.385 228.653,29.823 248.684,15.006 					"/>
					<polygon fill="#6D8EC8" points="233.429,9.05 228.325,21.385 248.684,15.006 					"/>
					<polygon fill="#5C7ABD" points="250.021,-7.297 233.429,9.05 245.402,5.768 					"/>
					<polygon fill="#6B89C5" points="250.021,-7.297 230.515,-6.995 233.429,9.05 					"/>
					<polygon fill="#708BC5" points="230.269,-7.055 213.739,7.687 233.429,9.05 					"/>
					<polygon fill="#6B8BC6" points="250.021,-7.297 261.811,-1.828 245.402,5.768 					"/>
					<polygon fill="#708AC6" points="250.021,-7.297 259.438,-13.618 261.811,-1.828 					"/>
					<polygon fill="#6C89C5" points="259.438,-13.618 271.838,-10.884 261.811,-1.828 					"/>
					<polygon fill="#6988C5" points="261.811,-2.255 274.509,3.52 271.838,-11.309 					"/>
					<polygon fill="#6A89C6" points="261.811,-1.828 258.589,12.149 274.509,3.945 					"/>
					<polygon fill="#6988C5" points="258.589,12.149 248.684,15.006 275.24,20.049 					"/>
					<path fill="#5977BB" d="M258.589,12.149l16.651,7.9l-0.731-15.862C274.509,4.187,259.381,12.391,258.589,12.149z"/>
					<polygon fill="#5A7DBE" points="274.693,4.127 287.82,2.182 275.3,19.806 					"/>
					<polygon fill="#5E84C3" points="287.82,2.182 287.273,18.774 275.24,20.049 					"/>
					<polygon fill="#6184C3" points="287.82,2.182 287.455,-8.939 274.509,3.945 					"/>
					<path fill="#6A89C6" d="M287.455-8.939c-0.608,0.123-15.617-1.945-15.617-1.945l2.671,14.83L287.455-8.939z"/>
					<path fill="#6185C3" d="M287.82,2.182c0.483,0,21.876,5.591,21.876,5.591l-22.302,10.755L287.82,2.182z"/>
					<polygon fill="#597ABC" points="287.82,2.182 305.563,-6.691 309.696,7.773 					"/>
					<polygon fill="#6585C3" points="305.563,-6.691 287.455,-8.939 287.82,2.182 					"/>
					<polygon fill="#5B82C2" points="309.515,7.713 310.667,20.838 286.36,19.016 					"/>
					<polygon fill="#6886C3" points="230.33,-6.995 209.666,-6.873 213.739,7.469 					"/>
					<polyline fill="#708AC5" points="176.367,-10.763 154.878,-7.844 166.644,-1.707 176.367,-10.763 					"/>
					<polygon fill="#5D83C2" points="120.093,20.899 132.885,29.968 132.885,21.403 					"/>
					<polyline fill="#6385C3" points="120.336,20.961 118.007,34.831 132.885,29.968 120.336,20.961 					"/>
					<polyline fill="#5981C1" points="120.336,20.961 100.464,35.667 118.149,34.451 120.336,20.961 					"/>
					<polygon fill="#5279BC" points="100.646,35.423 100.732,44.558 118.149,34.451 					"/>
					<polyline fill="#5880C0" points="120.13,20.855 96.06,18.987 100.737,35.456 120.13,20.855 					"/>
					<path fill="#597EBF" d="M118.587,7.759c0,0-23.108,11.317-22.622,11.196c0.487-0.122,24.074,1.868,24.074,1.868L118.587,7.759"
						/>
					<polyline fill="#507BBE" points="100.732,44.558 85.938,58.776 100.588,61.25 100.732,44.558 					"/>
					<polygon fill="#4877BB" points="100.705,35.625 79.504,44.021 100.732,44.558 					"/>
					<polygon fill="#4F7ABD" points="100.705,35.625 83.04,34.995 79.51,44.049 					"/>
					<polygon fill="#537BBD" points="95.966,18.955 83.047,34.992 100.75,35.642 					"/>
					<polygon fill="#4B72B8" points="95.966,18.955 84.935,20.653 83.047,34.992 					"/>
					<polygon fill="#4E77BB" points="84.935,20.653 72.364,30.331 83.047,34.992 					"/>
					<polygon fill="#3C6BB4" points="83.047,34.992 68.233,43.432 72.364,30.331 					"/>
					<polyline fill="#517EBF" points="79.504,44.021 68.233,43.432 83.047,34.992 79.504,44.021 					"/>
					<polygon fill="#507ABD" points="72.364,30.331 58.852,34.402 66.464,25.136 					"/>
					<polygon fill="#5279BC" points="66.464,25.136 84.935,20.653 72.364,30.331 					"/>
					<polygon fill="#4872B8" points="84.639,20.653 57.671,15.519 66.464,25.136 					"/>
					<polygon fill="#5178BB" points="57.671,15.519 67.526,11.683 84.639,20.415 					"/>
					<polygon fill="#426DB5" points="67.82,11.622 83.577,4.011 84.935,20.653 					"/>
					<polygon fill="#4D71B7" points="84.935,20.653 97.268,2.595 83.577,4.011 					"/>
					<polygon fill="#557ABC" points="97.268,2.595 95.966,18.955 84.935,20.653 					"/>
					<polyline fill="#5E7FBF" points="97.268,2.606 118.587,7.759 95.735,18.941 97.268,2.595 					"/>
					<polygon fill="#4370B7" points="57.671,15.519 58.852,34.402 66.464,25.136 					"/>
					<polygon fill="#4471B7" points="57.671,15.519 37.351,29.7 58.852,34.402 					"/>
					<polygon fill="#3D69B2" points="57.671,15.519 37.31,21.653 37.515,29.574 					"/>
					<path fill="#4B74B9" d="M57.881,15.349c-0.167-0.042-15.262-6.263-15.262-6.263L37.31,21.653L57.881,15.349z"/>
					<polygon fill="#4C76BA" points="42.619,9.086 53.33,6.42 57.671,15.519 					"/>
					<polygon fill="#5477BB" points="83.577,4.011 71.418,-1.698 67.526,11.683 					"/>
					<polygon fill="#4167B1" points="71.418,-1.698 57.881,15.349 67.82,11.622 					"/>
					<polygon fill="#4770B6" points="71.418,-1.698 53.33,6.42 57.671,15.519 					"/>
					<polygon fill="#5175B9" points="71.418,-1.698 58.931,-7.315 53.33,6.42 					"/>
					<polygon fill="#3F66AF" points="58.931,-7.315 42.619,9.086 53.33,6.42 					"/>
					<polygon fill="#4B6FB5" points="42.619,9.086 39.043,-6.853 58.931,-7.315 					"/>
					<polygon fill="#4A6EB5" points="39.043,-6.853 22.918,7.817 42.619,9.086 					"/>
					<polygon fill="#4567B0" points="39.043,-6.853 18.561,-6.587 22.918,7.817 					"/>
					<polygon fill="#3E63AD" points="22.918,7.817 1.382,2.266 18.561,-6.587 					"/>
					<polygon fill="#4669B2" points="1.382,2.266 1.05,18.785 22.918,7.817 					"/>
					<polygon fill="#4468B1" points="1.382,2.266 1.182,-8.835 18.561,-6.587 					"/>
					<polygon fill="#4167B1" points="42.619,9.086 24.178,20.833 22.918,7.817 					"/>
					<polygon fill="#3B65B0" points="42.619,9.086 37.31,21.653 24.178,20.833 					"/>
					<polygon fill="#4770B7" points="37.345,21.662 22.273,35.575 24.083,20.809 					"/>
					<polygon fill="#4264AF" points="1.382,2.266 -13.883,4.843 0.786,-8.835 					"/>
					<polygon fill="#3D62AE" points="1.382,2.266 -11.77,19.909 -13.883,4.843 					"/>
					<polygon fill="#3F64AF" points="1.382,2.266 -11.77,19.909 1.05,18.785 					"/>
					<polygon fill="#446AB3" points="24.178,20.833 1.05,18.785 22.918,7.817 					"/>
					<polygon fill="#4975BA" points="37.515,29.574 22.204,35.625 37.31,21.653 					"/>
					<polygon fill="#4473B9" points="72.364,30.331 58.852,34.402 68.233,43.432 					"/>
					<polygon fill="#3F6FB6" points="58.852,34.402 41.687,43.366 37.351,29.7 					"/>
					<polyline fill="#6580C0" points="209.966,-6.683 229.382,-26.604 230.33,-6.995 209.966,-6.683 					"/>
					<polygon fill="#6580C0" points="309.515,7.713 326.262,-7.293 305.563,-6.691 					"/>
					<polygon fill="#5E84C3" points="326.262,-7.293 328.565,8.732 309.515,7.713 					"/>
					<polygon fill="#5A80C0" points="326.262,-7.293 345.457,-7.649 328.565,8.732 					"/>
					<polygon fill="#557ABC" points="328.565,8.732 310.667,20.838 309.312,7.658 					"/>
					<polygon fill="#4E77BB" points="328.565,8.732 323.343,21.277 310.667,20.838 					"/>
					<polygon fill="#5A83C2" points="328.565,8.732 344.23,14.825 323.343,21.277 					"/>
					<polygon fill="#5884C3" points="328.565,8.732 340.237,6.327 344.23,14.825 					"/>
					<polygon fill="#4973B8" points="340.237,6.327 345.457,-7.649 328.565,8.732 					"/>
					<polygon fill="#5981C1" points="340.237,6.327 354.786,-0.175 345.457,-7.649 					"/>
					<polygon fill="#5279BC" points="344.23,14.825 340.237,6.327 354.828,0.029 					"/>
					<polygon fill="#4975BA" points="344.23,14.825 324.315,29.467 323.343,21.277 					"/>
					<polygon fill="#5B86C4" points="324.315,29.467 310.667,20.838 323.343,21.277 					"/>
					<polyline fill="#6585C3" points="248.684,15.006 257.921,24.607 275.24,20.049 248.684,15.006 					"/>
					<polygon fill="#6689C6" points="275.24,20.049 249.747,33.878 257.832,24.57 					"/>
					<polygon fill="#678BC7" points="249.747,33.878 263.684,30.994 275.24,20.049 					"/>
					<polygon fill="#5D87C5" points="263.684,30.994 273.573,35.44 275.24,20.049 					"/>
					<polygon fill="#5179BC" points="263.684,30.994 259.028,43.866 273.573,35.44 					"/>
					<polygon fill="#5B86C4" points="259.028,43.866 249.747,33.878 263.684,30.994 					"/>
					<polygon fill="#5980C0" points="259.028,43.866 250.121,45.518 249.747,33.878 					"/>
					<polygon fill="#678EC9" points="249.655,33.967 250.121,45.518 232.276,59.211 					"/>
					<polygon fill="#5781C1" points="249.655,33.967 232.096,43.605 232.276,59.211 					"/>
					<polygon fill="#5D87C5" points="250.121,45.518 244.778,60.036 232.276,59.211 					"/>
					<polygon fill="#6793CD" points="250.121,45.518 257.848,52.542 244.778,60.036 					"/>
					<polygon fill="#5D84C3" points="259.028,43.866 257.848,52.542 250.121,45.518 					"/>
					<polygon fill="#4370B7" points="41.719,43.117 23.704,62.737 37.351,29.7 					"/>
					<polygon fill="#5980C0" points="275.24,20.049 286.508,18.874 273.573,35.44 					"/>
					<polygon fill="#5A84C3" points="310.667,20.838 308.523,35.333 324.315,29.467 					"/>
					<polygon fill="#6A87C3" points="209.666,-6.873 212.726,-23.377 192.11,-9.08 					"/>
					<polygon fill="#7088C3" points="230.515,-6.995 255.398,-24.684 229.382,-26.604 					"/>
					<polygon fill="#6380C0" points="250.021,-7.297 255.398,-24.684 230.33,-6.995 					"/>
					<polygon fill="#5381C1" points="304.289,45.387 308.523,35.333 324.315,29.467 					"/>
					<polygon fill="#4571B7" points="354.828,0.029 344.23,14.825 354.094,12.301 					"/>
					<polygon fill="#507BBE" points="354.094,12.301 353.317,24.685 344.23,14.825 					"/>
					<polygon fill="#4877BB" points="345.979,33.85 354.786,32.013 354.243,43.617 					"/>
					<polygon fill="#4F82C3" points="353.317,24.685 345.979,33.85 354.786,32.013 					"/>
					<polygon fill="#5477BB" points="114.713,-6.744 97.119,2.577 118.587,7.759 					"/>
					<polygon fill="#5C7DBE" points="96.265,-9.012 97.165,2.667 114.49,-6.782 					"/>
					<polygon fill="#5477BB" points="96.125,-8.945 83.432,3.986 97.157,2.554 					"/>
					<polygon fill="#5977BB" points="96.265,-9.012 79.789,-11.072 83.6,3.858 					"/>
					<polygon fill="#5275BA" points="79.789,-11.072 71.418,-1.698 83.661,4.122 					"/>
					<polygon fill="#5277BB" points="71.418,-1.698 68.563,-13.343 79.789,-11.072 					"/>
					<polygon fill="#5377BB" points="68.563,-13.343 58.925,-7.29 71.418,-1.698 					"/>
					<polygon fill="#4368B1" points="58.836,-7.29 64.153,-23.85 39.043,-6.853 					"/>
					<polygon fill="#4264AF" points="39.102,-6.744 39.438,-25.81 18.561,-6.587 					"/>
					<polyline fill="#6F8AC6" points="176.367,-10.763 164.36,-14.6 154.905,-7.835 176.367,-10.763 					"/>
					<polygon fill="#5F7DBE" points="154.814,-7.745 134.846,-6.902 159.55,-23.783 					"/>
					<polyline fill="#5976BA" points="134.846,-6.902 135.462,-27.824 114.776,-6.703 134.846,-6.902 					"/>
					<polygon fill="#5F7FC0" points="287.455,-8.939 309.545,-22.725 305.563,-6.691 					"/>
					<polygon fill="#5475B9" points="309.545,-22.725 288.278,-22.725 287.455,-8.939 					"/>
					<polygon fill="#6380C0" points="288.278,-22.725 271.838,-11.309 287.455,-8.939 					"/>
					<polygon fill="#6583C1" points="305.563,-6.691 324.352,-24.539 309.545,-22.725 					"/>
					<polygon fill="#5477BB" points="324.352,-24.539 325.874,-7.338 305.563,-6.691 					"/>
					<polygon fill="#5075B9" points="326.021,-7.628 350.698,-24.322 345.457,-7.649 					"/>
					<polygon fill="#3460AD" points="-65.472,77.528 -49.404,92.652 -57.52,111.329 					"/>
					<polyline fill="#618AC7" points="195.993,44.847 180.753,58.673 195.774,61.069 195.993,44.847 					"/>
					<path fill="#668CC8" d="M180.753,58.673l-6.424-14.479c0,0,21.882,0.871,21.664,0.652
						C195.774,44.63,180.753,58.673,180.753,58.673z"/>
					<polygon fill="#6991CB" points="180.753,58.673 162.898,52.904 174.329,44.194 					"/>
					<polygon fill="#6F94CC" points="180.753,58.673 173.131,65.748 162.898,52.904 					"/>
					<polygon fill="#6A93CC" points="173.676,65.642 165.074,81.319 163.334,53.23 					"/>
					<polygon fill="#5F8CC9" points="165.074,81.319 158.436,72.718 162.681,53.339 					"/>
					<polygon fill="#6992CC" points="158.436,72.718 150.162,59.652 162.898,52.904 					"/>
					<polygon fill="#6D93CC" points="162.898,52.904 154.625,45.608 149.614,60.088 					"/>
					<polygon fill="#5F86C4" points="154.625,45.608 163.334,44.521 162.898,52.904 					"/>
					<polygon fill="#678BC7" points="174.329,44.194 163.334,44.521 162.898,52.904 					"/>
					<polygon fill="#5381C1" points="209.059,45.283 195.774,61.069 214.284,62.703 					"/>
					<polygon fill="#658AC6" points="208.731,45.283 195.993,44.847 195.774,61.069 					"/>
					<polygon fill="#6A91CB" points="173.131,65.748 195.774,61.069 180.753,58.673 					"/>
					<polygon fill="#6086C5" points="212.761,35.485 195.342,35.593 196.538,44.413 					"/>
					<polygon fill="#5D81C1" points="174.329,44.194 195.342,35.593 196.538,44.413 					"/>
					<polygon fill="#6689C6" points="195.342,35.593 191.093,18.718 178.139,35.375 					"/>
					<polygon fill="#6D8BC6" points="191.093,18.718 195.342,35.158 215.482,20.897 					"/>
					<polygon fill="#6689C6" points="215.482,20.897 195.342,35.593 212.761,35.485 					"/>
					<polygon fill="#6D8CC7" points="212.869,35.047 227.892,21.766 215.482,20.897 					"/>
					<polygon fill="#6C8EC9" points="227.892,21.766 228.653,29.823 212.761,35.485 					"/>
					<polygon fill="#658BC8" points="228.653,29.823 209.059,45.283 212.761,35.485 					"/>
					<polygon fill="#6890CB" points="228.653,29.823 209.059,45.283 214.284,62.703 					"/>
					<polygon fill="#648DC9" points="214.58,62.655 232.14,43.788 228.653,29.823 					"/>
					<polygon fill="#6692CC" points="232.14,43.788 232.276,59.211 214.304,62.93 					"/>
					<polygon fill="#5787C6" points="232.276,59.211 214.304,62.93 214.027,72.362 					"/>
					<path fill="#6E96CE" d="M195.774,61.069c0,0-2.677,10.397-2.886,10.397c-0.204,0-16.388,3.995-16.388,3.995L195.774,61.069z"/>
					<polygon fill="#6B8FC9" points="163.334,44.521 177.327,35.456 174.329,44.194 					"/>
					<polygon fill="#547CBE" points="167.688,31.047 163.35,44.269 177.327,35.456 					"/>
					<polygon fill="#6284C3" points="167.688,31.047 154.744,34.904 163.35,44.269 					"/>
					<polygon fill="#5981C1" points="154.744,34.904 154.536,45.371 163.334,44.521 					"/>
					<polygon fill="#668CC8" points="154.398,34.767 136.906,59.35 154.625,45.608 					"/>
					<polygon fill="#5580C1" points="154.398,34.767 136.838,43.856 136.906,59.073 					"/>
					<polygon fill="#628DC9" points="136.838,43.856 119.003,62.791 136.701,59.28 					"/>
					<polygon fill="#5181C2" points="136.701,59.28 118.729,72.156 119.003,62.791 					"/>
					<polygon fill="#6893CD" points="118.593,71.949 134.704,70.365 136.701,59.28 					"/>
					<polygon fill="#6490CB" points="134.704,70.365 149.614,60.088 136.701,59.28 					"/>
					<polygon fill="#5D87C5" points="154.625,45.608 136.906,59.35 149.614,60.088 					"/>
					<polygon fill="#5F86C5" points="118.95,62.484 133.176,29.896 136.878,43.612 					"/>
					<polygon fill="#6188C6" points="118.95,62.484 113.362,45.573 133.176,29.896 					"/>
					<polygon fill="#4C79BD" points="113.362,45.573 100.588,61.25 119.003,62.791 					"/>
					<polygon fill="#5A83C2" points="113.362,45.573 100.732,44.558 100.588,61.25 					"/>
					<polygon fill="#6389C6" points="100.732,44.558 118.007,34.831 113.362,45.573 					"/>
					<path fill="#6085C4" d="M118.007,34.831l15.169-4.935c0,0-19.887,16.185-19.887,15.968
						C113.289,45.646,118.007,34.831,118.007,34.831z"/>
					<polygon fill="#597BBD" points="132.885,29.968 132.885,21.403 153.281,15.016 					"/>
					<path fill="#6585C3" d="M153.281,15.016c-0.945,0.365-20.105,14.88-20.105,14.88l21.222,4.871L153.281,15.016z"/>
					<polygon fill="#6082C1" points="153.281,15.016 162.136,25.032 154.398,34.767 					"/>
					<polygon fill="#6F8EC9" points="162.136,25.032 167.688,31.047 154.398,34.767 					"/>
					<path fill="#6B88C4" d="M153.281,15.016c-0.292-0.144-15.021-5.877-15.021-5.877l-5.664,12.048L153.281,15.016z"/>
					<polygon fill="#5378BB" points="138.26,9.139 120.04,20.823 132.885,21.403 					"/>
					<polygon fill="#5879BC" points="138.26,9.139 118.537,7.749 120.04,20.823 					"/>
					<polygon fill="#5879BC" points="138.26,9.139 154.878,-7.844 149.797,5.873 					"/>
					<polygon fill="#6785C3" points="138.26,9.139 134.846,-6.902 154.878,-7.844 					"/>
					<polygon fill="#6785C3" points="134.846,-6.902 118.587,7.759 138.26,9.139 					"/>
					<polygon fill="#5F7EBF" points="134.92,-6.948 114.67,-6.698 118.661,7.713 					"/>
					<polygon fill="#6988C5" points="153.281,15.016 149.797,5.873 138.26,9.139 					"/>
					<polygon fill="#6F89C5" points="149.797,5.873 166.851,-1.748 154.878,-7.844 					"/>
					<polygon fill="#6886C3" points="166.418,-1.676 149.797,5.873 153.281,15.016 					"/>
					<polygon fill="#5E7BBD" points="153.281,15.016 162.643,12.548 166.418,-1.676 					"/>
					<polygon fill="#6B8BC6" points="162.643,12.548 162.136,25.032 153.281,15.016 					"/>
					<polygon fill="#6A89C6" points="162.643,12.548 180.062,20.244 162.136,25.032 					"/>
					<polygon fill="#6C8CC7" points="162.136,25.032 167.941,30.913 180.062,20.244 					"/>
					<polygon fill="#6889C6" points="180.062,20.533 177.327,35.456 167.688,31.047 					"/>
					<polygon fill="#5E7CBE" points="180.062,20.244 178.827,4.784 162.643,12.548 					"/>
					<polygon fill="#718AC5" points="178.827,4.784 166.418,-1.676 162.643,12.548 					"/>
					<polygon fill="#6283C2" points="180.062,20.244 191.093,18.718 177.327,35.456 					"/>
					<polygon fill="#6584C2" points="180.062,20.244 192.694,1.954 178.827,4.784 					"/>
					<polygon fill="#6886C3" points="180.062,20.244 191.093,18.718 192.694,1.954 					"/>
					<polygon fill="#6D8AC6" points="192.694,1.954 213.739,7.687 191.093,18.718 					"/>
					<polygon fill="#6987C4" points="214.03,7.759 191.093,18.718 215.482,20.897 					"/>
					<polygon fill="#6581C1" points="192.329,1.88 209.748,-6.321 214.03,7.759 					"/>
					<polygon fill="#6E8AC6" points="192.694,1.954 192.11,-9.006 209.966,-6.683 					"/>
					<polygon fill="#6987C4" points="192.11,-9.006 178.827,4.784 192.694,1.954 					"/>
					<polygon fill="#6987C4" points="192.11,-9.08 176.579,-10.893 178.827,4.784 					"/>
					<polygon fill="#6E88C4" points="176.579,-10.893 166.418,-1.676 178.827,4.784 					"/>
					<polygon fill="#6583C1" points="233.046,8.994 215.482,20.897 213.739,7.687 					"/>
					<polygon fill="#5E7FBF" points="233.046,8.994 227.821,21.477 215.482,20.897 					"/>
					<polygon fill="#6287C5" points="177.327,35.456 174.329,44.194 195.342,35.593 					"/>
					<polygon fill="#6F8BC7" points="245.402,5.768 233.429,9.05 248.684,15.006 					"/>
					<polygon fill="#5B82C2" points="133.176,29.896 136.838,43.856 154.629,34.698 					"/>
					<polygon fill="#527EC0" points="79.504,44.021 100.732,44.558 85.761,59.011 					"/>
					<polygon fill="#416EB5" points="-17.063,43.572 -10.044,58.46 4.813,44.625 					"/>
					<polygon fill="#3F68B1" points="-16.248,35.663 -17.063,43.572 4.425,35.667 					"/>
					<polygon fill="#416EB5" points="-11.77,19.909 -16.248,35.663 1.05,18.785 					"/>
					<polygon fill="#3A6AB3" points="-14.403,64.995 -14.038,59.123 -10.044,58.46 					"/>
					<polygon fill="#3C7ABD" points="-17.056,85.144 -11.838,99.522 -0.273,86.193 					"/>
					<polygon fill="#3677B1" points="-11.838,99.522 -33.573,106.426 -11.838,110.13 					"/>
					<polygon fill="#4174BA" points="-17.056,85.144 -34.658,107.419 -11.838,99.522 					"/>
					<polygon fill="#3D6DB5" points="-17.056,85.144 -32.2,83.065 -34.658,107.419 					"/>
					<polygon fill="#4378BD" points="-14.538,75.818 -32.299,83.065 -17.056,85.144 					"/>
					<polygon fill="#4466B0" points="-32.053,83.065 -49.434,92.678 -34.658,107.419 					"/>
					<polygon fill="#4060AC" points="-49.434,92.678 -34.26,107.778 -57.548,111.356 					"/>
					<polygon fill="#3D6DB5" points="-49.431,92.683 -28.125,68.616 -32.05,83.074 					"/>
					<polygon fill="#4466B0" points="-49.416,92.663 -63.81,79.106 -52.305,77.879 					"/>
					<polygon fill="#3B69B2" points="-49.431,92.683 -52.305,77.879 -28.125,68.616 					"/>
				</g>
			</g>
		</g>
	</g>
	
		<linearGradient id="SVGID_4_" gradientUnits="userSpaceOnUse" x1="464.9932" y1="-248.5889" x2="420.1612" y2="-26.1189" gradientTransform="matrix(1 0 0 -1 -268.4902 -43.5996)">
		<stop  offset="0.0307" style="stop-color:#4CACD5"/>
		<stop  offset="0.4969" style="stop-color:#4DC5D7;stop-opacity:0.49"/>
		<stop  offset="1" style="stop-color:#1D476B"/>
	</linearGradient>
	<rect x="-3.673" y="-2.912" fill="url(#SVGID_4_)" width="352.152" height="176.617"/>
</g>
</svg>
