<svg version="1.1" id="Layer_1" xmlns="http://www.w3.org/2000/svg" xmlns:xlink="http://www.w3.org/1999/xlink" x="0px" y="0px"	 width="3840px" height="2160px" viewBox="0 0 3840 2160" enable-background="new 0 0 3840 2160" xml:space="preserve"><g>	<g>		<defs>			<rect id="SVGID_1_" x="-247.091" y="-13.303" width="4435.482" height="2224.411"/>		</defs>		<clipPath id="SVGID_2_">			<use xlink:href="#SVGID_1_"  overflow="visible"/>		</clipPath>		<g clip-path="url(#SVGID_2_)">			<linearGradient id="SVGID_3_" gradientUnits="userSpaceOnUse" x1="1674.2051" y1="-296.127" x2="2195.9949" y2="2159.355">				<stop  offset="0" style="stop-color:#4570B7"/>				<stop  offset="0.6503" style="stop-color:#578BC9"/>				<stop  offset="0.8344" style="stop-color:#579FD1"/>				<stop  offset="1" style="stop-color:#54AFDB"/>			</linearGradient>			<rect x="-576.949" y="-315.665" fill="url(#SVGID_3_)" width="5095.199" height="2829.152"/>			<g>				<polyline fill="#6491CC" points="2724.791,769.06 2693.129,905.417 2882.267,779.45 2724.791,769.06 				"/>				<polyline fill="#5786C5" points="2882.267,779.45 2850.063,958.995 2693.129,905.417 2882.267,779.45 				"/>				<polyline fill="#5E8ECA" points="2882.267,779.45 3005.881,936.566 2850.063,958.995 2882.267,779.45 				"/>				<polyline fill="#6390CB" points="3046.86,685.064 3005.881,936.566 2882.267,779.45 3046.86,685.064 				"/>				<polyline fill="#6695CE" points="2695.875,904.324 2448.744,1148.189 2494.959,934.691 2695.875,904.324 				"/>				<polyline fill="#3E6EB6" points="658.669,570.316 543.036,601.906 538.12,457.188 658.669,570.316 				"/>				<polyline fill="#487ABD" points="538.12,457.188 324.12,768.693 543.036,601.906 538.12,457.188 				"/>				<polyline fill="#3B6BB4" points="538.12,457.188 324.727,566.35 322.27,769.316 538.12,457.188 				"/>				<polyline fill="#4578BC" points="321.056,569.415 97.831,813.473 322.27,769.316 321.056,569.415 				"/>				<polygon fill="#4572B8" points="98.438,810.408 24.837,596.999 269.702,397.36 				"/>				<polygon fill="#3F6CB4" points="24.837,596.999 80.053,471.287 271.776,395.78 				"/>				<polygon fill="#4874B9" points="80.053,471.287 26.689,594.54 -140.106,585.349 				"/>				<polygon fill="#3D67B1" points="80.053,471.287 -144.99,472.516 -140.106,585.349 				"/>				<polyline fill="#406AB3" points="103.226,285.604 -144.99,472.516 80.022,471.574 103.8,285.691 				"/>				<polygon fill="#446CB4" points="-144.99,472.516 -187.503,259.895 105.203,283.642 				"/>				<polyline fill="#3E67B1" points="-187.503,259.895 -405.366,472.467 -144.99,472.516 -187.503,259.895 				"/>				<polyline fill="#5B84C3" points="3407.838,261.013 3461.394,469.244 3244.938,469.667 3407.838,261.013 				"/>				<polyline fill="#6186C4" points="3407.838,261.013 3461.394,469.244 3712.131,285.747 3406.4,260.549 				"/>				<polyline fill="#5585C4" points="3712.131,285.747 3685.129,468.31 3461.394,469.244 3712.131,285.747 				"/>				<polyline fill="#608DC9" points="3244.938,469.667 3203.89,574.145 3061.735,575.782 3244.938,469.667 				"/>				<polygon fill="#5E88C6" points="3203.89,574.145 3061.735,575.782 3046.86,685.064 				"/>				<polygon fill="#638BC7" points="3203.89,574.145 3046.86,685.064 3273.247,763.451 				"/>				<polygon fill="#5A87C5" points="3203.89,574.145 3475.758,580.378 3273.247,763.451 				"/>				<polygon fill="#4F7DBF" points="3205.297,572.04 3461.394,469.244 3475.758,580.378 				"/>				<polyline fill="#5681C1" points="3244.938,469.667 3203.89,574.145 3461.394,469.244 3244.938,469.667 				"/>				<polygon fill="#527FC0" points="3461.394,469.244 3475.758,580.378 3685.129,468.31 				"/>				<polyline fill="#5E8BC8" points="3685.129,468.31 3475.758,580.378 3631.797,594.947 3685.129,468.31 				"/>				<polygon fill="#5A85C4" points="3631.797,594.947 3475.758,580.378 3467.426,796.748 				"/>				<polygon fill="#5184C4" points="3475.758,580.378 3465.351,797.418 3273.247,763.451 				"/>				<polygon fill="#6592CC" points="3273.247,763.451 3179.636,855.706 3046.86,685.064 				"/>				<polygon fill="#5F8ECA" points="3273.247,763.451 3179.636,855.706 3467.426,796.748 				"/>				<polygon fill="#5889C7" points="3467.426,796.748 3182.411,854.987 3226.775,974.269 				"/>				<polyline fill="#5C8FCB" points="3467.426,796.748 3226.775,974.269 3426.54,924.351 3465.351,797.418 				"/>				<path fill="#5C8FCB" d="M3703.227,813.385"/>				<path fill="#5C8FCB" d="M3703.227,813.385"/>				<polygon fill="#4577BB" points="3631.797,594.947 3473.013,798.831 3708.078,815.475 				"/>				<polygon fill="#5B8ECA" points="3708.078,815.475 3468.863,800.921 3430.691,923.657 				"/>				<polygon fill="#5B8ECA" points="3708.078,815.475 3428.615,923.657 3701.854,934.739 				"/>				<polygon fill="#4E81C2" points="3701.854,934.739 3417.51,1116.434 3430.691,923.657 				"/>				<polygon fill="#588DCA" points="3414.764,1115.045 3215.732,1088.02 3430.691,923.657 				"/>				<polygon fill="#518CC9" points="3222.657,979.846 3215.732,1088.02 3430.691,923.657 				"/>				<polyline fill="#5785C4" points="3884.033,394.431 3708.078,815.475 3631.797,594.947 3884.033,394.431 				"/>				<polyline fill="#4F81C2" points="3884.033,394.431 3923.578,577.721 3708.078,815.475 3884.033,394.431 				"/>				<polygon fill="#4C78BC" points="3923.578,577.721 4156.891,449.639 3884.033,394.431 				"/>				<polyline fill="#4E7DBF" points="3884.033,394.431 4156.891,449.639 4134.867,210.017 3884.033,394.431 				"/>				<polyline fill="#4775BA" points="4134.867,210.017 4249.318,334.197 4156.891,449.639 4134.867,210.017 				"/>				<polygon fill="#4275BA" points="4156.891,449.639 3930.473,760.563 3923.578,577.721 				"/>				<polygon fill="#5486C5" points="3923.578,577.721 3930.473,760.563 3708.813,813.497 				"/>				<polygon fill="#4880C2" points="3930.473,760.563 3701.854,934.739 3708.078,815.475 				"/>				<polygon fill="#4E83C3" points="4156.891,449.639 4153.123,600.765 3931.781,757.771 				"/>				<polygon fill="#477DC0" points="4153.123,600.765 4088.778,779.051 3930.473,760.563 				"/>				<polygon fill="#5084C4" points="4088.778,779.051 3899.641,912.055 3930.473,760.563 				"/>				<polygon fill="#588ECA" points="3899.641,912.055 3701.854,934.739 3930.473,760.563 				"/>				<polyline fill="#6A87C4" points="3066.906,-148.23 2948.271,-68.623 3016.03,-287.603 3066.906,-148.23 				"/>				<polygon fill="#6090CB" points="3179.636,855.706 3076.385,1055.281 3046.86,685.064 				"/>				<polyline fill="#5889C7" points="3046.86,685.064 3076.385,1051.618 3005.881,936.566 3046.86,685.064 				"/>				<polygon fill="#5F96D0" points="3076.385,1051.618 2954.782,1116.527 3005.881,936.566 				"/>				<polygon fill="#5A91CC" points="3005.881,936.566 2696.098,1139.381 2954.782,1116.527 				"/>				<polygon fill="#6091CC" points="2850.063,958.995 2696.098,1139.381 3005.881,936.566 				"/>				<polygon fill="#6192CC" points="2850.063,958.995 2693.129,905.417 2696.098,1139.381 				"/>				<polyline fill="#5B8FCB" points="2693.129,905.417 2448.744,1148.189 2696.098,1139.381 2693.129,905.417 				"/>				<polyline fill="#6595CE" points="2494.959,934.691 2219.968,1106.874 2448.744,1148.189 2494.959,934.691 				"/>				<polyline fill="#4B78BC" points="800.634,577.745 642.17,691.192 658.669,570.316 800.634,577.745 				"/><polygon fill="#4676BB" points="642.17,691.192 543.036,601.906 658.669,570.316 				"/>				<polygon fill="#4F7FC1" points="642.17,688.049 480.734,780.511 543.036,601.906 				"/>				<polygon fill="#4173B9" points="543.036,601.906 324.12,768.693 480.734,780.511 				"/>				<polygon fill="#4B7DC0" points="642.17,688.049 594.358,946.62 480.734,780.511 				"/>				<polyline fill="#5181C2" points="800.634,577.745 642.17,691.192 881.927,767.202 800.634,577.745 				"/>				<polygon fill="#5484C4" points="642.17,688.049 772.229,858.075 881.927,767.202 				"/>				<polygon fill="#5385C5" points="772.229,858.075 672.713,1057.89 642.17,691.192 				"/>				<polygon fill="#4578BC" points="672.713,1057.89 594.358,946.62 642.17,691.192 				"/>				<polygon fill="#477BBE" points="594.358,946.62 444.7,955.247 480.734,780.511 				"/>				<polygon fill="#3D71B8" points="480.734,780.511 287.99,909.015 444.7,955.247 				"/>				<polyline fill="#477BBE" points="322.27,769.316 287.99,909.015 480.734,780.511 324.12,768.693 				"/>				<polygon fill="#4B7DC0" points="322.459,765.613 90.554,930.16 287.99,909.015 				"/>				<polygon fill="#386DB5" points="322.459,765.613 94.479,814.988 91.319,927.032 				"/>				<polyline fill="#3664AF" points="97.831,813.473 26.689,594.54 -138.288,797.746 97.831,813.473 				"/>				<polygon fill="#3F6DB5" points="26.689,594.54 -138.288,797.746 -140.106,585.349 				"/>				<polygon fill="#375FAC" points="-144.99,472.516 -415.643,572.08 -140.106,585.349 				"/>				<polygon fill="#5486C5" points="4088.778,779.051 4252.544,696.434 4153.123,600.765 				"/>				<polygon fill="#4B83C4" points="4252.544,696.434 4088.778,779.051 4196.816,949.263 				"/>				<polygon fill="#427BBE" points="4088.778,779.051 4049.011,954.112 3899.641,912.055 				"/>				<polygon fill="#4782C4" points="4088.778,779.051 4049.011,954.112 4195.189,945.208 				"/>				<polygon fill="#4B89C8" points="4049.011,954.112 3898.778,1143.115 3899.641,912.055 				"/>				<polygon fill="#4986C6" points="3899.641,912.055 3650.82,1144.711 3898.778,1143.115 				"/>				<polygon fill="#548DCA" points="3899.641,912.055 3701.854,934.739 3650.82,1144.711 				"/>				<polygon fill="#548CC9" points="3699.27,937.141 3650.82,1141.488 3417.51,1116.434 				"/>				<polygon fill="#5894CF" points="3417.51,1116.434 3424.658,1265.068 3650.82,1141.488 				"/>				<polygon fill="#4E8FCC" points="3650.82,1141.488 3704.949,1329.699 3898.778,1143.115 				"/>				<polygon fill="#4F8BC9" points="4203.295,944.419 4049.011,954.112 3898.778,1143.115 				"/>				<polygon fill="#4182C4" points="4203.295,944.419 4149.166,1135.84 3898.778,1143.115 				"/>				<polyline fill="#4E90CD" points="4149.166,1133.413 3898.778,1143.115 3939.154,1344.222 4149.166,1135.84 				"/>				<path fill="#4E90CD" d="M4203.295,941.18"/>				<polygon fill="#4887C6" points="4203.295,944.419 4154.018,1131.801 4282.418,1043.767 				"/>				<polygon fill="#417BBF" points="4282.418,1043.767 4203.295,944.419 4252.544,696.434 				"/>				<path fill="#3C81C3" d="M4086.96,1309.496c0,0-146.976,36.353-144.584,36.353c2.46,0,209.216-204.36,209.216-204.36					L4086.96,1309.496z"/>				<polygon fill="#408DCC" points="3942.376,1345.849 3870.533,1498.49 3712.196,1494.469 				"/>				<polygon fill="#4A91CE" points="3942.376,1345.849 3704.949,1329.699 3712.196,1494.469 				"/>				<polygon fill="#5395D0" points="3898.778,1143.115 3704.949,1329.699 3940.781,1348.274 				"/>				<polygon fill="#4D8CCA" points="3653.212,1140.705 3424.658,1265.068 3704.949,1329.699 				"/>				<polygon fill="#5B98D2" points="3704.949,1329.699 3411.732,1467.005 3424.658,1265.068 				"/>				<polygon fill="#5697D1" points="3704.949,1329.699 3712.196,1494.469 3411.732,1467.005 				"/>				<polygon fill="#5DA1D7" points="3712.196,1494.469 3473.906,1676.218 3411.732,1467.005 				"/>				<polygon fill="#569ED6" points="3712.196,1494.469 3691.192,1667.33 3473.906,1676.218 				"/>				<polygon fill="#579DD5" points="3712.196,1494.469 3691.192,1667.33 3868.107,1501.729 				"/>				<polygon fill="#56A0D7" points="3868.107,1501.729 3880.205,1601.088 3691.192,1667.33 				"/>				<polygon fill="#559AD4" points="3944.006,1348.274 4137.069,1413.704 3868.107,1501.729 				"/>				<polygon fill="#4291CE" points="4137.069,1413.704 3880.205,1601.088 3868.107,1501.729 				"/>				<polygon fill="#4C95D0" points="4137.069,1413.704 4086.96,1309.496 3940.781,1348.274 				"/>				<polygon fill="#4B98D2" points="4137.069,1413.704 3880.205,1601.088 4144.314,1664.904 				"/>				<polygon fill="#469AD4" points="3880.205,1601.088 3929.483,1776.373 4144.314,1664.904 				"/>				<polygon fill="#50A3DA" points="3929.483,1776.373 3708.972,2008.996 3880.205,1601.088 				"/>				<polygon fill="#558AC8" points="3179.636,855.706 3226.775,974.269 3076.385,1051.618 				"/>				<polygon fill="#4D88C7" points="3221.062,976.966 3076.385,1051.618 3215.732,1088.02 				"/>				<polygon fill="#6699D1" points="3076.385,1051.618 2954.782,1116.527 3097.289,1209.98 				"/>				<polygon fill="#6598D0" points="2954.782,1116.527 3097.289,1209.98 2882.267,1310.23 				"/>				<polygon fill="#568FCC" points="2954.782,1116.527 2737.779,1343.392 2882.267,1310.23 				"/>				<polygon fill="#6398D1" points="2696.098,1139.381 2737.779,1343.392 2954.782,1116.527 				"/>				<polygon fill="#6A9DD4" points="2696.098,1139.381 2492.344,1328.2 2737.779,1343.392 				"/>				<polygon fill="#6396CF" points="2696.098,1139.381 2450.851,1145.668 2492.344,1328.2 				"/>				<polygon fill="#6195CF" points="2450.851,1145.668 2222.679,1256.292 2492.344,1328.2 				"/>				<polyline fill="#6A9AD1" points="2219.968,1106.874 2222.679,1256.292 2454.999,1146.354 2219.968,1106.874 				"/>				<polyline fill="#6697D0" points="2219.968,1106.874 2051.926,1281.202 2222.679,1256.292 2219.968,1106.874 				"/>				<polyline fill="#6C9BD2" points="2004.211,1086.91 2051.926,1281.202 2219.968,1106.874 2004.211,1086.91 				"/>				<polygon fill="#6298D1" points="2222.679,1256.292 2066.447,1476.164 2051.926,1281.202 				"/>				<polygon fill="#5D97D1" points="2051.926,1281.202 1847.277,1385.586 2066.447,1476.164 				"/>				<polygon fill="#6DA1D6" points="1894.29,1203.773 1849.351,1382.139 2056.074,1281.202 				"/>				<polyline fill="#6B99D1" points="2004.211,1086.91 1894.29,1203.773 1878.394,1047.509 2004.211,1086.91 				"/>				<polygon fill="#6D9CD2" points="1742.877,1129.104 1894.29,1203.773 1878.394,1047.509 				"/>				<polygon fill="#6799D1" points="1742.877,1129.104 1535.452,1337.201 1494.662,1138.791 				"/>				<polygon fill="#699CD3" points="1494.662,1138.791 1294.864,1322.679 1536.824,1341.35 				"/>				<polygon fill="#5C94CE" points="1494.662,1138.791 1251.967,1145.668 1294.864,1322.679 				"/>				<polyline fill="#578ECA" points="1493.066,910.379 1251.967,1145.668 1494.662,1138.791 1493.066,910.379 				"/>				<polyline fill="#6292CC" points="1292.95,929.489 1251.967,1145.668 1495.873,909.55 1292.95,929.489 				"/>				<polyline fill="#4D7FC1" points="1292.95,929.489 1018.274,927.901 1011.38,1115.954 1292.95,929.489 				"/>				<polyline fill="#5A8ECA" points="1292.95,929.489 1011.38,1115.954 1251.967,1145.668 1292.95,929.489 				"/>				<polyline fill="#5D8AC7" points="1298.119,814.15 1066.182,794.745 1018.625,925.172 1298.119,814.15 				"/>				<polyline fill="#5E8ECA" points="1298.119,814.15 1018.274,927.901 1292.95,929.489 1298.119,814.15 				"/>				<polyline fill="#5D8ECA" points="1066.182,794.745 816.656,983.221 1018.274,927.901 1066.182,794.745 				"/>				<polygon fill="#4982C3" points="1018.274,927.901 799.614,1088.458 816.656,983.221 				"/>				<polygon fill="#5689C7" points="1018.274,927.901 799.614,1088.458 1011.38,1115.954 				"/>				<polygon fill="#5084C4" points="818.221,979.358 772.229,858.075 1066.182,794.745 				"/>				<polyline fill="#5585C4" points="879.438,766.54 772.229,858.075 1066.182,794.745 879.438,766.54 				"/>				<polygon fill="#4A7FC1" points="772.229,858.075 672.713,1057.89 818.221,979.358 				"/>				<polygon fill="#467CBF" points="816.656,983.221 675.043,1058.28 799.614,1088.458 				"/>				<polygon fill="#4E85C5" points="672.713,1057.89 540.418,1132.566 594.358,946.62 				"/>				<polygon fill="#447DC0" points="594.358,946.62 293.576,1138.743 540.418,1132.566 				"/>				<polygon fill="#4A82C3" points="594.358,946.62 444.7,955.247 296.671,1137.977 				"/>				<polygon fill="#417DC0" points="444.7,955.247 296.671,1137.977 287.99,909.015 				"/>				<polygon fill="#3E77BC" points="287.99,909.015 46.733,1143.371 293.576,1138.743 				"/>				<polygon fill="#477DC0" points="287.99,909.015 90.554,930.16 46.733,1143.371 				"/>				<polyline fill="#4478BC" points="97.831,813.473 90.554,930.16 -186.195,930.575 97.831,813.473 				"/>				<polyline fill="#4474BA" points="97.831,813.473 -138.288,797.746 -186.195,930.575 97.831,813.473 				"/>				<polygon fill="#6196CF" points="3212.316,1088.354 3096.651,1207.49 3076.385,1051.618 				"/>				<polygon fill="#4A8FCC" points="4282.418,1043.767 4154.018,1131.801 4286.438,1218.519 				"/>				<polygon fill="#4B90CD" points="4154.018,1131.801 4089.002,1307.071 4286.438,1218.519 				"/>				<polygon fill="#468FCD" points="4286.438,1218.519 4137.069,1413.704 4086.96,1309.496 				"/>				<polygon fill="#3C86C7" points="4134.451,1412.842 4284.875,1379.139 4286.438,1218.519 				"/>				<polygon fill="#439BD5" points="4144.314,1664.904 3929.483,1776.373 3928.366,1978.564 				"/>				<polygon fill="#5AABDC" points="3929.483,1776.373 3928.366,1978.564 3708.972,2011.453 				"/>				<polygon fill="#5BA7DC" points="3880.205,1601.088 3630.647,1801.476 3708.972,2011.453 				"/>				<polygon fill="#579FD7" points="3691.192,1667.33 3630.647,1801.476 3880.205,1601.088 				"/>				<polygon fill="#65AADD" points="3691.192,1667.33 3472.342,1786.569 3630.647,1801.476 				"/>				<polyline fill="#53A2D9" points="3688.609,1668.256 3473.906,1676.218 3472.342,1786.569 3691.192,1667.33 				"/>				<polygon fill="#52A1D8" points="3467.649,1679.251 3202.009,1777.936 3472.342,1786.569 				"/>				<polygon fill="#5AA0D7" points="3411.732,1467.005 3243.531,1673.744 3473.906,1676.218 				"/>				<polygon fill="#5599D3" points="3411.732,1467.005 3267.054,1479.438 3246.691,1669.835 				"/>				<polygon fill="#5999D2" points="3424.658,1265.068 3267.054,1479.438 3411.732,1467.005 				"/>				<polygon fill="#5293CF" points="3424.658,1265.068 3261.563,1278.855 3268.649,1475.525 				"/>				<polygon fill="#5092CE" points="3261.563,1278.855 3050.819,1381.484 3267.054,1479.438 				"/>				<polygon fill="#60A2D8" points="3267.054,1479.438 3115.834,1619.693 3246.691,1669.835 				"/>				<polygon fill="#63A3D8" points="3267.054,1479.438 3039.84,1541.354 3115.834,1619.693 				"/>				<polygon fill="#5F9DD4" points="3040.604,1537.412 2929.344,1428.497 3267.054,1479.438 				"/>				<polygon fill="#649DD4" points="3267.054,1479.438 3050.819,1381.484 2938.76,1436.349 				"/>				<polygon fill="#5392CE" points="3097.289,1209.98 3050.819,1381.484 2938.76,1436.349 				"/>				<polygon fill="#6099D2" points="2939.557,1432.423 2882.267,1310.23 3097.289,1209.98 				"/>				<polygon fill="#67A0D6" points="2938.76,1435.535 2737.779,1343.392 2882.267,1310.23 				"/>				<polygon fill="#6BA3D7" points="2737.779,1343.392 2669.225,1500.582 2938.76,1435.535 				"/>				<polygon fill="#5A97D1" points="2669.225,1500.582 2507.023,1493.527 2737.779,1343.392 				"/>				<polygon fill="#619BD3" points="2737.779,1343.392 2492.344,1328.2 2507.023,1493.527 				"/>				<polygon fill="#5593CE" points="3417.51,1116.434 3259.33,1276.669 3424.658,1265.068 				"/>				<polygon fill="#5D97D1" points="3259.33,1276.669 3215.732,1088.02 3417.51,1116.434 				"/>				<polygon fill="#6098D1" points="3215.732,1088.02 3097.45,1205.352 3261.563,1278.855 				"/>				<polygon fill="#6399D1" points="3096.651,1207.49 3050.819,1381.484 3263.193,1276.017 				"/>				<polyline fill="#5E9ED6" points="2938.76,1435.535 3039.84,1541.354 2942.621,1663.356 2938.791,1438.52 				"/>				<path fill="#649DD4" d="M2679.917,1597.846"/>				<polygon fill="#64A1D7" points="2933.654,1441.121 2679.917,1597.846 2942.844,1661.489 				"/>				<polygon fill="#5B9BD4" points="2669.225,1500.582 2679.917,1597.846 2933.654,1441.121 				"/>				<polygon fill="#67A0D6" points="2488.479,1326.763 2207.774,1473.867 2507.023,1493.527 				"/>				<polygon fill="#699FD5" points="2220.605,1258.032 2210.327,1471.298 2492.344,1328.2 				"/>				<polygon fill="#699DD4" points="2218.02,1258.654 2066.447,1476.164 2213.551,1473.867 				"/>				<polygon fill="#689FD5" points="2210.327,1471.298 2044.105,1670.075 2066.447,1476.164 				"/>				<polygon fill="#6CA6DA" points="2213.551,1473.867 2044.586,1669.804 2270.074,1675.58 				"/>				<polygon fill="#6DA3D7" points="2213.551,1473.867 2267.49,1674.941 2509.034,1493.798 				"/>				<polygon fill="#6AA5D9" points="2507.023,1493.527 2489.757,1669.804 2267.011,1675.229 				"/>				<polygon fill="#6BA5D9" points="2669.225,1500.582 2509.034,1493.798 2488.479,1665.94 				"/>				<polygon fill="#6FA8DB" points="2669.225,1500.582 2679.917,1597.846 2488.479,1665.94 				"/>				<polygon fill="#62A2D8" points="2679.917,1597.846 2725.525,1772.591 2944.313,1662.127 				"/>				<polygon fill="#6CA9DC" points="2942.621,1663.356 3115.834,1619.693 3039.84,1541.354 				"/>				<polygon fill="#61A4D9" points="2942.621,1663.356 2720.386,1976.218 2725.525,1772.591 				"/>				<polygon fill="#6AA8DB" points="2725.525,1772.591 2501.949,2018.588 2679.917,1597.846 				"/>				<polyline fill="#71ACDD" points="2679.533,1598.789 2430.648,1799.145 2501.949,2018.827 2679.757,1598.995 				"/>				<polygon fill="#6AA8DB" points="2681.705,1597.065 2485.928,1669.149 2430.648,1799.56 				"/>				<polygon fill="#75B0E0" points="2488.479,1665.94 2430.68,1798.905 2263.021,1791.215 				"/>				<polygon fill="#71AEDF" points="2261.842,1791.182 2256.605,2003.203 2431.096,1799.352 				"/>				<polygon fill="#62A8DC" points="2431.287,1798.938 2256.605,2003.203 2501.949,2018.588 				"/>				<polygon fill="#67AEE0" points="2501.949,2018.588 2499.428,2133.598 2720.386,1976.218 				"/>				<polygon fill="#73B3E2" points="2720.386,1976.218 2725.525,1772.591 2501.949,2018.588 				"/>				<polygon fill="#78B9E6" points="2501.949,2018.588 2256.605,2003.203 2499.428,2133.598 				"/>				<polygon fill="#79BAE1" points="2254.564,2002.07 2223.158,2131.652 2499.428,2133.598 				"/>				<polygon fill="#6CAEDF" points="2262.288,1790.767 2076.691,1965.94 2256.605,2003.203 				"/>				<polygon fill="#71AFDF" points="2262.288,1791.613 1996.391,1775.797 2077.587,1966.421 				"/>				<polygon fill="#68A5D9" points="2266.563,1677.384 2000.251,1775.797 2261.074,1792.49 				"/>				<polygon fill="#69A7DB" points="2267.49,1674.941 2261.074,1792.49 2488.479,1665.94 				"/>				<polyline fill="#6BA6DA" points="2266.852,1676.873 2044.586,1669.804 1996.391,1775.797 2267.872,1676.936 				"/>				<polygon fill="#74AEDE" points="2044.586,1669.804 1858.927,1779.005 1996.391,1775.797 				"/>				<polygon fill="#5E9ED6" points="2045.383,1669.228 1907.757,1615.209 1858.927,1779.005 				"/>				<polygon fill="#6BA5D9" points="2066.447,1476.164 1907.757,1615.209 2044.586,1669.804 				"/>				<polygon fill="#6EA5D9" points="2066.447,1476.164 1837.096,1536.185 1907.757,1615.209 				"/>				<polygon fill="#75ABDC" points="1907.757,1615.209 1741.728,1655.426 1837.096,1536.185 				"/>				<polygon fill="#68A4D9" points="1907.757,1615.209 1741.728,1655.426 1858.927,1779.005 				"/>				<polygon fill="#649FD6" points="1837.096,1536.185 1738.505,1420.917 1741.728,1655.426 				"/>				<polygon fill="#6AA0D6" points="1740.355,1421.859 2066.447,1476.164 1837.096,1536.185 				"/>				<polygon fill="#6AA0D6" points="2066.447,1476.164 1847.277,1385.586 1744.919,1425.48 				"/>				<polygon fill="#5D95CF" points="1894.29,1203.773 1848.681,1383.911 1741.281,1427.333 				"/>				<polygon fill="#679AD1" points="1741.728,1425.051 1677.735,1311.698 1894.29,1203.773 				"/>				<polyline fill="#6E9FD4" points="1745.398,1131.146 1677.735,1311.698 1894.29,1203.773 1745.398,1131.146 				"/>				<polyline fill="#6C9AD1" points="2001.688,1086.384 1894.29,1203.773 2056.074,1281.202 2001.688,1086.384 				"/>				<polyline fill="#5991CD" points="1745.845,1129.327 1678.214,1309.862 1535.132,1339.578 1745.845,1129.327 				"/>				<polygon fill="#4074BA" points="4153.123,600.765 4260.969,572.646 4156.891,449.639 				"/>				<polygon fill="#4478BC" points="4153.123,600.765 4252.544,696.434 4260.969,572.646 				"/>				<polygon fill="#4994D0" points="4284.875,1379.139 4137.069,1413.704 4270.927,1548.888 				"/>				<polygon fill="#4394D0" points="4137.069,1413.704 4144.027,1663.213 4270.927,1548.888 				"/>				<polygon fill="#4599D4" points="4144.027,1663.213 4268.469,1633.083 4270.927,1548.888 				"/>				<polygon fill="#5EA2D8" points="2938.122,1661.456 3064.799,1771.408 3115.834,1619.693 				"/>				<polygon fill="#4E99D3" points="3115.834,1619.693 3243.531,1673.744 3064.799,1771.408 				"/>				<polygon fill="#5EA3D9" points="3064.799,1771.408 2942.621,1663.356 2947.219,1803.74 				"/>				<polygon fill="#6DAADC" points="2947.762,1804.093 2720.386,1976.218 2942.621,1663.356 				"/>				<polygon fill="#63A7D9" points="2947.219,1803.74 3048.14,1897.799 3064.799,1771.408 				"/>				<polygon fill="#67A7DA" points="3064.799,1771.408 3202.009,1777.936 3243.531,1673.744 				"/>				<polygon fill="#5BA3D9" points="3473.906,1676.218 3243.531,1673.744 3202.009,1777.936 				"/>				<polygon fill="#63A9DD" points="3202.009,1777.936 3049.128,1893.873 3064.799,1771.408 				"/>				<polygon fill="#73B3E2" points="3049.128,1893.873 2882.523,1977.176 2947.219,1803.74 				"/>				<polygon fill="#66AADD" points="2947.219,1803.74 2882.523,1977.176 2724.791,1977.176 				"/>				<polygon fill="#6BB0E1" points="3049.128,1893.873 3276.438,1962.479 3202.009,1777.936 				"/>				<polygon fill="#6BB0E1" points="3202.009,1777.936 3276.438,1962.479 3472.342,1786.569 				"/>				<polygon fill="#5BA7DC" points="3630.647,1801.476 3472.405,1783.171 3470.46,1995.799 				"/>				<polygon fill="#5BA7DC" points="3472.342,1786.569 3281.321,1959.527 3470.46,1995.799 				"/>				<polygon fill="#4B9FD8" points="3630.647,1801.476 3470.46,1995.799 3708.972,2008.996 				"/>				<polygon fill="#4B9FD8" points="3928.016,1975.195 3704.631,2132.959 3708.972,2008.996 				"/>				<polygon fill="#53A4DB" points="3928.366,1978.564 4150.442,1805.703 4145.559,1659.719 				"/>				<polygon fill="#4AA7DD" points="4150.442,1805.703 4087.725,1975.195 3928.016,1975.195 				"/>				<polygon fill="#5CACDC" points="4087.725,1975.195 3893.737,2114.354 3928.016,1975.195 				"/>				<polygon fill="#5CACDC" points="3893.737,2114.354 3704.631,2132.959 3928.016,1975.195 				"/>				<polygon fill="#46A4D9" points="4087.725,1975.195 4052.49,2154.52 3893.737,2114.354 				"/>				<polygon fill="#64B3E3" points="3470.46,1995.799 3704.631,2132.959 3708.972,2008.996 				"/>				<polygon fill="#67B4E1" points="3704.631,2132.959 3424.372,2129.033 3470.46,1995.799 				"/>				<polygon fill="#6CB6E5" points="3470.46,1995.799 3216.658,2185.894 3424.372,2129.033 				"/>				<polygon fill="#3F97D3" points="4144.027,1663.213 4303.29,1792.969 4150.442,1805.703 				"/>				<polygon fill="#4397D3" points="4145.559,1659.719 4289.566,1627.387 4303.29,1792.969 				"/>				<polygon fill="#4397D3" points="4153.38,1806.694 4267.801,1905.667 4303.29,1792.969 				"/>				<polygon fill="#58AADD" points="4267.801,1905.667 4087.725,1975.195 4150.442,1805.703 				"/>				<polygon fill="#56AADB" points="4087.725,1975.195 4201.414,2147.657 4267.801,1905.667 				"/>				<polygon fill="#53ACDC" points="4052.49,2154.52 4201.414,2147.657 4087.725,1975.195 				"/>				<polygon fill="#54ABDC" points="4052.49,2154.52 3900.598,2336.78 3893.737,2114.354 				"/>				<polygon fill="#5DB4DF" points="4052.49,2154.52 4206.298,2142.76 3903.535,2332.854 				"/>				<polygon fill="#5AAFDD" points="3893.737,2114.354 3658.575,2337.753 3900.598,2336.78 				"/>				<polygon fill="#62B4E0" points="3893.737,2114.354 3708.557,2130.025 3658.575,2337.753 				"/>				<polygon fill="#69B3E2" points="3470.46,1995.799 3174.528,2057.525 3216.658,2185.894 				"/>				<polygon fill="#6AB4E2" points="3470.46,1995.799 3281.321,1959.527 3174.528,2057.525 				"/>				<polygon fill="#71B5E3" points="3280.331,1959.527 3174.528,2057.525 3049.128,1893.873 				"/>				<polygon fill="#6EB5E1" points="3174.528,2057.525 3074.598,2256.43 3046.541,1890.825 				"/>				<polygon fill="#65B2DF" points="3044.212,1895.836 2992.284,2133.951 3074.598,2256.43 				"/>				<polygon fill="#5AAEDE" points="3424.372,2129.033 3422.426,2312.253 3704.631,2132.959 				"/>				<path fill="#67B8E0" d="M3423.414,2132.959l-226.353,155.819c0,0,225.364,27.431,225.364,23.475					c0-3.911,1.946-183.22,1.946-183.22"/>				<polygon fill="#65B6E2" points="3658.575,2337.753 3422.426,2312.253 3704.631,2132.959 				"/>				<polygon fill="#5C94CE" points="1251.967,1145.668 1022.965,1251.663 1011.38,1115.954 				"/>				<polygon fill="#5691CD" points="1011.38,1115.954 858.373,1267.974 1022.965,1251.663 				"/>			<polygon fill="#5A91CC" points="1011.827,1112.795 802.645,1087.094 858.373,1267.974 				"/>			<polygon fill="#548ECB" points="799.614,1088.458 696.364,1205.4 672.713,1057.89 				"/>				<polygon fill="#558ECB" points="672.713,1057.89 540.418,1132.566 697.194,1201.107 				"/>				<polygon fill="#518FCC" points="540.418,1132.566 470.872,1303.974 700.64,1201.969 				"/>				<polygon fill="#407EC1" points="540.323,1129.951 324.28,1345.976 470.872,1303.974 				"/>				<polygon fill="#4988C7" points="328.556,1342.562 293.576,1138.743 540.418,1132.566 				"/>				<polygon fill="#4A8AC9" points="296.671,1137.977 91.129,1322.837 328.556,1342.562 				"/>				<polygon fill="#4080C2" points="299.417,1135.933 46.733,1143.371 91.129,1322.837 				"/>				<polygon fill="#3F77BC" points="90.554,930.16 -203.781,1109.476 46.733,1143.371 				"/>				<polygon fill="#376EB6" points="90.554,930.16 -186.195,930.575 -203.813,1111.949 				"/>				<polygon fill="#3969B3" points="-140.106,585.349 -331.543,762.158 -138.288,797.746 				"/>				<polygon fill="#3969B3" points="-135.223,795.615 -382.131,841.902 -383.823,978.217 				"/>				<polygon fill="#4278BC" points="-138.288,797.746 -386.407,980.778 -186.195,930.575 				"/>				<polygon fill="#3C6DB5" points="-183.227,930.199 -386.407,980.778 -415.547,1095.67 				"/>				<polygon fill="#3F74BA" points="-186.195,930.575 -203.813,1111.949 -415.547,1095.67 				"/>				<polygon fill="#4272B8" points="-138.288,797.746 -327.234,759.605 -382.131,841.902 				"/>				<polygon fill="#548FCB" points="800.188,1085.944 694.48,1202.847 858.373,1267.974 				"/>				<polygon fill="#5593CE" points="700.64,1201.969 645.711,1379.075 858.373,1267.974 				"/>				<polygon fill="#4488C8" points="700.354,1199.319 645.711,1379.075 519.991,1415.475 				"/>				<polygon fill="#5494CF" points="519.991,1415.475 324.28,1345.976 470.075,1301.518 				"/>				<polygon fill="#5194CF" points="324.28,1345.976 262.744,1499.464 519.991,1415.475 				"/>				<polygon fill="#4887C7" points="645.711,1379.075 858.341,1478.335 858.373,1267.974 				"/>				<polygon fill="#518ECB" points="858.341,1478.335 1025.168,1252.174 858.373,1267.974 				"/>				<path fill="#578FCB" d="M1022.965,1251.663c0,0,270.75,73.95,271.899,71.016c1.116-2.969-42.897-177.011-42.897-177.011					L1022.965,1251.663z"/>				<polygon fill="#5E97D1" points="1022.965,1251.663 1012.242,1468.33 1294.864,1322.679 				"/>				<polygon fill="#5C97D1" points="1022.965,1251.663 857.158,1476.548 1012.242,1468.33 				"/>				<polygon fill="#5798D2" points="1014.029,1465.999 846.02,1670.408 857.158,1476.548 				"/>				<polygon fill="#579BD4" points="858.341,1478.335 706.226,1614.604 846.02,1670.408 				"/>				<polygon fill="#61A0D7" points="1012.242,1468.33 1068.639,1673.329 846.02,1670.408 				"/>				<polygon fill="#67A1D6" points="1014.029,1465.999 1311.236,1486.554 1067.458,1670.984 				"/>				<polygon fill="#629AD2" points="1294.864,1322.679 1014.029,1465.999 1311.236,1486.554 				"/>				<polygon fill="#5E99D2" points="1292.246,1322.679 1311.014,1487.128 1534.237,1341.35 				"/>				<polygon fill="#71B5E4" points="2884.629,1976.809 2991.742,2132.482 3046.637,1894.465 				"/>				<polygon fill="#6DB5E2" points="2882.523,1977.176 2853.127,2159.036 2992.284,2133.951 				"/>				<polygon fill="#66B1DF" points="2884.629,1976.809 2693.863,2110.891 2853.127,2159.036 				"/>				<polygon fill="#73B5E2" points="2722.204,1976.809 2693.863,2110.891 2884.629,1976.809 				"/>				<polygon fill="#7BBBE1" points="2722.204,1976.809 2499.428,2133.598 2693.417,2112.23 				"/>				<polygon fill="#7ABCE3" points="2498.12,2134.733 2469.332,2327.316 2692.971,2112.679 				"/>				<polygon fill="#69A2D7" points="1741.728,1655.426 1475.415,1591.226 1741.281,1427.333 				"/>				<polygon fill="#5E9BD3" points="1478.862,1589.5 1473.691,1499.065 1744.919,1425.48 				"/>				<polygon fill="#6CA2D7" points="1469.385,1500.772 1535.452,1337.201 1744.919,1425.48 				"/>				<polygon fill="#6E9FD5" points="1678.214,1309.862 1532.26,1336.243 1744.919,1425.48 				"/>				<polygon fill="#5E9AD2" points="1471.107,1499.91 1535.452,1337.201 1311.014,1487.128 				"/>				<polygon fill="#6EA6DA" points="1311.014,1487.128 1478.862,1589.5 1473.691,1499.065 				"/>				<polygon fill="#6AA5D9" points="1311.014,1487.128 1296.237,1661.871 1478.862,1589.5 				"/>				<polygon fill="#69A3D8" points="1311.014,1487.128 1068.639,1673.329 1296.237,1661.871 				"/>				<polygon fill="#5697D1" points="645.711,1379.075 519.991,1415.475 854.319,1477.522 				"/>				<polygon fill="#68A4D9" points="1743.611,1654.674 1524.536,1768.299 1478.862,1589.5 				"/>				<polygon fill="#6DA9DC" points="1524.536,1768.299 1300.417,2009.411 1478.862,1589.5 				"/>				<polygon fill="#65A5DA" points="1741.728,1655.426 1523.579,1970.601 1524.536,1768.299 				"/>				<polygon fill="#72B1E1" points="1743.611,1654.674 1744.792,1806.31 1523.579,1970.601 				"/>				<polygon fill="#76B4E2" points="1524.536,1768.299 1523.579,1970.601 1300.417,2009.411 				"/>				<polygon fill="#5FA0D7" points="1296.237,1661.871 1066.404,1782.772 1067.458,1670.984 				"/>				<polygon fill="#5FA0D7" points="1066.404,1672.182 815.125,1774.586 846.02,1670.408 				"/>				<polygon fill="#4F95D0" points="846.02,1670.408 664,1772.926 706.226,1614.604 				"/>				<polygon fill="#529BD4" points="706.226,1614.604 541.376,1659.59 664,1772.926 				"/>				<polygon fill="#5397D1" points="857.158,1476.548 635.53,1541.881 519.991,1415.475 				"/>				<polygon fill="#4D96D1" points="635.53,1541.881 538.631,1660.707 519.991,1415.475 				"/>				<polygon fill="#5F9FD6" points="541.376,1659.59 635.53,1541.881 708.332,1614.715 				"/>				<polygon fill="#5B9BD4" points="635.53,1541.881 708.332,1614.715 858.341,1478.335 				"/>				<polygon fill="#66A6DA" points="846.02,1670.408 663.809,1769.781 819.37,1774.249 				"/>				<polygon fill="#5A9FD6" points="1066.404,1672.182 819.37,1774.249 1066.404,1782.772 				"/>				<polygon fill="#71ACDD" points="1296.237,1661.871 1063.564,1783.171 1231.859,1792.73 				"/>				<polygon fill="#68A6DA" points="1478.862,1589.5 1231.859,1792.73 1293.682,1662.046 				"/>				<polygon fill="#72AEDE" points="1231.859,1792.73 1300.417,2009.411 1478.862,1589.5 				"/>				<polygon fill="#71AFDF" points="1996.391,1775.797 1851.584,1893.378 1858.927,1779.005 				"/>				<polygon fill="#6CAADD" points="1858.927,1779.005 1744.792,1806.31 1851.584,1893.378 				"/>				<polygon fill="#64A5DA" points="1858.927,1779.005 1744.792,1806.31 1743.611,1654.674 				"/>				<polygon fill="#7CB5E2" points="1744.792,1806.31 1680.99,1975.725 1851.584,1893.378 				"/>				<polygon fill="#79B2E1" points="2077.587,1966.006 1851.584,1893.378 1996.391,1775.797 				"/>				<polygon fill="#7DB8E3" points="1852.541,1894.257 1986.975,2060.908 2076.691,1965.94 				"/>				<polygon fill="#7CBBE3" points="1854.202,1895.357 1870.67,2259.589 1987.263,2060.671 				"/>				<polygon fill="#73B5E0" points="1870.67,2259.589 1795.57,2144.324 1854.267,1894.257 				"/>				<polygon fill="#6BADDF" points="1744.792,1806.31 1680.99,1975.725 1523.579,1970.601 				"/>				<polygon fill="#7CBBE3" points="1526.832,1968.463 1300.928,2132.466 1489.97,2117.306 				"/>				<polygon fill="#7BB7E3" points="1523.579,1970.601 1487.353,2117.306 1680.99,1975.725 				"/>				<polygon fill="#6EB3DF" points="1680.99,1975.725 1645.404,2156.164 1489.97,2117.306 				"/>				<polygon fill="#79B8E3" points="1680.99,1975.725 1796.241,2141.675 1854.202,1892.709 				"/>				<polygon fill="#76B7E3" points="1794.263,2138.402 1645.404,2156.164 1680.99,1975.725 				"/>				<polygon fill="#60A6DB" points="1229.817,1792.587 1067.107,1996.805 1300.417,2009.411 				"/>				<polygon fill="#6AABDD" points="1066.404,1782.772 1066.467,1999.422 1229.817,1792.587 				"/>				<polygon fill="#64AADD" points="1066.467,1780.762 874.14,1963.182 1067.107,1996.805 				"/>				<polygon fill="#67A9DC" points="821.445,1776.803 874.14,1963.182 1066.404,1782.772 				"/>				<polygon fill="#4D9CD5" points="664.032,1769.542 544.152,1802.498 541.376,1659.59 				"/>				<polygon fill="#5CA6DB" points="538.216,1658.25 321.535,1971.767 544.152,1802.498 				"/>				<polygon fill="#4A99D4" points="538.216,1658.25 323.513,1766.926 321.535,1971.767 				"/>				<polygon fill="#4A98D2" points="538.216,1658.25 276.755,1601.613 318.917,1768.889 				"/>				<polygon fill="#5297D2" points="523.12,1417.853 276.755,1601.613 538.631,1660.707 				"/>				<polygon fill="#3F8BCA" points="522.417,1415.875 262.744,1499.464 276.755,1601.613 				"/>				<polygon fill="#3983C5" points="328.556,1342.562 262.266,1502.161 96.298,1487.655 				"/>				<polygon fill="#3B83C5" points="328.556,1342.562 91.129,1322.837 96.298,1487.655 				"/>				<polygon fill="#4389C8" points="91.129,1322.837 -190.886,1459.359 96.298,1487.655 				"/>				<polygon fill="#4586C6" points="91.129,1322.837 -165.832,1251.887 -193.503,1463.958 				"/>				<polygon fill="#3F86C7" points="-165.832,1251.887 -342.363,1478.445 -193.503,1463.958 				"/>				<polygon fill="#488AC9" points="470.075,1301.518 519.991,1415.475 697.194,1201.107 				"/>				<polygon fill="#437EC1" points="50.627,1141.008 -165.832,1251.887 -204.163,1108.901 				"/>				<path fill="#3D7BBF" d="M50.627,1141.008l-216.459,110.879c0,0,255.046,72.467,256.961,70.95					C92.948,1321.306,50.627,1141.008,50.627,1141.008z"/>				<polygon fill="#3D79BD" points="-204.163,1108.901 -349.831,1276.781 -165.832,1251.887 				"/>				<path fill="#3B79BD" d="M-165.832,1251.887l-176.531,226.559l-7.467-201.664					C-349.831,1276.781-161.107,1251.791-165.832,1251.887z"/>				<polygon fill="#7AB9E3" points="2076.691,1965.94 1987.263,2060.671 2256.605,2003.203 				"/>				<polygon fill="#76B7E3" points="2254.117,2003.777 2021.764,2174.771 1987.263,2060.671 				"/>				<polygon fill="#7FBCE2" points="2254.117,2002.71 2021.764,2174.771 2223.158,2131.652 				"/>				<polygon fill="#76B8E2" points="1987.263,2060.671 1870.989,2256.366 2021.764,2174.771 				"/>				<polygon fill="#7EBEE3" points="1868.628,2253.398 1746.802,2333.206 1794.263,2138.402 				"/>				<polygon fill="#77B9E1" points="1794.263,2138.402 1496.13,2340.913 1746.802,2330.858 				"/>				<polygon fill="#6EB5E1" points="2501.503,2132.26 2228.488,2312.173 2223.158,2131.652 				"/>				<polygon fill="#74BAE2" points="2021.764,2174.771 2000.763,2291.746 2223.158,2131.652 				"/>				<polygon fill="#71B5E1" points="2021.764,2174.771 2000.763,2291.746 1870.989,2256.366 				"/>				<polygon fill="#79BBE3" points="1997.061,2291.746 2225.393,2314.662 2223.158,2131.652 				"/>				<polygon fill="#76BBE2" points="2501.503,2132.26 2471.725,2330.172 2225.393,2314.662 				"/>				<polygon fill="#54AFDC" points="4206.298,2142.76 4156.824,2331.051 3900.598,2336.78 				"/>				<polygon fill="#49AADC" points="4202.849,2139.84 4279.512,2251.676 4267.801,1905.667 				"/>				<polygon fill="#5AB2DD" points="4279.512,2251.676 4156.824,2331.051 4206.298,2142.76 				"/>				<polygon fill="#64B2E2" points="3216.658,2185.894 3074.598,2256.43 3174.528,2057.525 				"/>				<polygon fill="#72BCE4" points="3074.598,2256.43 2943.451,2337.883 2992.284,2133.951 				"/>				<polygon fill="#6AB7E1" points="2991.742,2135.643 2697.789,2334.688 2943.133,2336.077 				"/>				<polygon fill="#3983C5" points="-349.831,1475.145 -193.503,1463.958 -349.831,1657.914 				"/>				<polygon fill="#438ECC" points="-193.503,1463.958 -139.022,1666.452 -366.587,1668.59 				"/>				<polygon fill="#4691CE" points="-193.503,1463.958 96.298,1487.655 -139.022,1666.452 				"/>				<polygon fill="#4993CF" points="96.298,1487.655 81.457,1664.33 -139.022,1666.452 				"/>				<polygon fill="#4994D0" points="96.298,1487.655 262.744,1499.464 81.457,1664.33 				"/>				<polygon fill="#569CD5" points="262.744,1499.464 276.755,1601.613 81.457,1664.33 				"/>				<polygon fill="#4093D0" points="-139.022,1666.452 -134.043,1785.213 81.457,1664.33 				"/>				<polygon fill="#3A8ECC" points="-139.022,1666.452 -131.904,1781.639 -381.523,1781.639 				"/>				<polygon fill="#3C8ECD" points="-366.587,1668.59 -381.523,1781.639 -139.022,1666.452 				"/>				<polygon fill="#56A0D8" points="81.457,1664.33 -134.043,1785.213 25.986,1793.75 				"/>				<polygon fill="#4599D4" points="-131.904,1781.639 -350.214,1969.404 -381.523,1781.639 				"/>				<polygon fill="#439AD5" points="-350.214,1969.404 -133.34,1996.422 -131.904,1781.639 				"/>				<path fill="#499CD6" d="M-131.904,1781.639c-0.704,5.713-1.436,214.783-1.436,214.783L25.986,1793.75L-131.904,1781.639z"/>				<polygon fill="#3B98D3" points="25.986,1793.75 -134.043,1994.299 99.97,2017.758 				"/>				<polygon fill="#4C97D2" points="81.457,1664.33 23.114,1794.454 276.755,1601.613 				"/>				<polygon fill="#50A1D9" points="276.755,1601.613 99.97,2017.758 23.114,1794.454 				"/>				<polygon fill="#509DD6" points="99.235,2014.198 319.013,1766 276.755,1601.613 				"/>				<polygon fill="#54A0D8" points="667.384,1768.217 646.7,1900.958 544.152,1802.498 				"/>				<polygon fill="#5EA7DC" points="821.285,1774.188 646.7,1900.958 667.384,1768.217 				"/>				<polygon fill="#66ACDF" points="542.43,1802.209 481.788,1983.623 646.7,1900.958 				"/>				<polygon fill="#55A5DB" points="544.152,1802.498 485.012,1981.342 321.535,1971.767 				"/>				<polygon fill="#58A5DB" points="319.013,1766 97.895,2016.273 321.535,1971.767 				"/>				<polygon fill="#4BA2D9" points="-134.043,1994.299 -358.354,2167.24 -350.214,1969.404 				"/>				<polygon fill="#55ABDB" points="-133.34,1996.422 -182.108,2130.678 -358.354,2167.24 				"/>				<polygon fill="#58A8DD" points="-134.043,1994.299 -185.365,2134.556 99.235,2014.198 				"/>				<polygon fill="#5AABDF" points="99.235,2014.198 92.757,2135.211 -185.365,2134.556 				"/>				<polygon fill="#46A3DB" points="-185.365,2134.556 -190.471,2317.79 99.14,2133.248 				"/>				<polygon fill="#49A1D9" points="321.535,1971.767 99.14,2133.248 99.235,2014.198 				"/>				<polygon fill="#61B0E0" points="321.535,1971.767 296.383,2113.986 99.14,2133.248 				"/>				<polygon fill="#5FACDF" points="481.788,1983.623 291.726,2116.316 321.535,1971.767 				"/>				<polygon fill="#64AFE0" points="488.363,1981.42 601.156,2139.105 646.7,1900.958 				"/>				<polygon fill="#62ADDF" points="487.852,1980.878 444,2158.445 603.774,2141.227 				"/>				<polygon fill="#50A8DE" points="487.852,1980.878 444,2158.445 294.087,2112.486 				"/>				<polygon fill="#69AADD" points="821.445,1776.803 646.7,1900.958 874.14,1963.182 				"/>				<polygon fill="#6EB2E2" points="646.7,1900.958 786.208,2058.771 880.17,1962.797 				"/>				<polygon fill="#6BB3E3" points="646.7,1900.958 670.353,2250.046 786.208,2058.771 				"/>				<polygon fill="#5EAEE1" points="670.353,2246.615 601.156,2139.105 646.7,1900.958 				"/>				<polygon fill="#70B4E3" points="880.17,1962.797 1069.373,1999.119 790.325,2051.238 				"/>				<polygon fill="#6BB3E3" points="790.325,2051.238 823.934,2180.787 1067.107,1996.805 				"/>				<polygon fill="#65B1E2" points="823.934,2180.787 670.353,2246.615 790.325,2051.238 				"/>				<polyline fill="#76B6E4" points="1067.521,1997.635 1023.445,2130.104 823.934,2180.787 1067.107,1996.805 				"/>				<path fill="#64AADD" d="M1303.162,2007.353"/>				<polygon fill="#7AB9E3" points="1295.949,2132.864 1020.923,2130.039 1300.417,2009.411 				"/>				<polygon fill="#74B6E3" points="1300.417,2009.411 1069.757,1996.502 1020.923,2130.039 				"/>				<polygon fill="#68AEE0" points="1297.065,2135.163 1300.417,2009.411 1526.832,1968.463 				"/>				<polygon fill="#72B7E3" points="2693.863,2110.891 2696.993,2333.429 2853.127,2159.036 				"/>				<polygon fill="#7ABCE3" points="2853.031,2157.729 2993.435,2133.566 2696.64,2334.562 				"/>				<polygon fill="#51ABDB" points="-185.78,2136.967 -420.941,2298.928 -190.439,2315.3 				"/>				<polygon fill="#47A8DE" points="-182.108,2130.678 -358.354,2167.24 -420.941,2298.928 				"/>				<polygon fill="#6AB4E2" points="1295.949,2132.864 1011.284,2312.555 1020.923,2130.039 				"/>				<polygon fill="#71B8E1" points="1016.583,2131.285 803.636,2290.533 1011.284,2312.555 				"/>				<polygon fill="#6BB3E0" points="1023.445,2130.104 823.934,2180.787 815.955,2287.021 				"/>				<polygon fill="#60B0E2" points="823.934,2180.787 815.955,2287.021 670.353,2246.615 				"/>				<polygon fill="#7ABAE6" points="1295.949,2132.864 1489.97,2117.306 1255.063,2338.057 				"/>				<polygon fill="#74BAE2" points="1489.97,2117.306 1496.13,2335.439 1252.414,2343.355 				"/>				<polygon fill="#5CAFDE" points="294.087,2112.486 52.286,2337.883 99.14,2133.248 				"/>				<polygon fill="#57ADDE" points="99.14,2133.248 -190.471,2317.79 52.286,2337.883 				"/>				<polygon fill="#5AAEDE" points="294.087,2112.486 52.286,2337.883 294.564,2336.908 				"/>				<polygon fill="#60AFDE" points="296.383,2113.986 444,2158.445 294.564,2336.908 				"/>				<polygon fill="#64B4E1" points="603.774,2141.227 444,2158.445 294.564,2336.908 				"/>				<polygon fill="#5FAFDF" points="603.774,2141.227 552.865,2326.871 294.564,2336.908 				"/>				<polygon fill="#6EB6DE" points="601.156,2139.105 671.213,2243.633 552.865,2326.871 				"/>				<polygon fill="#60B8E4" points="858.084,2077.026 846.307,2373.324 505.279,2367.373 				"/>				<polygon fill="#7ABBE2" points="1011.284,2312.555 1258.065,2336.925 1298.949,2130.311 				"/>				<polygon fill="#7AB9E1" points="1489.97,2117.306 1496.13,2340.913 1645.404,2156.164 				"/>				<polygon fill="#7DBCE2" points="1645.404,2156.164 1498.396,2339.797 1794.263,2138.402 				"/>				<polygon fill="#62B3E1" points="3213.944,2184.665 3075.904,2254.068 3205.646,2287.262 				"/>				<polygon fill="#65B4E0" points="3427.436,2129.594 3216.658,2185.894 3204.146,2284.245 				"/>				<polygon fill="#6FBBE3" points="2695.619,2110.38 2470.798,2328.291 2696.993,2333.429 				"/>				<polyline fill="#3969B3" points="-377.536,767.943 -556.332,889.211 -546.055,790.54 -377.536,767.943 				"/>				<polyline fill="#3F6DB5" points="-415.643,572.08 -546.055,790.54 -717.702,804.935 -415.643,572.08 				"/>				<polyline fill="#4278BC" points="-415.643,572.08 -546.055,790.54 -327.234,759.605 -415.643,572.08 				"/>				<polygon fill="#4272B8" points="-554.959,887.384 -382.131,841.902 -377.056,766.188 				"/>				<polyline fill="#4278BC" points="-382.131,841.902 -603.186,1070.114 -554.959,887.384 -382.131,841.902 				"/>				<polyline fill="#3B79BD" points="-382.131,841.902 -603.79,1069.507 -383.823,978.217 -382.131,841.902 				"/>				<polyline fill="#6591CC" points="2265.064,792.455 2022.371,972.091 1979.857,851.397 2265.064,792.455 				"/>				<polyline fill="#5F8FCB" points="1878.394,1047.509 2022.371,972.091 1983.976,844.559 1878.394,1047.509 				"/>				<polyline fill="#6897D0" points="1878.394,1047.509 1745.398,1125.641 1794.772,939.177 1878.394,1047.509 				"/>				<polygon fill="#5F92CD" points="1502.673,1138.008 1745.398,1131.146 1794.772,939.177 				"/>				<polygon fill="#6897CF" points="1502.673,1138.008 1642.563,954.265 1794.772,939.177 				"/>				<polygon fill="#6291CC" points="1642.563,954.265 1493.066,910.379 1502.673,1138.008 				"/>				<polyline fill="#658FCA" points="1683.672,780.103 1642.563,954.265 1794.772,939.177 1683.672,780.103 				"/>				<polyline fill="#5785C4" points="1683.672,780.103 1493.066,910.379 1642.563,954.265 1683.672,780.103 				"/>				<polyline fill="#6D90CA" points="2432.371,593.631 2480.374,468.853 2267.809,588.133 				"/>				<line fill="#6D90CA" x1="2267.809" y1="588.133" x2="2432.371" y2="593.631"/>				<polyline fill="#6B96CE" points="2724.791,769.06 2695.141,906.676 2494.959,934.691 2724.791,769.06 				"/>				<polyline fill="#6892CC" points="2498.184,813.034 2265.064,792.455 2228.711,923.425 2498.184,813.034 				"/>				<polyline fill="#6B96CE" points="2498.184,813.034 2494.959,934.691 2228.711,923.425 2498.184,813.034 				"/>				<polyline fill="#5B8AC7" points="2228.711,923.425 2219.968,1106.874 2491.321,938.027 2228.711,923.425 				"/>				<polyline fill="#6594CE" points="2228.711,923.425 2001.688,1086.384 2219.968,1106.874 2228.711,923.425 				"/>				<polyline fill="#608DC9" points="2228.711,923.425 2022.306,973.726 2005.327,1082.761 2228.711,923.425 				"/>				<polyline fill="#568BC9" points="2022.306,973.726 1878.394,1047.509 2001.688,1086.384 2022.306,973.726 				"/>				<polygon fill="#5E84C3" points="2725.588,575.854 2946.77,451.099 2679.15,398.916 				"/>				<polygon fill="#6387C5" points="2943.674,451.099 2680.396,399.817 2931.451,212.3 				"/>				<polygon fill="#577FC0" points="3056.213,176.313 2931.451,212.3 3096.778,0.27 				"/>				<path fill="#6585C3" d="M3096.778,0.27c0,0-206.659,91.839-206.659,95.669c0,3.814,42.098,114.046,42.098,114.046L3096.778,0.27					z"/>				<polygon fill="#5D81C1" points="2931.451,212.3 2947.504,448.793 3047.786,333.224 				"/>				<polygon fill="#5C80C1" points="2675.034,292.642 2679.15,398.916 2931.451,212.3 				"/>				<polygon fill="#6C8EC8" points="2739.313,137.279 2675.034,292.642 2931.451,212.3 				"/>				<polygon fill="#5B7ABC" points="2948.271,-68.623 2739.313,137.279 2890.119,95.939 				"/>				<polygon fill="#6A88C5" points="2948.271,-68.623 2702.61,-64.809 2739.313,137.279 				"/>				<polygon fill="#708BC6" points="2699.513,-65.567 2491.321,120.108 2739.313,137.279 				"/>				<polygon fill="#6B8AC6" points="2948.271,-68.623 3096.778,0.27 2890.119,95.939 				"/>				<polygon fill="#708AC6" points="2948.271,-68.623 3066.906,-148.23 3096.778,0.27 				"/>				<polygon fill="#6B89C5" points="3066.906,-148.23 3223.072,-113.793 3096.778,0.27 				"/>				<polygon fill="#6887C5" points="3096.778,-5.109 3256.714,67.621 3223.072,-119.138 				"/>				<polygon fill="#6989C6" points="3096.778,0.27 3056.213,176.313 3256.714,72.983 				"/>				<polygon fill="#6888C5" points="3056.213,176.313 2931.451,212.3 3265.938,275.814 				"/>				<path fill="#5777BB" d="M3056.213,176.313l209.725,99.5l-9.224-199.783C3256.714,76.031,3066.172,179.361,3056.213,176.313z"/>				<polygon fill="#5A7CBE" points="3259.044,75.273 3424.372,50.77 3266.672,272.75 				"/>				<polygon fill="#5E84C3" points="3424.372,50.77 3417.478,259.743 3265.938,275.814 				"/>				<polygon fill="#6083C2" points="3424.372,50.77 3419.775,-89.296 3256.714,72.983 				"/>				<path fill="#6989C6" d="M3419.775-89.296c-7.66,1.548-196.703-24.497-196.703-24.497l33.642,186.776L3419.775-89.296z"/>				<path fill="#6084C3" d="M3424.372,50.77c6.094,0,275.536,70.424,275.536,70.424l-280.899,135.462L3424.372,50.77z"/>				<polygon fill="#597ABC" points="3424.372,50.77 3647.852,-60.979 3699.908,121.193 				"/>				<polygon fill="#6484C2" points="3647.852,-60.979 3419.775,-89.296 3424.372,50.77 				"/>				<polygon fill="#5B81C1" points="3697.609,120.436 3712.131,285.747 3405.987,262.8 				"/>				<polygon fill="#6786C3" points="2700.279,-64.809 2440.031,-63.268 2491.321,117.371 				"/>				<polyline fill="#6F89C5" points="2020.614,-112.261 1749.962,-75.508 1898.15,1.793 2020.614,-112.261 				"/>				<polygon fill="#5D82C1" points="1311.844,286.529 1472.957,400.743 1472.957,292.872 				"/>				<polyline fill="#6284C3" points="1314.908,287.296 1285.576,461.991 1472.957,400.743 1314.908,287.296 				"/>				<polyline fill="#5980C1" points="1314.908,287.296 1064.617,472.516 1287.363,457.204 1314.908,287.296 				"/>				<polygon fill="#5179BD" points="1066.916,469.451 1068,584.495 1287.363,457.204 				"/>				<polyline fill="#577FC0" points="1312.321,285.963 1009.146,262.44 1068.065,469.858 1312.321,285.963 				"/>				<path fill="#587DBE" d="M1292.885,121.018c0,0-291.048,142.539-284.919,141.015c6.128-1.532,303.207,23.522,303.207,23.522					L1292.885,121.018"/>				<polyline fill="#4F7BBE" points="1068,584.495 881.672,763.579 1066.182,794.745 1068,584.495 				"/>				<polygon fill="#4776BB" points="1067.649,471.997 800.634,577.745 1068,584.495 				"/>				<polygon fill="#4E79BD" points="1067.649,471.997 845.158,464.05 800.699,578.087 				"/>				<polygon fill="#537ABD" points="1007.965,262.033 845.254,464.017 1068.224,472.205 				"/>				<polygon fill="#4B71B7" points="1007.965,262.033 869.031,283.418 845.254,464.017 				"/>				<polygon fill="#4D76BB" points="869.031,283.418 710.694,405.314 845.254,464.017 				"/>				<polygon fill="#3B6AB3" points="845.254,464.017 658.669,570.316 710.694,405.314 				"/>				<polyline fill="#517DBF" points="800.634,577.745 658.669,570.316 845.254,464.017 800.634,577.745 				"/>				<polygon fill="#4F79BD" points="710.694,405.314 540.515,456.589 636.392,339.886 				"/>				<polygon fill="#5179BD" points="636.392,339.886 869.031,283.418 710.694,405.314 				"/>				<polygon fill="#4772B8" points="865.297,283.418 525.642,218.746 636.392,339.886 				"/>				<polygon fill="#5077BB" points="525.642,218.746 649.764,170.433 865.297,280.426 				"/>				<polygon fill="#416CB4" points="653.467,169.675 851.925,73.806 869.031,283.418 				"/>				<polygon fill="#4C71B7" points="869.031,283.418 1024.369,55.972 851.925,73.806 				"/>				<polygon fill="#5479BC" points="1024.369,55.972 1007.965,262.033 869.031,283.418 				"/>				<polyline fill="#5D7EBF" points="1024.369,56.115 1292.885,121.018 1005.06,261.858 1024.369,55.972 				"/>				<polygon fill="#4270B7" points="525.642,218.746 540.515,456.589 636.392,339.886 				"/>				<polygon fill="#4370B7" points="525.642,218.746 269.702,397.36 540.515,456.589 				"/>				<polygon fill="#3B68B2" points="525.642,218.746 269.191,296.009 271.776,395.78 				"/>				<path fill="#4A73B8" d="M528.291,216.616c-2.106-0.526-192.233-78.881-192.233-78.881l-66.866,158.274L528.291,216.616z"/>				<polygon fill="#4C75BA" points="336.058,137.735 470.968,104.15 525.642,218.746 				"/>				<polygon fill="#5377BB" points="851.925,73.806 698.79,1.905 649.764,170.433 				"/>				<polygon fill="#3F66B0" points="698.79,1.905 528.291,216.616 653.467,169.675 				"/>				<polygon fill="#476FB6" points="698.79,1.905 470.968,104.15 525.642,218.746 				"/>				<polygon fill="#5074B9" points="698.79,1.905 541.503,-68.839 470.968,104.15 				"/>				<polygon fill="#3D65AF" points="541.503,-68.839 336.058,137.735 470.968,104.15 				"/>				<polygon fill="#4A6EB5" points="336.058,137.735 291.022,-63.014 541.503,-68.839 				"/>				<polygon fill="#496EB5" points="291.022,-63.014 87.938,121.744 336.058,137.735 				"/>				<polygon fill="#4366B0" points="291.022,-63.014 33.041,-59.678 87.938,121.744 				"/>				<polygon fill="#3C62AD" points="87.938,121.744 -183.322,51.831 33.041,-59.678 				"/>				<polygon fill="#4468B1" points="-183.322,51.831 -187.503,259.895 87.938,121.744 				"/>				<polygon fill="#4267B1" points="-183.322,51.831 -185.844,-87.988 33.041,-59.678 				"/>				<polygon fill="#4066B0" points="336.058,137.735 103.8,285.691 87.938,121.744 				"/>				<polygon fill="#3A64AF" points="336.058,137.735 269.191,296.009 103.8,285.691 				"/>				<polygon fill="#4670B7" points="269.638,296.128 79.799,471.359 102.587,285.381 				"/>				<polygon fill="#4063AE" points="-183.322,51.831 -375.587,84.29 -190.824,-87.988 				"/>				<polygon fill="#3B61AD" points="-183.322,51.831 -348.969,274.05 -375.587,84.29 				"/>				<polygon fill="#3D63AE" points="-183.322,51.831 -348.969,274.05 -187.503,259.895 				"/>				<polygon fill="#4269B2" points="103.8,285.691 -187.503,259.895 87.938,121.744 				"/>				<polygon fill="#4974B9" points="271.776,395.78 78.937,471.997 269.191,296.009 				"/>				<polygon fill="#4372B8" points="710.694,405.314 540.515,456.589 658.669,570.316 				"/>				<polygon fill="#3E6EB6" points="540.515,456.589 324.312,569.487 269.702,397.36 				"/>				<polyline fill="#6480C0" points="2443.798,-60.875 2688.342,-311.78 2700.279,-64.809 2443.798,-60.875 				"/>				<polygon fill="#6480C0" points="3697.609,120.436 3908.545,-68.559 3647.852,-60.979 				"/>				<polygon fill="#5D83C2" points="3908.545,-68.559 3937.559,133.282 3697.609,120.436 				"/>				<polygon fill="#597FC0" points="3908.545,-68.559 4150.315,-73.051 3937.559,133.282 				"/>				<polygon fill="#5479BC" points="3937.559,133.282 3712.131,285.747 3695.057,119.741 				"/>				<polygon fill="#4D76BA" points="3937.559,133.282 3871.779,291.277 3712.131,285.747 				"/>				<polygon fill="#5982C2" points="3937.559,133.282 4134.867,210.017 3871.779,291.277 				"/>				<polygon fill="#5783C3" points="3937.559,133.282 4084.566,102.977 4134.867,210.017 				"/>				<polygon fill="#4872B8" points="4084.566,102.977 4150.315,-73.051 3937.559,133.282 				"/>				<polygon fill="#5980C1" points="4084.566,102.977 4267.801,21.087 4150.315,-73.051 				"/>				<polygon fill="#5179BD" points="4134.867,210.017 4084.566,102.977 4268.342,23.656 				"/>				<polygon fill="#4874B9" points="4134.867,210.017 3884.033,394.431 3871.779,291.277 				"/>				<polygon fill="#5B85C4" points="3884.033,394.431 3712.131,285.747 3871.779,291.277 				"/>				<polyline fill="#6484C2" points="2931.451,212.3 3047.786,333.224 3265.938,275.814 2931.451,212.3 				"/>				<polygon fill="#6689C6" points="3265.938,275.814 2944.855,449.991 3046.67,332.753 				"/>				<polygon fill="#668BC7" points="2944.855,449.991 3120.365,413.662 3265.938,275.814 				"/>				<polygon fill="#5D86C5" points="3120.365,413.662 3244.938,469.667 3265.938,275.814 				"/>				<polygon fill="#5078BC" points="3120.365,413.662 3061.735,575.782 3244.938,469.667 				"/>				<polygon fill="#5B85C4" points="3061.735,575.782 2944.855,449.991 3120.365,413.662 				"/>				<polygon fill="#587FC0" points="3061.735,575.782 2949.549,596.591 2944.855,449.991 				"/>				<polygon fill="#668ECA" points="2943.674,451.099 2949.549,596.591 2724.791,769.06 				"/>				<polygon fill="#5680C1" points="2943.674,451.099 2722.526,572.502 2724.791,769.06 				"/>				<polygon fill="#5D86C5" points="2949.549,596.591 2882.267,779.45 2724.791,769.06 				"/>				<polygon fill="#6793CD" points="2949.549,596.591 3046.86,685.064 2882.267,779.45 				"/>				<polygon fill="#5C83C2" points="3061.735,575.782 3046.86,685.064 2949.549,596.591 				"/>				<polygon fill="#4170B7" points="324.727,566.35 97.831,813.473 269.702,397.36 				"/>				<polygon fill="#587FC0" points="3265.938,275.814 3407.838,261.013 3244.938,469.667 				"/>				<polygon fill="#5983C3" points="3712.131,285.747 3685.129,468.31 3884.033,394.431 				"/>				<polygon fill="#6986C3" points="2440.031,-63.268 2478.556,-271.142 2218.913,-91.06 				"/>				<polygon fill="#6F87C3" points="2702.61,-64.809 3016.03,-287.603 2688.342,-311.78 				"/>				<polygon fill="#6280C0" points="2948.271,-68.623 3016.03,-287.603 2700.279,-64.809 				"/>				<polygon fill="#5380C1" points="3631.797,594.947 3685.129,468.31 3884.033,394.431 				"/>				<polygon fill="#4570B7" points="4268.342,23.656 4134.867,210.017 4259.085,178.229 				"/>				<polygon fill="#4F7BBE" points="4259.085,178.229 4249.318,334.197 4134.867,210.017 				"/>				<polygon fill="#4776BB" points="4156.891,449.639 4267.801,426.499 4260.969,572.646 				"/>				<polygon fill="#4E81C2" points="4249.318,334.197 4156.891,449.639 4267.801,426.499 				"/>				<polygon fill="#5376BA" points="1244.085,-61.648 1022.488,55.749 1292.885,121.018 				"/>				<polygon fill="#5B7CBD" points="1011.731,-90.214 1023.062,56.89 1241.275,-62.127 				"/>				<polygon fill="#5376BA" points="1009.977,-89.361 850.105,73.502 1022.965,55.461 				"/>				<polygon fill="#5777BB" points="1011.731,-90.214 804.209,-116.154 852.212,71.882 				"/>				<polygon fill="#5175B9" points="804.209,-116.154 698.79,1.905 852.979,75.209 				"/>				<polygon fill="#5176BA" points="698.79,1.905 662.82,-144.768 804.209,-116.154 				"/>				<polygon fill="#5276BA" points="662.82,-144.768 541.441,-68.519 698.79,1.905 				"/>				<polygon fill="#4167B1" points="540.323,-68.519 607.284,-277.094 291.022,-63.014 				"/>				<polygon fill="#4063AE" points="291.757,-61.648 296.001,-301.782 33.041,-59.678 				"/>				<polyline fill="#6F8AC6" points="2020.614,-112.261 1869.394,-160.591 1750.313,-75.396 2020.614,-112.261 				"/>				<polygon fill="#5E7CBE" points="1749.164,-74.249 1497.661,-63.635 1808.816,-276.248 				"/>				<polyline fill="#5876BA" points="1497.661,-63.635 1505.417,-327.155 1244.882,-61.13 1497.661,-63.635 				"/>				<polygon fill="#5E7FC0" points="3419.775,-89.296 3697.993,-262.924 3647.852,-60.979 				"/>				<polygon fill="#5374B9" points="3697.993,-262.924 3430.146,-262.924 3419.775,-89.296 				"/>				<polygon fill="#6280C0" points="3430.146,-262.924 3223.072,-119.138 3419.775,-89.296 				"/>				<polygon fill="#6482C1" points="3647.852,-60.979 3884.48,-285.776 3697.993,-262.924 				"/>				<polygon fill="#5377BB" points="3884.48,-285.776 3903.662,-69.125 3647.852,-60.979 				"/>				<polygon fill="#4F74B9" points="3905.514,-72.789 4216.318,-283.046 4150.315,-73.051 				"/>				<polygon fill="#335FAC" points="-1025.346,999.754 -822.964,1190.257 -925.192,1425.48 				"/>				<polyline fill="#608AC7" points="2267.809,588.133 2075.863,762.287 2265.064,792.455 2267.809,588.133 				"/>				<path fill="#658CC8" d="M2075.863,762.287l-80.91-182.364c0,0,275.602,10.956,272.855,8.211					C2265.064,585.404,2075.863,762.287,2075.863,762.287z"/>				<polygon fill="#6991CB" points="2075.863,762.287 1850.979,689.62 1994.953,579.922 				"/>				<polygon fill="#6E94CD" points="2075.863,762.287 1979.857,851.397 1850.979,689.62 				"/>				<polygon fill="#6993CD" points="1986.72,850.049 1878.394,1047.509 1856.467,693.722 				"/>				<polygon fill="#5E8CC9" points="1878.394,1047.509 1794.772,939.177 1848.234,695.102 				"/>				<polygon fill="#6892CC" points="1794.772,939.177 1690.566,774.614 1850.979,689.62 				"/>				<polygon fill="#6C93CC" points="1850.979,689.62 1746.771,597.732 1683.672,780.103 				"/>				<polygon fill="#5E85C4" points="1746.771,597.732 1856.467,584.04 1850.979,689.62 				"/>				<polygon fill="#668BC7" points="1994.953,579.922 1856.467,584.04 1850.979,689.62 				"/>				<polygon fill="#5380C1" points="2432.371,593.631 2265.064,792.455 2498.184,813.034 				"/>				<polygon fill="#6489C6" points="2428.254,593.631 2267.809,588.133 2265.064,792.455 				"/>				<polygon fill="#6A91CB" points="1979.857,851.397 2265.064,792.455 2075.863,762.287 				"/>				<polygon fill="#5F86C4" points="2479.002,470.225 2259.608,471.582 2274.672,582.667 				"/>				<polygon fill="#5C80C1" points="1994.953,579.922 2259.608,471.582 2274.672,582.667 				"/>				<polygon fill="#6689C6" points="2259.608,471.582 2206.084,259.049 2042.926,468.853 				"/>				<polygon fill="#6D8BC6" points="2206.084,259.049 2259.608,466.109 2513.28,286.489 				"/>				<polygon fill="#6689C6" points="2513.28,286.489 2259.608,471.582 2479.002,470.225 				"/>				<polygon fill="#6C8CC8" points="2480.374,464.72 2669.574,297.436 2513.28,286.489 				"/>				<polygon fill="#6B8EC9" points="2669.574,297.436 2679.15,398.916 2479.002,470.225 				"/>				<polygon fill="#658BC7" points="2679.15,398.916 2432.371,593.631 2479.002,470.225 				"/>				<polygon fill="#6790CB" points="2679.15,398.916 2432.371,593.631 2498.184,813.034 				"/>				<polygon fill="#648DC9" points="2501.918,812.428 2723.068,574.8 2679.15,398.916 				"/>				<polygon fill="#6692CC" points="2723.068,574.8 2724.791,769.06 2498.438,815.891 				"/>				<polygon fill="#5787C5" points="2724.791,769.06 2498.438,815.891 2494.959,934.691 				"/>				<path fill="#6D96CE" d="M2265.064,792.455c0,0-33.735,130.97-36.354,130.97c-2.584,0-206.405,50.301-206.405,50.301					L2265.064,792.455z"/>				<polygon fill="#6B8FCA" points="1856.467,584.04 2032.712,469.858 1994.953,579.922 				"/>				<polygon fill="#537BBD" points="1911.3,414.339 1856.659,580.857 2032.712,469.858 				"/>				<polygon fill="#6183C2" points="1911.3,414.339 1748.271,462.909 1856.659,580.857 				"/>				<polygon fill="#5980C1" points="1748.271,462.909 1745.653,594.739 1856.467,584.04 				"/>				<polygon fill="#658CC8" points="1743.93,461.185 1523.609,770.8 1746.771,597.732 				"/>				<polygon fill="#557FC0" points="1743.93,461.185 1522.748,575.662 1523.609,767.321 				"/>				<polygon fill="#628DC9" points="1522.748,575.662 1298.119,814.15 1521.025,769.922 				"/>				<polygon fill="#5181C2" points="1521.025,769.922 1294.672,932.099 1298.119,814.15 				"/>				<polygon fill="#6893CD" points="1292.95,929.489 1495.873,909.55 1521.025,769.922 				"/>				<polygon fill="#6390CB" points="1495.873,909.55 1683.672,780.103 1521.025,769.922 				"/>				<polygon fill="#5D86C5" points="1746.771,597.732 1523.609,770.8 1683.672,780.103 				"/>				<polygon fill="#5E86C5" points="1297.448,810.289 1476.629,399.833 1523.259,572.591 				"/>				<polygon fill="#6088C6" points="1297.448,810.289 1227.072,597.285 1476.629,399.833 				"/>				<polygon fill="#4B79BD" points="1227.072,597.285 1066.182,794.745 1298.119,814.15 				"/>				<polygon fill="#5982C2" points="1227.072,597.285 1068,584.495 1066.182,794.745 				"/>				<polygon fill="#6289C6" points="1068,584.495 1285.576,461.991 1227.072,597.285 				"/>				<path fill="#6085C4" d="M1285.576,461.991l191.053-62.158c0,0-250.483,203.853-250.483,201.116					C1226.146,598.203,1285.576,461.991,1285.576,461.991z"/>				<polygon fill="#587ABD" points="1472.957,400.743 1472.957,292.872 1729.854,212.418 				"/>				<path fill="#6484C2" d="M1729.854,212.418c-11.904,4.588-253.226,187.414-253.226,187.414l267.301,61.353L1729.854,212.418z"/>				<polygon fill="#5F81C1" points="1729.854,212.418 1841.372,338.577 1743.93,461.185 				"/>				<polygon fill="#6E8EC9" points="1841.372,338.577 1911.3,414.339 1743.93,461.185 				"/>				<path fill="#6B87C4" d="M1729.854,212.418c-3.669-1.811-189.201-74.021-189.201-74.021l-71.334,151.739L1729.854,212.418z"/>				<polygon fill="#5277BB" points="1540.654,138.397 1311.172,285.556 1472.957,292.872 				"/>				<polygon fill="#5779BC" points="1540.654,138.397 1292.246,120.882 1311.172,285.556 				"/>				<polygon fill="#5779BC" points="1540.654,138.397 1749.962,-75.508 1685.969,97.264 				"/>				<polygon fill="#6784C2" points="1540.654,138.397 1497.661,-63.635 1749.962,-75.508 				"/>				<polygon fill="#6784C2" points="1497.661,-63.635 1292.885,121.018 1540.654,138.397 				"/>				<polygon fill="#5F7DBE" points="1498.587,-64.218 1243.542,-61.066 1293.811,120.436 				"/>				<polygon fill="#6887C5" points="1729.854,212.418 1685.969,97.264 1540.654,138.397 				"/>				<polygon fill="#6E89C5" points="1685.969,97.264 1900.768,1.274 1749.962,-75.508 				"/>				<polygon fill="#6785C3" points="1895.312,2.185 1685.969,97.264 1729.854,212.418 				"/>				<polygon fill="#5D7BBD" points="1729.854,212.418 1847.754,181.348 1895.312,2.185 				"/>				<polygon fill="#6B8AC6" points="1847.754,181.348 1841.372,338.577 1729.854,212.418 				"/>				<polygon fill="#6989C6" points="1847.754,181.348 2067.148,278.263 1841.372,338.577 				"/>				<polygon fill="#6B8CC7" points="1841.372,338.577 1914.493,412.64 2067.148,278.263 				"/>				<polygon fill="#6788C5" points="2067.148,281.91 2032.712,469.858 1911.3,414.339 				"/>				<polygon fill="#5D7CBE" points="2067.148,278.263 2051.606,83.548 1847.754,181.348 				"/>				<polygon fill="#7089C5" points="2051.606,83.548 1895.312,2.185 1847.754,181.348 				"/>				<polygon fill="#6182C2" points="2067.148,278.263 2206.084,259.049 2032.712,469.858 				"/>				<polygon fill="#6483C2" points="2067.148,278.263 2226.254,47.905 2051.606,83.548 				"/>				<polygon fill="#6786C3" points="2067.148,278.263 2206.084,259.049 2226.254,47.905 				"/>				<polygon fill="#6D8AC6" points="2226.254,47.905 2491.321,120.108 2206.084,259.049 				"/>				<polygon fill="#6886C4" points="2494.992,121.018 2206.084,259.049 2513.28,286.489 				"/>				<polygon fill="#6481C0" points="2221.659,46.971 2441.053,-56.319 2494.992,121.018 				"/>				<polygon fill="#6E8AC6" points="2226.254,47.905 2218.913,-90.142 2443.798,-60.875 				"/>				<polygon fill="#6886C4" points="2218.913,-90.142 2051.606,83.548 2226.254,47.905 				"/>				<polygon fill="#6886C4" points="2218.913,-91.06 2023.296,-113.905 2051.606,83.548 				"/>				<polygon fill="#6E87C4" points="2023.296,-113.905 1895.312,2.185 2051.606,83.548 				"/>				<polygon fill="#6482C1" points="2734.493,136.57 2513.28,286.489 2491.321,120.108 				"/>				<polygon fill="#5D7EBF" points="2734.493,136.57 2668.683,293.798 2513.28,286.489 				"/>				<polygon fill="#6186C4" points="2032.712,469.858 1994.953,579.922 2259.608,471.582 				"/>				<polygon fill="#6E8BC7" points="2890.119,95.939 2739.313,137.279 2931.451,212.3 				"/>				<polygon fill="#5B81C1" points="1476.629,399.833 1522.748,575.662 1746.834,460.315 				"/>				<polygon fill="#517EC0" points="800.634,577.745 1068,584.495 879.438,766.54 				"/>				<polygon fill="#3F6DB5" points="-415.643,572.08 -327.234,759.605 -140.106,585.349 				"/>				<polygon fill="#3D67B1" points="-405.366,472.467 -415.643,572.08 -144.99,472.516 				"/>				<polygon fill="#3F6DB5" points="-348.969,274.05 -405.366,472.467 -187.503,259.895 				"/>				<polygon fill="#3969B3" points="-382.131,841.902 -377.536,767.943 -327.234,759.605 				"/>				<polygon fill="#3B79BD" points="-415.547,1095.67 -349.831,1276.781 -204.163,1108.901 				"/>				<polygon fill="#3576B0" points="-349.831,1276.781 -623.58,1363.723 -349.831,1410.385 				"/>				<polygon fill="#3F74BA" points="-415.547,1095.67 -637.24,1376.234 -349.831,1276.781 				"/>				<polygon fill="#3C6DB5" points="-415.547,1095.67 -606.281,1069.507 -637.24,1376.234 				"/>				<polygon fill="#4278BC" points="-383.823,978.217 -607.526,1069.507 -415.547,1095.67 				"/>				<polygon fill="#4365AF" points="-604.429,1069.507 -823.345,1190.576 -637.24,1376.234 				"/>				<polygon fill="#3E5FAC" points="-823.345,1190.576 -632.229,1380.767 -925.542,1425.834 				"/>				<polygon fill="#3C6DB5" points="-823.314,1190.639 -554.959,887.511 -604.397,1069.611 				"/>				<polygon fill="#4365AF" points="-823.122,1190.384 -1004.409,1019.637 -859.507,1004.183 				"/>				<polygon fill="#3968B2" points="-823.314,1190.639 -859.507,1004.183 -554.959,887.511 				"/>			</g>		</g>	</g>	<linearGradient id="SVGID_4_" gradientUnits="userSpaceOnUse" x1="2274.2178" y1="2605.1133" x2="1709.5593" y2="-196.8967">		<stop  offset="0.0307" style="stop-color:#4BACD5"/>		<stop  offset="0.4969" style="stop-color:#4CC5D7;stop-opacity:0.49"/>		<stop  offset="1" style="stop-color:#1C466A"/>	</linearGradient>	<rect x="-246.995" y="-13.382" fill="url(#SVGID_4_)" width="4435.353" height="2224.491"/></g></svg>