<svg enable-background="new 0 0 280 75" version="1.1" viewBox="0 0 280 75" xml:space="preserve" xmlns="http://www.w3.org/2000/svg"><path d="m60.21 14.391h-7.659c-7.322 0-8.638 6.212-8.638 6.212l-3.058 16.061h4.707c6.77 0 6.552 4.853 6.552 4.853l-0.195 2.669s-0.267-2.669-4.852-2.669c-3.567 0-5.677 1.163-5.677 1.163s-1.454 0.849-1.941 2.717c-0.22 1.021-2.523 13.249-2.523 13.249s-0.706 2.829 1.832 3.942c1.825 0.801 5.156 1.053 5.156 1.053s-14.314 0-15.333 0c-7.691 0-8.369-5.87-8.055-7.472 0.195-1.236 0.873-3.905 1.043-4.61 1.99-7.618 18.415-9.896 18.415-9.896s-16.856 1.661-17.955 1.747c-13.027 1.387-14.119-6.941-14.119-6.941h16.208l3.93-14.652s2.896-9.188 12.099-9.188c1.351 0 11.694 8e-3 18.278 0.012-6.069-5.498-14.123-8.848-22.956-8.848-18.895 0-34.213 15.318-34.213 34.213s15.318 34.211 34.213 34.211c18.893 0 34.211-15.316 34.211-34.211-1e-3 -9.161-3.609-17.473-9.47-23.615z" fill="#fff"/><g fill="#fff"><path d="m158.14 53.46c-1.101 0.489-2.87 0.927-5.069 0.927-4.928 0-7.916-3.102-7.916-8.086 0-3.68 1.483-7.188 4.179-9.415 1.996-1.711 4.493-2.638 7.355-2.638 2.174 0 3.712 0.548 4.23 0.956l-0.781 1.941c-0.727-0.438-2.115-0.811-3.854-0.811-2.029 0-4.083 0.783-5.592 2.204-1.825 1.71-2.983 4.462-2.983 7.417 0 3.507 1.591 6.375 5.938 6.375 1.478 0 3.103-0.287 4.176-0.838l0.317 1.968z"/><path d="m177.55 42.243c0 3.392-1.214 7.131-3.538 9.447-1.735 1.71-3.996 2.723-6.692 2.723-5.039 0-7.421-3.793-7.421-7.937 0-3.451 1.368-7.243 3.742-9.591 1.65-1.624 4.088-2.638 6.55-2.638 5.244 1e-3 7.359 3.825 7.359 7.996zm-12.14-4c-1.885 1.885-2.99 5.306-2.99 8.03 0 3.188 1.424 6.111 5.249 6.111 1.653 0 3.244-0.721 4.462-1.938 1.823-1.854 2.896-5.36 2.896-8.085 0-2.784-0.898-6.086-5.157-6.086-1.739 1e-3 -3.273 0.755-4.46 1.968z"/><path d="m194.56 54.098l1.391-10.549c0.256-1.854 0.695-4.723 1.064-6.61h-0.11c-0.898 1.973-1.969 4.29-3.043 6.292l-5.794 10.752h-1.856l-1.454-10.521c-0.285-2.261-0.488-4.521-0.605-6.524h-0.056c-0.438 1.796-1.045 4.755-1.51 6.61l-2.66 10.549h-2.263l5.069-19.532h3.072l1.537 11.216c0.199 1.65 0.434 3.416 0.462 4.868h0.089c0.607-1.452 1.451-3.188 2.289-4.813l6.058-11.271h3.13l-2.495 19.532h-2.315z"/><path d="m216.58 54.098l1.392-10.549c0.259-1.854 0.697-4.723 1.07-6.61h-0.115c-0.896 1.973-1.97 4.29-3.044 6.292l-5.792 10.752h-1.857l-1.45-10.521c-0.289-2.261-0.491-4.521-0.607-6.524h-0.058c-0.433 1.796-1.041 4.755-1.506 6.61l-2.666 10.549h-2.262l5.07-19.532h3.076l1.531 11.216c0.205 1.65 0.437 3.416 0.462 4.868h0.09c0.608-1.452 1.448-3.188 2.288-4.813l6.059-11.271h3.13l-2.492 19.532h-2.319z"/><path d="m233.48 44.911h-7.1l-1.332 7.131h7.999l-0.408 2.056h-10.403l3.71-19.532h9.97l-0.404 2.056h-7.54l-1.185 6.263h7.1l-0.407 2.026z"/><path d="m238.95 34.855c1.186-0.26 2.816-0.434 4.262-0.434 1.94 0 3.618 0.462 4.665 1.418 0.896 0.782 1.443 1.915 1.443 3.246 0 2.84-2.168 4.957-4.633 5.65l-0.027 0.058c1.362 0.465 2.023 1.912 2.17 3.944 0.207 2.721 0.353 4.575 0.611 5.36h-2.497c-0.109-0.409-0.313-2.463-0.46-4.724-0.139-2.669-1.131-3.799-3.072-3.799h-2.145l-1.592 8.522h-2.409l3.684-19.241zm0.694 8.866h2.147c3.044 0 5.012-1.995 5.012-4.342 0-2.089-1.563-3.017-3.768-3.017-0.952 0-1.591 0.086-2.025 0.205l-1.366 7.154z"/><path d="m263.5 53.46c-1.108 0.489-2.875 0.927-5.079 0.927-4.925 0-7.908-3.102-7.908-8.086 0-3.68 1.477-7.188 4.172-9.415 2-1.711 4.491-2.638 7.361-2.638 2.173 0 3.709 0.548 4.231 0.956l-0.784 1.941c-0.723-0.438-2.115-0.811-3.852-0.811-2.029 0-4.09 0.783-5.596 2.204-1.823 1.71-2.983 4.462-2.983 7.417 0 3.507 1.596 6.375 5.938 6.375 1.483 0 3.102-0.287 4.179-0.838l0.321 1.968z"/><path d="m276.74 44.911h-7.099l-1.333 7.131h7.996l-0.409 2.056h-10.4l3.709-19.532h9.969l-0.406 2.056h-7.531l-1.188 6.263h7.096l-0.404 2.026z"/></g><path d="m130.83 34.196h-6.326c-5.748 0-7.662 3.601-8.115 4.712-1.643 4.672 2.214 6.883 2.214 6.883s2.078 1.095 3.4 1.856c1.316 0.762 1.295 2.63 0.263 3.531-3.427 2.526-4.746-1.153-4.984-1.79-0.231-0.633-0.914-0.246-0.914-0.246s-0.901 0.414-1.721 0.942c-0.906 0.583-0.361 1.278-0.361 1.278s2.945 4.023 7.667 2.938c1.593-0.365 8.066-1.85 6.725-8.108-0.708-3.194-4.958-4.386-5.761-4.778-1.163-0.509-1.637-1.456-1.436-2.474 0.273-1.396 1.199-2.002 2.885-2.002h6.049l0.415-2.742z" fill="#fff"/><path d="m104.13 25.126h-1.242-1.446-5.209c-8.719 0-10.238 7.421-10.238 7.421l-3.217 20.27s-0.022 0.076-0.024 0.195l-0.165 0.935h1.039c0.021 0 0.037 0.013 0.062 0.013h6.104c1.297 0 1.476-1.143 1.476-1.143l1.606-9.878h5.796c0.853 0 0.959-0.834 0.959-0.834l0.52-3.279h-6.628l0.963-6.144s0.427-3.709 2.768-3.709h5.183c1.097 0 1.17-0.958 1.17-0.958l0.375-2.063s0.013-0.04 0.013-0.099l0.135-0.727z" fill="#fff"/><path d="m146.18 34.2h-0.89c-0.021 0-0.031-6e-3 -0.045-6e-3h-16.967c-0.735 0-0.829 0.739-0.829 0.739l-0.205 1.404s-0.124 0.602 0.739 0.602h4.286c0.975 0 0.776 0.838 0.776 0.838l-2.384 15.054s-4e-3 0.04-0.017 0.088l-0.168 1.018h0.936c8e-3 0 0.017 7e-3 0.019 7e-3h4.831c1.064 0 1.201-1.006 1.201-1.006l2.382-15.161s0.062-0.838 1.214-0.838h3.686c0.946 0 1.135-0.904 1.135-0.904l0.171-1.037s0.017-0.07 0.017-0.162l0.112-0.636z" fill="#fff"/><path d="m113.84 52.715c-0.017-0.135-2.803-15.51-2.844-15.661-0.083-0.312-0.813-3.205-3.491-3.205-2.287 0-3.045 0.854-3.71 1.791-0.242 0.339-0.795 1.351-0.795 1.351l-7.669 15.811-0.037 0.057c-2e-3 0.013-2e-3 0.018-0.012 0.025l-0.503 0.975h1.226 0.023 1.274c1.203 0 1.522-1.027 1.522-1.027l0.868-1.878s0.269-0.625 0.939-0.625h5.121c0.776 0 0.821 0.539 0.821 0.539l0.292 1.987s0.115 1.052 1.072 1.052h4.814c1.036-1e-3 1.114-0.958 1.089-1.192zm-8.546-5.334c-0.624 0-3.905 6e-3 -3.905 6e-3s2.883-6.022 2.998-6.269c0.111-0.307 0.71-1.022 0.918 0.047 0.197 1.074 0.691 5.099 0.691 5.099s0.184 1.117-0.702 1.117z" fill="#fff"/></svg>