<svg version="1.1" id="Layer_1" xmlns="http://www.w3.org/2000/svg" xmlns:xlink="http://www.w3.org/1999/xlink" x="0px" y="0px"	 width="28px" height="28px" viewBox="0 0 28 28" enable-background="new 0 0 28 28" xml:space="preserve"><path fill="#FFFFFF" d="M14,4.165V0.453l-4.95,4.95L14,10.352V6.64c4.097,0,7.426,3.329,7.426,7.424c0,1.249-0.31,2.438-0.867,3.465	l1.807,1.807c0.966-1.523,1.535-3.328,1.535-5.271C23.9,8.595,19.47,4.165,14,4.165z M14,21.489c-4.096,0-7.425-3.328-7.425-7.425	c0-1.25,0.309-2.438,0.866-3.464L5.634,8.793C4.669,10.315,4.1,12.122,4.1,14.064c0,5.47,4.431,9.899,9.9,9.899v3.712l4.95-4.949	L14,17.776V21.489z"/></svg>