<svg version="1.1" id="Layer_1" xmlns="http://www.w3.org/2000/svg" xmlns:xlink="http://www.w3.org/1999/xlink" x="0px" y="0px"	 width="20px" height="20px" viewBox="0 0 20 20" enable-background="new 0 0 20 20" xml:space="preserve"><path fill="#FFFFFF" d="M6.202,15.721c-1.045,0-1.89,0.855-1.89,1.899s0.845,1.899,1.89,1.899c1.044,0,1.899-0.855,1.899-1.899	S7.246,15.721,6.202,15.721z M0.504,0.527v1.899h1.899l3.418,7.207L4.54,11.961c-0.152,0.266-0.238,0.579-0.238,0.911	c0,1.044,0.854,1.899,1.899,1.899h11.395v-1.899H6.601c-0.133,0-0.238-0.104-0.238-0.237l0.029-0.114l0.854-1.548h7.074	c0.712,0,1.339-0.389,1.662-0.977l3.399-6.164c0.076-0.133,0.114-0.294,0.114-0.456c0-0.522-0.428-0.95-0.949-0.95H4.502	L3.609,0.527H0.504z M15.697,15.721c-1.044,0-1.89,0.855-1.89,1.899s0.846,1.899,1.89,1.899c1.045,0,1.899-0.855,1.899-1.899	S16.742,15.721,15.697,15.721z"/></svg>