<svg version="1.1" id="Layer_1" xmlns="http://www.w3.org/2000/svg" xmlns:xlink="http://www.w3.org/1999/xlink" x="0px" y="0px"	 width="28px" height="28px" viewBox="0 0 28 28" enable-background="new 0 0 28 28" xml:space="preserve"><path fill="#6D6D6D" d="M15.521,0.417h-3.042v15.208h3.042V0.417z M22.866,3.717l-2.159,2.16c2.403,1.931,3.938,4.897,3.938,8.228	c0,5.886-4.76,10.646-10.646,10.646S3.354,19.99,3.354,14.104c0-3.331,1.537-6.296,3.924-8.243L5.133,3.717	c-2.95,2.509-4.821,6.22-4.821,10.387c0,7.56,6.128,13.687,13.688,13.687c7.56,0,13.688-6.127,13.688-13.687	C27.688,9.937,25.816,6.227,22.866,3.717z"/></svg>